ScienceGothic-BlkExpS.ufo
<glyph name="exclam" format="2">
  <advance width="1187"/>
  <unicode hex="0021"/>
  <outline>
    <contour>
      <point x="215.286" y="135" type="line"/>
      <point x="230.286" y="226" type="line" smooth="yes"/>
      <point x="238.286" y="270"/>
      <point x="258.286" y="324"/>
      <point x="294.286" y="354"/>
      <point x="351.286" y="364"/>
      <point x="396.286" y="364" type="qcurve" smooth="yes"/>
      <point x="683.286" y="364" type="line" smooth="yes"/>
      <point x="728.286" y="364"/>
      <point x="782.286" y="354"/>
      <point x="807.286" y="324"/>
      <point x="808.286" y="269"/>
      <point x="800.286" y="224" type="qcurve" smooth="yes"/>
      <point x="785.286" y="135" type="line" smooth="yes"/>
      <point x="777.286" y="90"/>
      <point x="757.286" y="35"/>
      <point x="721.286" y="4"/>
      <point x="664.286" y="-6"/>
      <point x="619.286" y="-6" type="qcurve" smooth="yes"/>
      <point x="331.286" y="-6" type="line" smooth="yes"/>
      <point x="286.286" y="-6"/>
      <point x="233.286" y="4"/>
      <point x="208.286" y="35"/>
      <point x="207.286" y="90"/>
      <point x="215.286" y="135" type="qcurve"/>
    </contour>
    <contour>
      <point x="319.286" y="462" type="line"/>
      <point x="412.286" y="1400" type="line"/>
      <point x="1028.29" y="1400" type="line"/>
      <point x="795.286" y="462" type="line"/>
    </contour>
  </outline>
</glyph>
<glyph name="numbersign" format="2">
  <advance width="1929"/>
  <unicode hex="0023"/>
  <outline>
    <contour>
      <point x="79" y="224" type="line"/>
      <point x="210" y="636" type="line"/>
      <point x="1676" y="636" type="line"/>
      <point x="1545" y="224" type="line"/>
    </contour>
    <contour>
      <point x="250" y="765" type="line"/>
      <point x="380" y="1177" type="line"/>
      <point x="1846" y="1177" type="line"/>
      <point x="1716" y="765" type="line"/>
    </contour>
    <contour>
      <point x="309" y="0" type="line"/>
      <point x="751" y="1400" type="line"/>
      <point x="1037" y="1400" type="line"/>
      <point x="594" y="0" type="line"/>
    </contour>
    <contour>
      <point x="889" y="0" type="line"/>
      <point x="1332" y="1400" type="line"/>
      <point x="1617" y="1400" type="line"/>
      <point x="1175" y="0" type="line"/>
    </contour>
  </outline>
  <guideline angle="0" x="0" y="524"/>
  <guideline angle="0" x="0" y="1065"/>
</glyph>
<glyph name="ampersand" format="2">
  <advance width="2927"/>
  <unicode hex="0026"/>
  <outline>
    <contour>
      <point x="306" y="-10" type="line"/>
      <point x="1360" y="-10" type="line" smooth="yes"/>
      <point x="1423" y="-10"/>
      <point x="1538" y="2"/>
      <point x="1645" y="26"/>
      <point x="1744" y="62"/>
      <point x="1791" y="87" type="qcurve"/>
      <point x="1791" y="87" type="line"/>
      <point x="1929" y="0" type="line"/>
      <point x="2807" y="0" type="line"/>
      <point x="2264" y="364" type="line"/>
      <point x="2822" y="649" type="line"/>
      <point x="2432" y="914" type="line"/>
      <point x="1881" y="632" type="line"/>
      <point x="1324" y="1024" type="line"/>
      <point x="1324" y="1024"/>
      <point x="1324" y="1024"/>
      <point x="1324" y="1024"/>
      <point x="1324" y="1024"/>
      <point x="1324" y="1024" type="qcurve"/>
      <point x="1328" y="1048" type="line"/>
      <point x="1328" y="1048"/>
      <point x="1328" y="1048"/>
      <point x="1328" y="1048"/>
      <point x="1328" y="1048"/>
      <point x="1328" y="1048" type="qcurve"/>
      <point x="1875" y="1048" type="line"/>
      <point x="1875" y="1048"/>
      <point x="1875" y="1048"/>
      <point x="1875" y="1048"/>
      <point x="1875" y="1048"/>
      <point x="1875" y="1048" type="qcurve"/>
      <point x="1855" y="936" type="line"/>
      <point x="2339" y="1043" type="line"/>
      <point x="2352" y="1119" type="line" smooth="yes"/>
      <point x="2364" y="1188"/>
      <point x="2336" y="1297"/>
      <point x="2262" y="1373"/>
      <point x="2143" y="1414"/>
      <point x="2063" y="1414" type="qcurve" smooth="yes"/>
      <point x="1227" y="1414" type="line" smooth="yes"/>
      <point x="1150" y="1414"/>
      <point x="1019" y="1372"/>
      <point x="918" y="1292"/>
      <point x="852" y="1180"/>
      <point x="840" y="1109" type="qcurve" smooth="yes"/>
      <point x="825" y="1024" type="line"/>
      <point x="825" y="1022"/>
      <point x="824" y="1018"/>
      <point x="823" y="1013"/>
      <point x="822" y="1009"/>
      <point x="822" y="1007" type="qcurve"/>
      <point x="292" y="800" type="line" smooth="yes"/>
      <point x="253" y="785"/>
      <point x="191" y="737"/>
      <point x="143" y="671"/>
      <point x="110" y="587"/>
      <point x="101" y="536" type="qcurve" smooth="yes"/>
      <point x="50" y="246" type="line" smooth="yes"/>
      <point x="42" y="198"/>
      <point x="78" y="106"/>
      <point x="150" y="34"/>
      <point x="250" y="-10"/>
      <point x="306" y="-10" type="qcurve"/>
    </contour>
    <contour>
      <point x="555" y="400" type="line"/>
      <point x="555" y="400"/>
      <point x="555" y="400"/>
      <point x="555" y="400"/>
      <point x="555" y="400"/>
      <point x="555" y="400" type="qcurve"/>
      <point x="569" y="484" type="line"/>
      <point x="569" y="484"/>
      <point x="569" y="484"/>
      <point x="569" y="484"/>
      <point x="569" y="484"/>
      <point x="569" y="484" type="qcurve"/>
      <point x="996" y="679" type="line"/>
      <point x="1357" y="400" type="line"/>
      <point x="1357" y="400" type="line"/>
      <point x="1357" y="400"/>
      <point x="1357" y="400"/>
      <point x="1357" y="400"/>
      <point x="1357" y="400"/>
      <point x="1357" y="400" type="qcurve"/>
    </contour>
  </outline>
</glyph>
<glyph name="quotesingle" format="2">
  <advance width="1146.29"/>
  <unicode hex="0027"/>
  <outline>
    <contour>
      <point x="377.062" y="1184" type="line"/>
      <point x="403.062" y="1333" type="line" smooth="yes"/>
      <point x="411.062" y="1376"/>
      <point x="422.062" y="1423"/>
      <point x="445.062" y="1446"/>
      <point x="486.062" y="1450"/>
      <point x="522.062" y="1450" type="qcurve" smooth="yes"/>
      <point x="894.062" y="1450" type="line" smooth="yes"/>
      <point x="930.062" y="1450"/>
      <point x="970.062" y="1446"/>
      <point x="985.062" y="1423"/>
      <point x="981.062" y="1376"/>
      <point x="973.062" y="1333" type="qcurve" smooth="yes"/>
      <point x="947.062" y="1184" type="line"/>
      <point x="737.062" y="785" type="line"/>
      <point x="447.062" y="785" type="line"/>
    </contour>
  </outline>
</glyph>
<glyph name="parenleft" format="2">
  <advance width="1030"/>
  <unicode hex="0028"/>
  <outline>
    <contour>
      <point x="769.034" y="-256" type="line"/>
      <point x="473.034" y="-256" type="line"/>
      <point x="389.034" y="-182"/>
      <point x="268.034" y="17"/>
      <point x="198.034" y="246"/>
      <point x="183.034" y="496"/>
      <point x="205.034" y="622" type="qcurve" smooth="yes"/>
      <point x="227.034" y="748"/>
      <point x="333.034" y="998"/>
      <point x="485.034" y="1228"/>
      <point x="675.034" y="1426"/>
      <point x="780.034" y="1500" type="qcurve"/>
      <point x="1076.03" y="1500" type="line"/>
      <point x="1026.03" y="1449"/>
      <point x="930.034" y="1325"/>
      <point x="842.034" y="1185"/>
      <point x="764.034" y="1032"/>
      <point x="700.034" y="870"/>
      <point x="651.034" y="705"/>
      <point x="637.034" y="622" type="qcurve" smooth="yes"/>
      <point x="623.034" y="540"/>
      <point x="613.034" y="374"/>
      <point x="621.034" y="212"/>
      <point x="646.034" y="59"/>
      <point x="685.034" y="-81"/>
      <point x="737.034" y="-205"/>
      <point x="769.034" y="-256" type="qcurve"/>
    </contour>
  </outline>
</glyph>
<glyph name="asterisk" format="2">
  <advance width="1146"/>
  <unicode hex="002A"/>
  <outline>
    <contour>
      <point x="487" y="782" type="line"/>
      <point x="539" y="1077" type="line"/>
      <point x="556" y="1176" type="line"/>
      <point x="608" y="1472" type="line"/>
      <point x="816" y="1472" type="line"/>
      <point x="764" y="1174" type="line"/>
      <point x="747" y="1076" type="line"/>
      <point x="695" y="782" type="line"/>
    </contour>
    <contour>
      <point x="174" y="986" type="line"/>
      <point x="611" y="1210" type="line"/>
      <point x="708" y="1242" type="line"/>
      <point x="1062" y="1422" type="line"/>
      <point x="1129" y="1268" type="line"/>
      <point x="692" y="1045" type="line"/>
      <point x="596" y="1013" type="line"/>
      <point x="241" y="832" type="line"/>
    </contour>
    <contour>
      <point x="223" y="1264" type="line"/>
      <point x="346" y="1420" type="line"/>
      <point x="639" y="1242" type="line"/>
      <point x="721" y="1212" type="line"/>
      <point x="1080" y="984" type="line"/>
      <point x="957" y="828" type="line"/>
      <point x="665" y="1013" type="line"/>
      <point x="582" y="1043" type="line"/>
    </contour>
  </outline>
</glyph>
<glyph name="plus" format="2">
  <advance width="2028.28"/>
  <unicode hex="002B"/>
  <outline>
    <contour>
      <point x="1829" y="732" type="line"/>
      <point x="1778" y="442" type="line"/>
      <point x="1132" y="442" type="line"/>
      <point x="1055" y="0" type="line"/>
      <point x="733" y="0" type="line"/>
      <point x="810" y="442" type="line"/>
      <point x="164" y="442" type="line"/>
      <point x="215" y="732" type="line"/>
      <point x="861" y="732" type="line"/>
      <point x="937" y="1168" type="line"/>
      <point x="1259" y="1168" type="line"/>
      <point x="1183" y="732" type="line"/>
    </contour>
  </outline>
</glyph>
<glyph name="comma" format="2">
  <advance width="1144"/>
  <unicode hex="002C"/>
  <outline>
    <contour>
      <point x="191.314" y="145" type="line"/>
      <point x="233.314" y="385" type="line" smooth="yes"/>
      <point x="241.314" y="429"/>
      <point x="261.314" y="484"/>
      <point x="296.314" y="514"/>
      <point x="353.314" y="524"/>
      <point x="398.314" y="524" type="qcurve" smooth="yes"/>
      <point x="686.314" y="524" type="line" smooth="yes"/>
      <point x="731.314" y="524"/>
      <point x="785.314" y="514"/>
      <point x="810.314" y="484"/>
      <point x="811.314" y="429"/>
      <point x="803.314" y="385" type="qcurve" smooth="yes"/>
      <point x="761.314" y="145" type="line" smooth="yes"/>
      <point x="753.314" y="100"/>
      <point x="733.314" y="45"/>
      <point x="698.314" y="14"/>
      <point x="641.314" y="4"/>
      <point x="596.314" y="4" type="qcurve" smooth="yes"/>
      <point x="308.314" y="4" type="line" smooth="yes"/>
      <point x="263.314" y="4"/>
      <point x="209.314" y="14"/>
      <point x="184.314" y="45"/>
      <point x="183.314" y="100"/>
      <point x="191.314" y="145" type="qcurve"/>
    </contour>
    <contour>
      <point x="166.314" y="-298" type="line"/>
      <point x="390.314" y="22" type="line"/>
      <point x="722.314" y="36" type="line"/>
      <point x="370.314" y="-342" type="line"/>
      <point x="166.314" y="-298" type="line"/>
    </contour>
  </outline>
</glyph>
<glyph name="hyphen" format="2">
  <advance width="1647"/>
  <unicode hex="002D"/>
  <outline>
    <contour>
      <point x="246.235" y="818" type="line"/>
      <point x="1446.24" y="818" type="line"/>
      <point x="1374.24" y="406" type="line"/>
      <point x="174.235" y="406" type="line"/>
    </contour>
  </outline>
  <guideline y="610"/>
</glyph>
<glyph name="period" format="2">
  <advance width="1142"/>
  <unicode hex="002E"/>
  <outline>
    <contour>
      <point x="190.49" y="135" type="line"/>
      <point x="233.49" y="386" type="line" smooth="yes"/>
      <point x="241.49" y="430"/>
      <point x="261.49" y="484"/>
      <point x="296.49" y="514"/>
      <point x="353.49" y="524"/>
      <point x="398.49" y="524" type="qcurve" smooth="yes"/>
      <point x="685.49" y="524" type="line" smooth="yes"/>
      <point x="730.49" y="524"/>
      <point x="784.49" y="514"/>
      <point x="810.49" y="484"/>
      <point x="811.49" y="429"/>
      <point x="803.49" y="384" type="qcurve" smooth="yes"/>
      <point x="760.49" y="135" type="line" smooth="yes"/>
      <point x="752.49" y="90"/>
      <point x="732.49" y="35"/>
      <point x="696.49" y="4"/>
      <point x="639.49" y="-6"/>
      <point x="594.49" y="-6" type="qcurve" smooth="yes"/>
      <point x="306.49" y="-6" type="line" smooth="yes"/>
      <point x="261.49" y="-6"/>
      <point x="208.49" y="4"/>
      <point x="183.49" y="35"/>
      <point x="182.49" y="90"/>
      <point x="190.49" y="135" type="qcurve"/>
    </contour>
  </outline>
</glyph>
<glyph name="slash" format="2">
  <advance width="1820"/>
  <unicode hex="002F"/>
  <outline>
    <contour>
      <point x="1329.08" y="1430" type="line"/>
      <point x="1808.08" y="1430" type="line"/>
      <point x="484.081" y="-100" type="line"/>
      <point x="5.0813" y="-100" type="line"/>
    </contour>
  </outline>
</glyph>
<glyph name="zero" format="2">
  <advance width="2951" height="1448"/>
  <unicode hex="0030"/>
  <outline>
    <contour>
      <point x="610" y="-14" type="line"/>
      <point x="2096" y="-14" type="line" smooth="yes"/>
      <point x="2195" y="-14"/>
      <point x="2354" y="17"/>
      <point x="2474" y="95"/>
      <point x="2552" y="229"/>
      <point x="2570" y="332" type="qcurve" smooth="yes"/>
      <point x="2700" y="1080" type="line" smooth="yes"/>
      <point x="2718" y="1181"/>
      <point x="2682" y="1310"/>
      <point x="2587" y="1385"/>
      <point x="2440" y="1414"/>
      <point x="2345" y="1414" type="qcurve" smooth="yes"/>
      <point x="859" y="1414" type="line" smooth="yes"/>
      <point x="765" y="1414"/>
      <point x="607" y="1385"/>
      <point x="486" y="1310"/>
      <point x="406" y="1181"/>
      <point x="388" y="1080" type="qcurve" smooth="yes"/>
      <point x="258" y="332" type="line" smooth="yes"/>
      <point x="240" y="229"/>
      <point x="271" y="95"/>
      <point x="363" y="17"/>
      <point x="511" y="-14"/>
      <point x="610" y="-14" type="qcurve"/>
    </contour>
    <contour>
      <point x="854" y="470" type="line"/>
      <point x="854" y="470"/>
      <point x="854" y="470"/>
      <point x="854" y="470" type="qcurve"/>
      <point x="934" y="930" type="line"/>
      <point x="934" y="930"/>
      <point x="934" y="930"/>
      <point x="934" y="930"/>
      <point x="934" y="930"/>
      <point x="934" y="930" type="qcurve"/>
      <point x="2102" y="930" type="line"/>
      <point x="2102" y="930"/>
      <point x="2102" y="930"/>
      <point x="2102" y="930"/>
      <point x="2102" y="930"/>
      <point x="2102" y="930" type="qcurve"/>
      <point x="2022" y="470" type="line"/>
      <point x="2022" y="470"/>
      <point x="2022" y="470"/>
      <point x="2022" y="470"/>
      <point x="2022" y="470"/>
      <point x="2022" y="470" type="qcurve"/>
    </contour>
  </outline>
</glyph>
<glyph name="one" format="2">
  <advance width="1597.09" height="1448"/>
  <unicode hex="0031"/>
  <outline>
    <contour>
      <point x="521" y="0" type="line"/>
      <point x="1093" y="0" type="line"/>
      <point x="1345" y="1443" type="line"/>
      <point x="270" y="1313" type="line"/>
      <point x="200" y="911" type="line"/>
      <point x="685" y="941" type="line"/>
    </contour>
  </outline>
  <guideline angle="90" color="0.4,0.4,0.4,1" name="halfwidth" x="798.545" y="0"/>
</glyph>
<glyph name="two" format="2">
  <advance width="2793"/>
  <unicode hex="0032"/>
  <outline>
    <contour>
      <point x="135" y="0" type="line"/>
      <point x="194" y="340" type="line" smooth="yes"/>
      <point x="212" y="440"/>
      <point x="294" y="610"/>
      <point x="430" y="739"/>
      <point x="623" y="823"/>
      <point x="752" y="836" type="qcurve" smooth="yes"/>
      <point x="1990" y="964" type="line"/>
      <point x="1995" y="964"/>
      <point x="2004" y="969"/>
      <point x="2011" y="975"/>
      <point x="2016" y="983"/>
      <point x="2016" y="987" type="qcurve"/>
      <point x="2023" y="1028" type="line"/>
      <point x="2023" y="1028"/>
      <point x="2023" y="1028"/>
      <point x="2023" y="1028" type="qcurve"/>
      <point x="869" y="1028" type="line"/>
      <point x="869" y="1028"/>
      <point x="869" y="1028"/>
      <point x="869" y="1028" type="qcurve"/>
      <point x="849" y="912" type="line"/>
      <point x="320" y="1008" type="line"/>
      <point x="334" y="1086" type="line" smooth="yes"/>
      <point x="352" y="1189"/>
      <point x="433" y="1317"/>
      <point x="554" y="1389"/>
      <point x="710" y="1414"/>
      <point x="801" y="1414" type="qcurve" smooth="yes"/>
      <point x="2221" y="1414" type="line" smooth="yes"/>
      <point x="2313" y="1414"/>
      <point x="2460" y="1382"/>
      <point x="2556" y="1301"/>
      <point x="2593" y="1166"/>
      <point x="2575" y="1062" type="qcurve" smooth="yes"/>
      <point x="2565" y="1004" type="line" smooth="yes"/>
      <point x="2549" y="912"/>
      <point x="2482" y="765"/>
      <point x="2358" y="657"/>
      <point x="2165" y="588"/>
      <point x="2022" y="573" type="qcurve" smooth="yes"/>
      <point x="803" y="447" type="line" smooth="yes"/>
      <point x="788" y="446"/>
      <point x="768" y="437"/>
      <point x="755" y="426"/>
      <point x="749" y="412"/>
      <point x="748" y="404" type="qcurve" smooth="yes"/>
      <point x="744" y="386" type="line"/>
      <point x="1941" y="386" type="line"/>
      <point x="1941" y="386"/>
      <point x="1941" y="386"/>
      <point x="1941" y="386" type="qcurve"/>
      <point x="1960" y="492" type="line"/>
      <point x="2489" y="396" type="line"/>
      <point x="2480" y="342" type="line" smooth="yes"/>
      <point x="2461" y="236"/>
      <point x="2381" y="103"/>
      <point x="2262" y="28"/>
      <point x="2105" y="0"/>
      <point x="2010" y="0" type="qcurve" smooth="yes"/>
    </contour>
  </outline>
</glyph>
<glyph name="three" format="2">
  <advance width="2869" height="1448"/>
  <unicode hex="0033"/>
  <outline>
    <contour>
      <point x="269" y="404" type="line"/>
      <point x="755" y="488" type="line"/>
      <point x="737" y="386" type="line"/>
      <point x="737" y="386"/>
      <point x="737" y="386"/>
      <point x="737" y="386"/>
      <point x="737" y="386"/>
      <point x="737" y="386" type="qcurve"/>
      <point x="1946" y="386" type="line" smooth="yes"/>
      <point x="1963" y="386"/>
      <point x="1994" y="393"/>
      <point x="2018" y="408"/>
      <point x="2033" y="430"/>
      <point x="2036" y="445" type="qcurve" smooth="yes"/>
      <point x="2043" y="485" type="line" smooth="yes"/>
      <point x="2046" y="500"/>
      <point x="2037" y="522"/>
      <point x="2018" y="535"/>
      <point x="1989" y="542"/>
      <point x="1972" y="542" type="qcurve" smooth="yes"/>
      <point x="1219" y="542" type="line"/>
      <point x="1277" y="874" type="line"/>
      <point x="2002" y="874" type="line" smooth="yes"/>
      <point x="2019" y="874"/>
      <point x="2050" y="882"/>
      <point x="2074" y="897"/>
      <point x="2090" y="917"/>
      <point x="2092" y="930" type="qcurve" smooth="yes"/>
      <point x="2097" y="956" type="line" smooth="yes"/>
      <point x="2099" y="969"/>
      <point x="2091" y="990"/>
      <point x="2072" y="1005"/>
      <point x="2044" y="1014"/>
      <point x="2026" y="1014" type="qcurve" smooth="yes"/>
      <point x="859" y="1014" type="line"/>
      <point x="859" y="1014"/>
      <point x="859" y="1014"/>
      <point x="859" y="1014" type="qcurve"/>
      <point x="838" y="894" type="line"/>
      <point x="381" y="978" type="line"/>
      <point x="403" y="1106" type="line" smooth="yes"/>
      <point x="417" y="1183"/>
      <point x="484" y="1298"/>
      <point x="594" y="1375"/>
      <point x="747" y="1414"/>
      <point x="845" y="1414" type="qcurve" smooth="yes"/>
      <point x="2261" y="1414" type="line" smooth="yes"/>
      <point x="2458" y="1414"/>
      <point x="2620" y="1249"/>
      <point x="2593" y="1096" type="qcurve" smooth="yes"/>
      <point x="2579" y="1014" type="line" smooth="yes"/>
      <point x="2567" y="947"/>
      <point x="2525" y="845"/>
      <point x="2461" y="773"/>
      <point x="2376" y="730"/>
      <point x="2322" y="720" type="qcurve"/>
      <point x="2378" y="716"/>
      <point x="2459" y="679"/>
      <point x="2506" y="605"/>
      <point x="2516" y="491"/>
      <point x="2501" y="408" type="qcurve" smooth="yes"/>
      <point x="2485" y="316" type="line" smooth="yes"/>
      <point x="2469" y="221"/>
      <point x="2388" y="94"/>
      <point x="2267" y="18"/>
      <point x="2112" y="-14"/>
      <point x="2020" y="-14" type="qcurve" smooth="yes"/>
      <point x="584" y="-14" type="line" smooth="yes"/>
      <point x="493" y="-14"/>
      <point x="354" y="15"/>
      <point x="266" y="87"/>
      <point x="235" y="211"/>
      <point x="251" y="306" type="qcurve"/>
    </contour>
  </outline>
</glyph>
<glyph name="four" format="2">
  <advance width="2823.35"/>
  <unicode hex="0034"/>
  <outline>
    <contour>
      <point x="-27" y="238" type="line"/>
      <point x="1578" y="238" type="line"/>
      <point x="1536" y="0" type="line"/>
      <point x="2108" y="0" type="line"/>
      <point x="2150" y="238" type="line"/>
      <point x="2537" y="238" type="line"/>
      <point x="2607" y="640" type="line"/>
      <point x="2220" y="640" type="line"/>
      <point x="2352" y="1400" type="line"/>
      <point x="1692" y="1400" type="line"/>
      <point x="51" y="688" type="line"/>
    </contour>
    <contour>
      <point x="899" y="640" type="line"/>
      <point x="1712" y="1002" type="line"/>
      <point x="1648" y="640" type="line"/>
    </contour>
  </outline>
</glyph>
<glyph name="five" format="2">
  <advance width="2532"/>
  <unicode hex="0035"/>
  <outline>
    <contour>
      <point x="1132" y="-12" type="line"/>
      <point x="1000" y="-12"/>
      <point x="739" y="-3"/>
      <point x="502" y="12"/>
      <point x="303" y="33"/>
      <point x="232" y="44" type="qcurve"/>
      <point x="202" y="376" type="line"/>
      <point x="244" y="370"/>
      <point x="350" y="361"/>
      <point x="479" y="356"/>
      <point x="632" y="353"/>
      <point x="810" y="352"/>
      <point x="1014" y="352"/>
      <point x="1129" y="352" type="qcurve" smooth="yes"/>
      <point x="1298" y="352"/>
      <point x="1534" y="360"/>
      <point x="1684" y="378"/>
      <point x="1755" y="409"/>
      <point x="1759" y="432" type="qcurve" smooth="yes"/>
      <point x="1764" y="456"/>
      <point x="1706" y="486"/>
      <point x="1560" y="504"/>
      <point x="1314" y="510"/>
      <point x="1129" y="510" type="qcurve" smooth="yes"/>
      <point x="963" y="510"/>
      <point x="700" y="507"/>
      <point x="484" y="498"/>
      <point x="303" y="485"/>
      <point x="217" y="474" type="qcurve"/>
      <point x="454" y="1400" type="line"/>
      <point x="2326" y="1400" type="line"/>
      <point x="2159" y="970" type="line"/>
      <point x="702" y="970" type="line"/>
      <point x="671" y="850" type="line"/>
      <point x="718" y="855"/>
      <point x="858" y="865"/>
      <point x="1040" y="872"/>
      <point x="1262" y="876"/>
      <point x="1389" y="876" type="qcurve" smooth="yes"/>
      <point x="1574" y="876"/>
      <point x="1866" y="856"/>
      <point x="2086" y="813"/>
      <point x="2237" y="745"/>
      <point x="2324" y="648"/>
      <point x="2351" y="520"/>
      <point x="2337" y="440" type="qcurve" smooth="yes"/>
      <point x="2322" y="355"/>
      <point x="2239" y="222"/>
      <point x="2101" y="121"/>
      <point x="1904" y="52"/>
      <point x="1646" y="8"/>
      <point x="1326" y="-12"/>
      <point x="1132" y="-12" type="qcurve"/>
    </contour>
  </outline>
</glyph>
<glyph name="six" format="2">
  <advance width="2763"/>
  <unicode hex="0036"/>
  <outline>
    <contour>
      <point x="1268" y="-8" type="line"/>
      <point x="1523" y="-8"/>
      <point x="1894" y="-1"/>
      <point x="2157" y="28"/>
      <point x="2326" y="87"/>
      <point x="2432" y="188"/>
      <point x="2489" y="341"/>
      <point x="2508" y="450" type="qcurve" smooth="yes"/>
      <point x="2528" y="566"/>
      <point x="2514" y="726"/>
      <point x="2432" y="831"/>
      <point x="2275" y="889"/>
      <point x="2029" y="917"/>
      <point x="1689" y="922"/>
      <point x="1464" y="922" type="qcurve" smooth="yes"/>
      <point x="1315" y="922"/>
      <point x="1038" y="906"/>
      <point x="794" y="876"/>
      <point x="588" y="834"/>
      <point x="510" y="808" type="qcurve"/>
      <point x="456" y="500" type="line"/>
      <point x="530" y="512"/>
      <point x="744" y="533"/>
      <point x="991" y="548"/>
      <point x="1256" y="556"/>
      <point x="1382" y="556" type="qcurve" smooth="yes"/>
      <point x="1506" y="556"/>
      <point x="1687" y="555"/>
      <point x="1813" y="549"/>
      <point x="1891" y="537"/>
      <point x="1931" y="516"/>
      <point x="1941" y="483"/>
      <point x="1937" y="460" type="qcurve" smooth="yes"/>
      <point x="1933" y="437"/>
      <point x="1917" y="404"/>
      <point x="1874" y="383"/>
      <point x="1795" y="371"/>
      <point x="1664" y="365"/>
      <point x="1470" y="364"/>
      <point x="1333" y="364" type="qcurve" smooth="yes"/>
      <point x="1207" y="364"/>
      <point x="1024" y="366"/>
      <point x="897" y="376"/>
      <point x="821" y="399"/>
      <point x="783" y="439"/>
      <point x="778" y="501"/>
      <point x="786" y="546" type="qcurve" smooth="yes"/>
      <point x="808" y="672"/>
      <point x="886" y="844"/>
      <point x="993" y="957"/>
      <point x="1128" y="1018"/>
      <point x="1285" y="1047"/>
      <point x="1464" y="1052"/>
      <point x="1561" y="1052" type="qcurve" smooth="yes"/>
      <point x="1681" y="1052"/>
      <point x="1886" y="1045"/>
      <point x="2052" y="1033"/>
      <point x="2178" y="1015"/>
      <point x="2218" y="1004" type="qcurve"/>
      <point x="2062" y="1382" type="line"/>
      <point x="2041" y="1388"/>
      <point x="1966" y="1401"/>
      <point x="1857" y="1411"/>
      <point x="1714" y="1418"/>
      <point x="1624" y="1418" type="qcurve" smooth="yes"/>
      <point x="1432" y="1418"/>
      <point x="1088" y="1375"/>
      <point x="792" y="1281"/>
      <point x="547" y="1134"/>
      <point x="360" y="925"/>
      <point x="232" y="651"/>
      <point x="202" y="478" type="qcurve" smooth="yes"/>
      <point x="182" y="361"/>
      <point x="190" y="198"/>
      <point x="266" y="90"/>
      <point x="420" y="29"/>
      <point x="670" y="-1"/>
      <point x="1027" y="-8"/>
      <point x="1268" y="-8" type="qcurve"/>
    </contour>
  </outline>
</glyph>
<glyph name="seven" format="2">
  <advance width="2489"/>
  <unicode hex="0037"/>
  <outline>
    <contour>
      <point x="161" y="953" type="line"/>
      <point x="688" y="854" type="line"/>
      <point x="714" y="1000" type="line"/>
      <point x="1776" y="1000" type="line"/>
      <point x="527" y="0" type="line"/>
      <point x="1238" y="0" type="line"/>
      <point x="2509" y="1078" type="line"/>
      <point x="2565" y="1400" type="line"/>
      <point x="239" y="1400" type="line"/>
    </contour>
  </outline>
  <guideline x="1245" name="halfwidth" color="0.4,0.4,0.4,1"/>
</glyph>
<glyph name="eight" format="2">
  <advance width="2976"/>
  <unicode hex="0038"/>
  <outline>
    <contour>
      <point x="763" y="429" type="line" smooth="yes"/>
      <point x="760" y="414"/>
      <point x="768" y="390"/>
      <point x="787" y="374"/>
      <point x="819" y="365"/>
      <point x="841" y="365" type="qcurve" smooth="yes"/>
      <point x="2023" y="365" type="line" smooth="yes"/>
      <point x="2045" y="365"/>
      <point x="2080" y="374"/>
      <point x="2105" y="390"/>
      <point x="2120" y="414"/>
      <point x="2123" y="429" type="qcurve" smooth="yes"/>
      <point x="2128" y="457" type="line" smooth="yes"/>
      <point x="2131" y="472"/>
      <point x="2124" y="496"/>
      <point x="2104" y="512"/>
      <point x="2072" y="521"/>
      <point x="2050" y="521" type="qcurve" smooth="yes"/>
      <point x="868" y="521" type="line" smooth="yes"/>
      <point x="846" y="521"/>
      <point x="811" y="512"/>
      <point x="786" y="496"/>
      <point x="771" y="472"/>
      <point x="768" y="457" type="qcurve" smooth="yes"/>
    </contour>
    <contour>
      <point x="2184" y="971" type="line" smooth="yes"/>
      <point x="2187" y="986"/>
      <point x="2180" y="1009"/>
      <point x="2160" y="1025"/>
      <point x="2128" y="1034"/>
      <point x="2106" y="1034" type="qcurve" smooth="yes"/>
      <point x="990" y="1034" type="line" smooth="yes"/>
      <point x="968" y="1034"/>
      <point x="933" y="1025"/>
      <point x="908" y="1009"/>
      <point x="893" y="986"/>
      <point x="890" y="971" type="qcurve" smooth="yes"/>
      <point x="888" y="957" type="line" smooth="yes"/>
      <point x="885" y="942"/>
      <point x="893" y="919"/>
      <point x="912" y="903"/>
      <point x="944" y="894"/>
      <point x="966" y="894" type="qcurve" smooth="yes"/>
      <point x="2082" y="894" type="line" smooth="yes"/>
      <point x="2104" y="894"/>
      <point x="2139" y="903"/>
      <point x="2164" y="919"/>
      <point x="2179" y="942"/>
      <point x="2182" y="957" type="qcurve" smooth="yes"/>
    </contour>
    <contour>
      <point x="226" y="339" type="line"/>
      <point x="235" y="392" type="line" smooth="yes"/>
      <point x="250" y="477"/>
      <point x="304" y="592"/>
      <point x="372" y="665"/>
      <point x="450" y="703"/>
      <point x="488" y="712" type="qcurve"/>
      <point x="454" y="721"/>
      <point x="401" y="765"/>
      <point x="368" y="833"/>
      <point x="358" y="923"/>
      <point x="368" y="977" type="qcurve" smooth="yes"/>
      <point x="385" y="1075" type="line" smooth="yes"/>
      <point x="399" y="1153"/>
      <point x="471" y="1278"/>
      <point x="586" y="1367"/>
      <point x="746" y="1414"/>
      <point x="846" y="1414" type="qcurve" smooth="yes"/>
      <point x="2385" y="1414" type="line" smooth="yes"/>
      <point x="2486" y="1414"/>
      <point x="2628" y="1367"/>
      <point x="2712" y="1279"/>
      <point x="2741" y="1154"/>
      <point x="2727" y="1076" type="qcurve" smooth="yes"/>
      <point x="2710" y="977" type="line" smooth="yes"/>
      <point x="2700" y="923"/>
      <point x="2658" y="833"/>
      <point x="2600" y="765"/>
      <point x="2532" y="721"/>
      <point x="2497" y="712" type="qcurve"/>
      <point x="2532" y="704"/>
      <point x="2596" y="667"/>
      <point x="2639" y="595"/>
      <point x="2653" y="481"/>
      <point x="2638" y="396" type="qcurve" smooth="yes"/>
      <point x="2628" y="340" type="line" smooth="yes"/>
      <point x="2610" y="239"/>
      <point x="2522" y="103"/>
      <point x="2394" y="21"/>
      <point x="2233" y="-14"/>
      <point x="2141" y="-14" type="qcurve" smooth="yes"/>
      <point x="590" y="-14" type="line" smooth="yes"/>
      <point x="500" y="-14"/>
      <point x="350" y="20"/>
      <point x="250" y="102"/>
      <point x="208" y="238"/>
      <point x="226" y="339" type="qcurve"/>
    </contour>
  </outline>
</glyph>
<glyph name="nine" format="2">
  <advance width="2851"/>
  <unicode hex="0039"/>
  <outline>
    <contour>
      <point x="1542" y="1414" type="line"/>
      <point x="1290" y="1414"/>
      <point x="919" y="1404"/>
      <point x="656" y="1371"/>
      <point x="485" y="1311"/>
      <point x="377" y="1209"/>
      <point x="320" y="1060"/>
      <point x="302" y="956" type="qcurve" smooth="yes"/>
      <point x="282" y="840"/>
      <point x="296" y="680"/>
      <point x="378" y="575"/>
      <point x="535" y="517"/>
      <point x="780" y="489"/>
      <point x="1121" y="484"/>
      <point x="1345" y="484" type="qcurve" smooth="yes"/>
      <point x="1494" y="484"/>
      <point x="1771" y="500"/>
      <point x="2016" y="530"/>
      <point x="2222" y="573"/>
      <point x="2300" y="600" type="qcurve"/>
      <point x="2354" y="912" type="line"/>
      <point x="2280" y="900"/>
      <point x="2067" y="880"/>
      <point x="1819" y="865"/>
      <point x="1554" y="856"/>
      <point x="1428" y="856" type="qcurve" smooth="yes"/>
      <point x="1304" y="856"/>
      <point x="1123" y="857"/>
      <point x="997" y="863"/>
      <point x="920" y="875"/>
      <point x="879" y="896"/>
      <point x="869" y="929"/>
      <point x="873" y="952" type="qcurve" smooth="yes"/>
      <point x="877" y="976"/>
      <point x="894" y="1008"/>
      <point x="937" y="1029"/>
      <point x="1016" y="1041"/>
      <point x="1147" y="1047"/>
      <point x="1341" y="1048"/>
      <point x="1478" y="1048" type="qcurve" smooth="yes"/>
      <point x="1604" y="1048"/>
      <point x="1787" y="1046"/>
      <point x="1914" y="1035"/>
      <point x="1990" y="1012"/>
      <point x="2027" y="971"/>
      <point x="2031" y="907"/>
      <point x="2023" y="860" type="qcurve" smooth="yes"/>
      <point x="2001" y="735"/>
      <point x="1923" y="562"/>
      <point x="1816" y="449"/>
      <point x="1681" y="387"/>
      <point x="1524" y="358"/>
      <point x="1346" y="352"/>
      <point x="1248" y="352" type="qcurve" smooth="yes"/>
      <point x="1128" y="352"/>
      <point x="923" y="359"/>
      <point x="757" y="371"/>
      <point x="632" y="389"/>
      <point x="591" y="400" type="qcurve"/>
      <point x="747" y="22" type="line"/>
      <point x="768" y="16"/>
      <point x="843" y="3"/>
      <point x="952" y="-7"/>
      <point x="1095" y="-14"/>
      <point x="1185" y="-14" type="qcurve" smooth="yes"/>
      <point x="1378" y="-14"/>
      <point x="1720" y="22"/>
      <point x="2014" y="105"/>
      <point x="2256" y="240"/>
      <point x="2442" y="438"/>
      <point x="2568" y="705"/>
      <point x="2598" y="878" type="qcurve" smooth="yes"/>
      <point x="2619" y="995"/>
      <point x="2612" y="1165"/>
      <point x="2538" y="1285"/>
      <point x="2387" y="1358"/>
      <point x="2138" y="1400"/>
      <point x="1783" y="1414"/>
      <point x="1542" y="1414" type="qcurve"/>
    </contour>
  </outline>
</glyph>
<glyph name="colon" format="2">
  <advance width="1145.61"/>
  <unicode hex="003A"/>
  <outline>
    <contour>
      <point x="191" y="135" type="line"/>
      <point x="222" y="316" type="line" smooth="yes"/>
      <point x="230" y="360"/>
      <point x="250" y="414"/>
      <point x="286" y="444"/>
      <point x="342" y="454"/>
      <point x="387" y="454" type="qcurve" smooth="yes"/>
      <point x="674" y="454" type="line" smooth="yes"/>
      <point x="719" y="454"/>
      <point x="773" y="444"/>
      <point x="799" y="414"/>
      <point x="800" y="359"/>
      <point x="792" y="314" type="qcurve" smooth="yes"/>
      <point x="761" y="135" type="line" smooth="yes"/>
      <point x="754" y="90"/>
      <point x="733" y="35"/>
      <point x="698" y="4"/>
      <point x="640" y="-6"/>
      <point x="595" y="-6" type="qcurve" smooth="yes"/>
      <point x="307" y="-6" type="line" smooth="yes"/>
      <point x="262" y="-6"/>
      <point x="209" y="4"/>
      <point x="184" y="35"/>
      <point x="184" y="90"/>
      <point x="191" y="135" type="qcurve"/>
    </contour>
    <contour>
      <point x="292" y="715" type="line"/>
      <point x="323" y="896" type="line" smooth="yes"/>
      <point x="331" y="940"/>
      <point x="351" y="994"/>
      <point x="387" y="1024"/>
      <point x="443" y="1034"/>
      <point x="488" y="1034" type="qcurve" smooth="yes"/>
      <point x="775" y="1034" type="line" smooth="yes"/>
      <point x="820" y="1034"/>
      <point x="874" y="1024"/>
      <point x="900" y="994"/>
      <point x="901" y="939"/>
      <point x="893" y="894" type="qcurve" smooth="yes"/>
      <point x="862" y="715" type="line" smooth="yes"/>
      <point x="855" y="670"/>
      <point x="834" y="615"/>
      <point x="799" y="584"/>
      <point x="741" y="574"/>
      <point x="696" y="574" type="qcurve" smooth="yes"/>
      <point x="408" y="574" type="line" smooth="yes"/>
      <point x="363" y="574"/>
      <point x="310" y="584"/>
      <point x="285" y="615"/>
      <point x="285" y="670"/>
      <point x="292" y="715" type="qcurve"/>
    </contour>
  </outline>
</glyph>
<glyph name="semicolon" format="2">
  <advance width="1142"/>
  <unicode hex="003B"/>
  <outline>
    <contour>
      <point x="292" y="715" type="line"/>
      <point x="323" y="896" type="line" smooth="yes"/>
      <point x="331" y="940"/>
      <point x="351" y="994"/>
      <point x="386" y="1024"/>
      <point x="443" y="1034"/>
      <point x="488" y="1034" type="qcurve" smooth="yes"/>
      <point x="775" y="1034" type="line" smooth="yes"/>
      <point x="820" y="1034"/>
      <point x="874" y="1024"/>
      <point x="900" y="994"/>
      <point x="901" y="939"/>
      <point x="893" y="894" type="qcurve" smooth="yes"/>
      <point x="862" y="715" type="line" smooth="yes"/>
      <point x="854" y="670"/>
      <point x="834" y="615"/>
      <point x="798" y="584"/>
      <point x="741" y="574"/>
      <point x="696" y="574" type="qcurve" smooth="yes"/>
      <point x="408" y="574" type="line" smooth="yes"/>
      <point x="363" y="574"/>
      <point x="310" y="584"/>
      <point x="285" y="615"/>
      <point x="284" y="670"/>
      <point x="292" y="715" type="qcurve"/>
    </contour>
    <contour>
      <point x="192" y="145" type="line"/>
      <point x="222" y="315" type="line" smooth="yes"/>
      <point x="230" y="359"/>
      <point x="250" y="414"/>
      <point x="285" y="444"/>
      <point x="342" y="454"/>
      <point x="387" y="454" type="qcurve" smooth="yes"/>
      <point x="675" y="454" type="line" smooth="yes"/>
      <point x="720" y="454"/>
      <point x="774" y="444"/>
      <point x="799" y="414"/>
      <point x="800" y="359"/>
      <point x="792" y="315" type="qcurve" smooth="yes"/>
      <point x="762" y="145" type="line" smooth="yes"/>
      <point x="754" y="100"/>
      <point x="734" y="45"/>
      <point x="699" y="14"/>
      <point x="642" y="4"/>
      <point x="597" y="4" type="qcurve" smooth="yes"/>
      <point x="309" y="4" type="line" smooth="yes"/>
      <point x="264" y="4"/>
      <point x="210" y="14"/>
      <point x="185" y="45"/>
      <point x="184" y="100"/>
      <point x="192" y="145" type="qcurve"/>
    </contour>
    <contour>
      <point x="167" y="-298" type="line"/>
      <point x="391" y="22" type="line"/>
      <point x="723" y="36" type="line"/>
      <point x="371" y="-342" type="line"/>
      <point x="167" y="-298" type="line"/>
    </contour>
  </outline>
</glyph>
<glyph name="less" format="2">
  <advance width="2030"/>
  <unicode hex="003C"/>
  <outline>
    <contour>
      <point x="1701.92" y="0" type="line"/>
      <point x="1753.92" y="297" type="line"/>
      <point x="707.922" y="596" type="line"/>
      <point x="703.922" y="574" type="line"/>
      <point x="1853.92" y="873" type="line"/>
      <point x="1905.92" y="1168" type="line"/>
      <point x="212.922" y="719" type="line"/>
      <point x="165.922" y="449" type="line"/>
    </contour>
  </outline>
</glyph>
<glyph name="question" format="2">
  <advance width="2220.08"/>
  <unicode hex="003F"/>
  <outline>
    <contour>
      <point x="769.782" y="462" type="line"/>
      <point x="803.782" y="658" type="line" smooth="yes"/>
      <point x="811.782" y="702"/>
      <point x="850.782" y="784"/>
      <point x="926.782" y="848"/>
      <point x="1043.78" y="888"/>
      <point x="1128.78" y="890" type="qcurve" smooth="yes"/>
      <point x="1497.78" y="900" type="line"/>
      <point x="1497.78" y="900"/>
      <point x="1497.78" y="900"/>
      <point x="1497.78" y="900"/>
      <point x="1497.78" y="900"/>
      <point x="1497.78" y="900" type="qcurve"/>
      <point x="1519.78" y="1028" type="line"/>
      <point x="1519.78" y="1028"/>
      <point x="1519.78" y="1028"/>
      <point x="1519.78" y="1028"/>
      <point x="1519.78" y="1028"/>
      <point x="1519.78" y="1028" type="qcurve"/>
      <point x="724.782" y="1028" type="line"/>
      <point x="724.782" y="1028"/>
      <point x="724.782" y="1028"/>
      <point x="724.782" y="1028"/>
      <point x="724.782" y="1028"/>
      <point x="724.782" y="1028" type="qcurve"/>
      <point x="705.782" y="918" type="line"/>
      <point x="212.782" y="988" type="line"/>
      <point x="235.782" y="1117" type="line" smooth="yes"/>
      <point x="249.782" y="1196"/>
      <point x="311.782" y="1309"/>
      <point x="416.782" y="1381"/>
      <point x="566.782" y="1414"/>
      <point x="668.782" y="1414" type="qcurve" smooth="yes"/>
      <point x="1714.78" y="1414" type="line" smooth="yes"/>
      <point x="1816.78" y="1414"/>
      <point x="1953.78" y="1381"/>
      <point x="2032.78" y="1311"/>
      <point x="2054.78" y="1199"/>
      <point x="2040.78" y="1119" type="qcurve" smooth="yes"/>
      <point x="1990.78" y="832" type="line" smooth="yes"/>
      <point x="1980.78" y="773"/>
      <point x="1931.78" y="666"/>
      <point x="1852.78" y="585"/>
      <point x="1739.78" y="536"/>
      <point x="1664.78" y="534" type="qcurve" smooth="yes"/>
      <point x="1214.78" y="524" type="line"/>
      <point x="1214.78" y="524"/>
      <point x="1214.78" y="524"/>
      <point x="1214.78" y="524"/>
      <point x="1214.78" y="524"/>
      <point x="1214.78" y="524" type="qcurve"/>
      <point x="1204.78" y="462" type="line"/>
    </contour>
    <contour>
      <point x="644.782" y="135" type="line"/>
      <point x="659.782" y="226" type="line" smooth="yes"/>
      <point x="667.782" y="270"/>
      <point x="687.782" y="324"/>
      <point x="723.782" y="354"/>
      <point x="780.782" y="364"/>
      <point x="825.782" y="364" type="qcurve" smooth="yes"/>
      <point x="1112.78" y="364" type="line" smooth="yes"/>
      <point x="1157.78" y="364"/>
      <point x="1211.78" y="354"/>
      <point x="1236.78" y="324"/>
      <point x="1237.78" y="269"/>
      <point x="1229.78" y="224" type="qcurve" smooth="yes"/>
      <point x="1214.78" y="135" type="line" smooth="yes"/>
      <point x="1206.78" y="90"/>
      <point x="1186.78" y="35"/>
      <point x="1150.78" y="4"/>
      <point x="1093.78" y="-6"/>
      <point x="1048.78" y="-6" type="qcurve" smooth="yes"/>
      <point x="760.782" y="-6" type="line" smooth="yes"/>
      <point x="715.782" y="-6"/>
      <point x="662.782" y="4"/>
      <point x="637.782" y="35"/>
      <point x="636.782" y="90"/>
      <point x="644.782" y="135" type="qcurve"/>
    </contour>
  </outline>
</glyph>
<glyph name="at" format="2">
  <advance width="3184.24" height="1020.84"/>
  <unicode hex="0040"/>
  <outline>
    <contour>
      <point x="183.357" y="80" type="line"/>
      <point x="338.357" y="971" type="line" smooth="yes"/>
      <point x="353.357" y="1059"/>
      <point x="424.357" y="1169"/>
      <point x="528.357" y="1231"/>
      <point x="661.357" y="1253"/>
      <point x="739.357" y="1253" type="qcurve" smooth="yes"/>
      <point x="2641.36" y="1253" type="line" smooth="yes"/>
      <point x="2719.36" y="1253"/>
      <point x="2844.36" y="1231"/>
      <point x="2927.36" y="1169"/>
      <point x="2959.36" y="1059"/>
      <point x="2944.36" y="971" type="qcurve" smooth="yes"/>
      <point x="2849.36" y="426" type="line" smooth="yes"/>
      <point x="2833.36" y="335"/>
      <point x="2768.36" y="228"/>
      <point x="2679.36" y="171"/>
      <point x="2571.36" y="154"/>
      <point x="2513.36" y="154" type="qcurve" smooth="yes"/>
      <point x="2047.36" y="154" type="line" smooth="yes"/>
      <point x="1993.36" y="154"/>
      <point x="1916.36" y="175"/>
      <point x="1868.36" y="208"/>
      <point x="1848.36" y="248"/>
      <point x="1851.36" y="266" type="qcurve"/>
      <point x="1836.36" y="234"/>
      <point x="1792.36" y="191"/>
      <point x="1737.36" y="165"/>
      <point x="1671.36" y="154"/>
      <point x="1634.36" y="154" type="qcurve" smooth="yes"/>
      <point x="999.357" y="154" type="line" smooth="yes"/>
      <point x="943.357" y="154"/>
      <point x="865.357" y="176"/>
      <point x="821.357" y="221"/>
      <point x="808.357" y="291"/>
      <point x="816.357" y="339" type="qcurve" smooth="yes"/>
      <point x="880.357" y="707" type="line" smooth="yes"/>
      <point x="888.357" y="753"/>
      <point x="925.357" y="820"/>
      <point x="985.357" y="864"/>
      <point x="1070.36" y="885"/>
      <point x="1126.36" y="885" type="qcurve" smooth="yes"/>
      <point x="1767.36" y="885" type="line" smooth="yes"/>
      <point x="1842.36" y="885"/>
      <point x="1929.36" y="846"/>
      <point x="1946.36" y="806" type="qcurve"/>
      <point x="1958.36" y="878" type="line"/>
      <point x="2324.36" y="878" type="line"/>
      <point x="2252.36" y="462" type="line" smooth="yes"/>
      <point x="2250.36" y="451"/>
      <point x="2252.36" y="434"/>
      <point x="2262.36" y="423"/>
      <point x="2280.36" y="417"/>
      <point x="2293.36" y="417" type="qcurve" smooth="yes"/>
      <point x="2487.36" y="417" type="line" smooth="yes"/>
      <point x="2504.36" y="417"/>
      <point x="2525.36" y="427"/>
      <point x="2540.36" y="448"/>
      <point x="2549.36" y="479"/>
      <point x="2553.36" y="500" type="qcurve" smooth="yes"/>
      <point x="2621.36" y="886" type="line" smooth="yes"/>
      <point x="2625.36" y="909"/>
      <point x="2616.36" y="947"/>
      <point x="2585.36" y="975"/>
      <point x="2526.36" y="990"/>
      <point x="2480.36" y="990" type="qcurve" smooth="yes"/>
      <point x="798.357" y="990" type="line" smooth="yes"/>
      <point x="765.357" y="990"/>
      <point x="709.357" y="981"/>
      <point x="666.357" y="958"/>
      <point x="638.357" y="918"/>
      <point x="633.357" y="886" type="qcurve"/>
      <point x="507.357" y="164" type="line" smooth="yes"/>
      <point x="503.357" y="138"/>
      <point x="507.357" y="96"/>
      <point x="534.357" y="66"/>
      <point x="588.357" y="49"/>
      <point x="634.357" y="49" type="qcurve" smooth="yes"/>
      <point x="2485.36" y="49" type="line"/>
      <point x="2440.36" y="-213" type="line"/>
      <point x="483.357" y="-213" type="line" smooth="yes"/>
      <point x="401.357" y="-213"/>
      <point x="275.357" y="-189"/>
      <point x="195.357" y="-124"/>
      <point x="167.357" y="-10"/>
      <point x="183.357" y="80" type="qcurve"/>
    </contour>
    <contour>
      <point x="1197.36" y="421" type="line"/>
      <point x="1197.36" y="421"/>
      <point x="1197.36" y="421"/>
      <point x="1197.36" y="421" type="qcurve"/>
      <point x="1878.36" y="421" type="line"/>
      <point x="1878.36" y="421"/>
      <point x="1878.36" y="421"/>
      <point x="1878.36" y="421" type="qcurve"/>
      <point x="1913.36" y="617" type="line"/>
      <point x="1232.36" y="617" type="line"/>
      <point x="1232.36" y="617"/>
      <point x="1232.36" y="617"/>
      <point x="1232.36" y="617" type="qcurve"/>
    </contour>
  </outline>
  <guideline angle="0" x="0" y="561"/>
</glyph>
<glyph name="B" format="2">
  <advance width="3294"/>
  <unicode hex="0042"/>
  <anchor x="1647" y="1550" name="top"/>
  <anchor x="1647" y="-150" name="bottom"/>
  <outline>
    <contour>
      <point x="200" y="0" type="line"/>
      <point x="2536" y="0" type="line" smooth="yes"/>
      <point x="2631" y="0"/>
      <point x="2786" y="40"/>
      <point x="2903" y="126"/>
      <point x="2980" y="264"/>
      <point x="2997" y="361" type="qcurve" smooth="yes"/>
      <point x="3006" y="411" type="line" smooth="yes"/>
      <point x="3015" y="465"/>
      <point x="3003" y="555"/>
      <point x="2962" y="627"/>
      <point x="2892" y="681"/>
      <point x="2844" y="700" type="qcurve"/>
      <point x="2895" y="718"/>
      <point x="2978" y="771"/>
      <point x="3039" y="842"/>
      <point x="3080" y="932"/>
      <point x="3090" y="988" type="qcurve" smooth="yes"/>
      <point x="3099" y="1038" type="line" smooth="yes"/>
      <point x="3116" y="1136"/>
      <point x="3087" y="1273"/>
      <point x="3000" y="1360"/>
      <point x="2859" y="1400"/>
      <point x="2764" y="1400" type="qcurve" smooth="yes"/>
      <point x="444" y="1400" type="line"/>
    </contour>
    <contour>
      <point x="838" y="376" type="line"/>
      <point x="863" y="522" type="line"/>
      <point x="2377" y="522" type="line" smooth="yes"/>
      <point x="2416" y="522"/>
      <point x="2448" y="489"/>
      <point x="2443" y="462" type="qcurve" smooth="yes"/>
      <point x="2438" y="436" type="line" smooth="yes"/>
      <point x="2436" y="423"/>
      <point x="2423" y="400"/>
      <point x="2402" y="385"/>
      <point x="2372" y="376"/>
      <point x="2352" y="376" type="qcurve" smooth="yes"/>
    </contour>
    <contour>
      <point x="926" y="882" type="line"/>
      <point x="951" y="1028" type="line"/>
      <point x="2465" y="1028" type="line" smooth="yes"/>
      <point x="2485" y="1028"/>
      <point x="2512" y="1019"/>
      <point x="2528" y="1004"/>
      <point x="2533" y="982"/>
      <point x="2531" y="968" type="qcurve" smooth="yes"/>
      <point x="2526" y="942" type="line" smooth="yes"/>
      <point x="2524" y="929"/>
      <point x="2511" y="906"/>
      <point x="2490" y="891"/>
      <point x="2460" y="882"/>
      <point x="2440" y="882" type="qcurve" smooth="yes"/>
    </contour>
  </outline>
</glyph>
<glyph name="C" format="2">
  <advance width="2941" height="1448"/>
  <unicode hex="0043"/>
  <anchor x="1643" y="1550" name="top"/>
  <anchor x="1346" y="-150" name="bottom"/>
  <outline>
    <contour>
      <point x="357.575" y="1080" type="line"/>
      <point x="227.575" y="332" type="line" smooth="yes"/>
      <point x="209.575" y="229"/>
      <point x="240.575" y="95"/>
      <point x="332.575" y="17"/>
      <point x="480.575" y="-14"/>
      <point x="579.575" y="-14" type="qcurve" smooth="yes"/>
      <point x="2155.58" y="-14" type="line" smooth="yes"/>
      <point x="2254.58" y="-14"/>
      <point x="2413.58" y="17"/>
      <point x="2533.58" y="95"/>
      <point x="2611.58" y="229"/>
      <point x="2629.58" y="332" type="qcurve" smooth="yes"/>
      <point x="2663.58" y="528" type="line"/>
      <point x="2111.58" y="640" type="line"/>
      <point x="2081.58" y="470" type="line"/>
      <point x="2081.58" y="470"/>
      <point x="2081.58" y="470"/>
      <point x="2081.58" y="470"/>
      <point x="2081.58" y="470"/>
      <point x="2081.58" y="470" type="qcurve"/>
      <point x="823.575" y="470" type="line"/>
      <point x="823.575" y="470"/>
      <point x="823.575" y="470"/>
      <point x="823.575" y="470"/>
      <point x="823.575" y="470"/>
      <point x="823.575" y="470" type="qcurve"/>
      <point x="903.575" y="930" type="line"/>
      <point x="903.575" y="930"/>
      <point x="903.575" y="930"/>
      <point x="903.575" y="930"/>
      <point x="903.575" y="930"/>
      <point x="903.575" y="930" type="qcurve"/>
      <point x="2155.58" y="930" type="line"/>
      <point x="2155.58" y="930"/>
      <point x="2155.58" y="930"/>
      <point x="2155.58" y="930"/>
      <point x="2155.58" y="930"/>
      <point x="2155.58" y="930" type="qcurve"/>
      <point x="2130.58" y="786" type="line"/>
      <point x="2721.58" y="892" type="line"/>
      <point x="2753.58" y="1080" type="line" smooth="yes"/>
      <point x="2771.58" y="1181"/>
      <point x="2735.58" y="1310"/>
      <point x="2640.58" y="1385"/>
      <point x="2493.58" y="1414"/>
      <point x="2398.58" y="1414" type="qcurve" smooth="yes"/>
      <point x="828.575" y="1414" type="line" smooth="yes"/>
      <point x="734.575" y="1414"/>
      <point x="576.575" y="1385"/>
      <point x="455.575" y="1310"/>
      <point x="375.575" y="1181"/>
      <point x="357.575" y="1080" type="qcurve"/>
    </contour>
  </outline>
</glyph>
<glyph name="D" format="2">
  <advance width="3042"/>
  <unicode hex="0044"/>
  <anchor x="1533" y="1550" name="top"/>
  <anchor x="1234" y="-150" name="bottom"/>
  <outline>
    <contour>
      <point x="849.178" y="444" type="line"/>
      <point x="1670.18" y="444" type="line" smooth="yes"/>
      <point x="1771.18" y="444"/>
      <point x="1933.75" y="453"/>
      <point x="2062.59" y="475"/>
      <point x="2159.22" y="513"/>
      <point x="2227.34" y="571"/>
      <point x="2270.47" y="652"/>
      <point x="2280.9" y="706" type="qcurve"/>
      <point x="2288.92" y="752"/>
      <point x="2279.66" y="825"/>
      <point x="2238.26" y="880"/>
      <point x="2164.24" y="920"/>
      <point x="2052.6" y="945"/>
      <point x="1899.52" y="956"/>
      <point x="1799.52" y="956" type="qcurve" smooth="yes"/>
      <point x="938.522" y="956" type="line"/>
    </contour>
    <contour>
      <point x="199.7" y="0" type="line"/>
      <point x="444" y="1400" type="line"/>
      <point x="1980" y="1400" type="line" smooth="yes"/>
      <point x="2145" y="1400"/>
      <point x="2410.62" y="1352"/>
      <point x="2614.74" y="1261"/>
      <point x="2755.54" y="1128"/>
      <point x="2834.87" y="958"/>
      <point x="2854.1" y="753"/>
      <point x="2833.51" y="635" type="qcurve" smooth="yes"/>
      <point x="2811.69" y="510"/>
      <point x="2725.19" y="318"/>
      <point x="2595.59" y="177"/>
      <point x="2423.01" y="82"/>
      <point x="2206.89" y="24"/>
      <point x="1947.7" y="0"/>
      <point x="1795.7" y="0" type="qcurve" smooth="yes"/>
    </contour>
  </outline>
  <guideline x="843765"/>
</glyph>
<glyph name="E" format="2">
  <advance width="2845"/>
  <unicode hex="0045"/>
  <anchor x="1641" y="1550" name="top"/>
  <anchor x="1344" y="-150" name="bottom"/>
  <anchor x="2281" y="0" name="ogonek"/>
  <outline>
    <contour>
      <point x="200" y="0" type="line"/>
      <point x="444" y="1400" type="line"/>
      <point x="2750" y="1400" type="line"/>
      <point x="2676" y="976" type="line"/>
      <point x="942" y="976" type="line"/>
      <point x="927" y="890" type="line"/>
      <point x="2009" y="890" type="line"/>
      <point x="1945" y="520" type="line"/>
      <point x="863" y="520" type="line"/>
      <point x="846" y="424" type="line"/>
      <point x="2614" y="424" type="line"/>
      <point x="2540" y="0" type="line"/>
    </contour>
  </outline>
  <guideline x="-320"/>
</glyph>
<glyph name="G" format="2">
  <advance width="3071" height="1448"/>
  <unicode hex="0047"/>
  <anchor x="1645" y="1564" name="top"/>
  <anchor x="1343" y="-164" name="bottom"/>
  <outline>
    <contour>
      <point x="357.575" y="1080" type="line"/>
      <point x="227.575" y="332" type="line" smooth="yes"/>
      <point x="209.575" y="229"/>
      <point x="240.575" y="95"/>
      <point x="332.575" y="17"/>
      <point x="480.575" y="-14"/>
      <point x="579.575" y="-14" type="qcurve" smooth="yes"/>
      <point x="2255.58" y="-14" type="line" smooth="yes"/>
      <point x="2354.58" y="-14"/>
      <point x="2513.58" y="17"/>
      <point x="2633.58" y="95"/>
      <point x="2711.58" y="229"/>
      <point x="2729.58" y="332" type="qcurve" smooth="yes"/>
      <point x="2822.58" y="864" type="line"/>
      <point x="1570.58" y="864" type="line"/>
      <point x="1505.58" y="494" type="line"/>
      <point x="2185.58" y="494" type="line"/>
      <point x="2171.58" y="410" type="line"/>
      <point x="2171.58" y="410"/>
      <point x="2171.58" y="410"/>
      <point x="2171.58" y="410"/>
      <point x="2171.58" y="410"/>
      <point x="2171.58" y="410" type="qcurve"/>
      <point x="813.575" y="410" type="line"/>
      <point x="813.575" y="410"/>
      <point x="813.575" y="410"/>
      <point x="813.575" y="410"/>
      <point x="813.575" y="410"/>
      <point x="813.575" y="410" type="qcurve"/>
      <point x="914.575" y="990" type="line"/>
      <point x="914.575" y="990"/>
      <point x="914.575" y="990"/>
      <point x="914.575" y="990"/>
      <point x="914.575" y="990"/>
      <point x="914.575" y="990" type="qcurve"/>
      <point x="2266.58" y="990" type="line"/>
      <point x="2266.58" y="990"/>
      <point x="2266.58" y="990"/>
      <point x="2266.58" y="990"/>
      <point x="2266.58" y="990"/>
      <point x="2266.58" y="990" type="qcurve"/>
      <point x="2251.58" y="906" type="line"/>
      <point x="2842.58" y="1012" type="line"/>
      <point x="2853.58" y="1080" type="line"/>
      <point x="2871.58" y="1181"/>
      <point x="2835.58" y="1310"/>
      <point x="2740.58" y="1385"/>
      <point x="2593.58" y="1414"/>
      <point x="2498.58" y="1414" type="qcurve" smooth="yes"/>
      <point x="828.575" y="1414" type="line" smooth="yes"/>
      <point x="734.575" y="1414"/>
      <point x="576.575" y="1385"/>
      <point x="455.575" y="1310"/>
      <point x="375.575" y="1181"/>
      <point x="357.575" y="1080" type="qcurve"/>
    </contour>
  </outline>
  <guideline y="574"/>
  <guideline y="1036"/>
  <guideline y="980"/>
  <guideline y="806"/>
  <guideline y="700"/>
  <guideline y="906"/>
  <guideline y="494"/>
</glyph>
<glyph name="J" format="2">
  <advance width="2890.58" height="1448"/>
  <unicode hex="004A"/>
  <anchor x="2451" y="1550" name="top"/>
  <anchor x="1280" y="-150" name="bottom"/>
  <outline>
    <contour>
      <point x="2710" y="1400" type="line"/>
      <point x="2138" y="1400" type="line"/>
      <point x="1973" y="450" type="line"/>
      <point x="1973" y="450"/>
      <point x="1973" y="450"/>
      <point x="1973" y="450"/>
      <point x="1973" y="450"/>
      <point x="1973" y="450" type="qcurve"/>
      <point x="721" y="450" type="line"/>
      <point x="721" y="450"/>
      <point x="721" y="450"/>
      <point x="721" y="450"/>
      <point x="721" y="450"/>
      <point x="721" y="450" type="qcurve"/>
      <point x="771" y="740" type="line"/>
      <point x="181" y="634" type="line"/>
      <point x="126" y="320" type="line" smooth="yes"/>
      <point x="108" y="220"/>
      <point x="144" y="90"/>
      <point x="239" y="15"/>
      <point x="388" y="-14"/>
      <point x="482" y="-14" type="qcurve" smooth="yes"/>
      <point x="2052" y="-14" type="line" smooth="yes"/>
      <point x="2147" y="-14"/>
      <point x="2304" y="15"/>
      <point x="2424" y="90"/>
      <point x="2504" y="220"/>
      <point x="2522" y="320" type="qcurve" smooth="yes"/>
    </contour>
  </outline>
</glyph>
<glyph name="K" format="2">
  <advance width="3354" height="1448"/>
  <unicode hex="004B"/>
  <anchor x="1847" y="1550" name="top"/>
  <anchor x="1691" y="-150" name="bottom"/>
  <outline>
    <contour>
      <point x="200" y="0" type="line"/>
      <point x="772" y="0" type="line"/>
      <point x="889" y="672" type="line"/>
      <point x="703" y="702" type="line"/>
      <point x="2179" y="0" type="line"/>
      <point x="3234" y="0" type="line"/>
      <point x="1578" y="783" type="line"/>
      <point x="1598" y="729" type="line"/>
      <point x="3249" y="1400" type="line"/>
      <point x="2316" y="1400" type="line"/>
      <point x="670" y="729" type="line"/>
      <point x="906" y="790" type="line"/>
      <point x="1016" y="1400" type="line"/>
      <point x="444" y="1400" type="line"/>
    </contour>
  </outline>
</glyph>
<glyph name="M" format="2">
  <advance width="3480"/>
  <unicode hex="004D"/>
  <anchor x="1891" y="1550" name="top"/>
  <anchor x="1594" y="-150" name="bottom"/>
  <outline>
    <contour>
      <point x="200" y="0" type="line"/>
      <point x="684" y="0" type="line"/>
      <point x="830" y="836" type="line"/>
      <point x="1625" y="40" type="line"/>
      <point x="2614" y="838" type="line"/>
      <point x="2468" y="0" type="line"/>
      <point x="3040" y="0" type="line"/>
      <point x="3284" y="1400" type="line"/>
      <point x="2736" y="1400" type="line"/>
      <point x="1802" y="647" type="line"/>
      <point x="1048" y="1400" type="line"/>
      <point x="444" y="1400" type="line"/>
    </contour>
  </outline>
</glyph>
<glyph name="N" format="2">
  <advance width="3222"/>
  <unicode hex="004E"/>
  <anchor x="1897" y="1550" name="top"/>
  <anchor x="1600" y="-150" name="bottom"/>
  <outline>
    <contour>
      <point x="200" y="0" type="line"/>
      <point x="732" y="0" type="line"/>
      <point x="865" y="761" type="line"/>
      <point x="2358" y="0" type="line"/>
      <point x="2782" y="0" type="line"/>
      <point x="3026" y="1400" type="line"/>
      <point x="2494" y="1400" type="line"/>
      <point x="2361" y="638" type="line"/>
      <point x="866" y="1400" type="line"/>
      <point x="444" y="1400" type="line"/>
    </contour>
  </outline>
</glyph>
<glyph name="O" format="2">
  <advance width="3243" height="1448"/>
  <unicode hex="004F"/>
  <anchor x="1752" y="1564" name="top"/>
  <anchor x="1453" y="-164" name="bottom"/>
  <anchor x="3021" y="1080" name="horn"/>
  <anchor x="1643" y="0" name="ogonek"/>
  <outline>
    <contour>
      <point x="357.575" y="1080" type="line"/>
      <point x="227.575" y="332" type="line" smooth="yes"/>
      <point x="209.575" y="229"/>
      <point x="240.575" y="95"/>
      <point x="332.575" y="17"/>
      <point x="480.575" y="-14"/>
      <point x="579.575" y="-14" type="qcurve" smooth="yes"/>
      <point x="2417.58" y="-14" type="line" smooth="yes"/>
      <point x="2516.58" y="-14"/>
      <point x="2675.58" y="17"/>
      <point x="2795.58" y="95"/>
      <point x="2873.58" y="229"/>
      <point x="2891.58" y="332" type="qcurve" smooth="yes"/>
      <point x="3021.58" y="1080" type="line" smooth="yes"/>
      <point x="3039.58" y="1181"/>
      <point x="3003.58" y="1310"/>
      <point x="2908.58" y="1385"/>
      <point x="2761.58" y="1414"/>
      <point x="2666.58" y="1414" type="qcurve" smooth="yes"/>
      <point x="828.575" y="1414" type="line" smooth="yes"/>
      <point x="734.575" y="1414"/>
      <point x="576.575" y="1385"/>
      <point x="455.575" y="1310"/>
      <point x="375.575" y="1181"/>
      <point x="357.575" y="1080" type="qcurve"/>
    </contour>
    <contour>
      <point x="903.575" y="930" type="line"/>
      <point x="903.575" y="930"/>
      <point x="903.575" y="930"/>
      <point x="903.575" y="930"/>
      <point x="903.575" y="930"/>
      <point x="903.575" y="930" type="qcurve"/>
      <point x="2423.58" y="930" type="line"/>
      <point x="2423.58" y="930"/>
      <point x="2423.58" y="930"/>
      <point x="2423.58" y="930"/>
      <point x="2423.58" y="930"/>
      <point x="2423.58" y="930" type="qcurve"/>
      <point x="2343.58" y="470" type="line"/>
      <point x="2343.58" y="470"/>
      <point x="2343.58" y="470"/>
      <point x="2343.58" y="470"/>
      <point x="2343.58" y="470"/>
      <point x="2343.58" y="470" type="qcurve"/>
      <point x="823.575" y="470" type="line"/>
      <point x="823.575" y="470"/>
      <point x="823.575" y="470"/>
      <point x="823.575" y="470"/>
      <point x="823.575" y="470"/>
      <point x="823.575" y="470" type="qcurve"/>
    </contour>
  </outline>
</glyph>
<glyph name="P" format="2">
  <advance width="3227"/>
  <unicode hex="0050"/>
  <outline>
    <contour>
      <point x="200" y="0" type="line"/>
      <point x="772" y="0" type="line"/>
      <point x="833" y="350" type="line"/>
      <point x="2565" y="350" type="line" smooth="yes"/>
      <point x="2660" y="350"/>
      <point x="2817" y="377"/>
      <point x="2938" y="449"/>
      <point x="3018" y="576"/>
      <point x="3036" y="676" type="qcurve" smooth="yes"/>
      <point x="3104" y="1066" type="line" smooth="yes"/>
      <point x="3122" y="1167"/>
      <point x="3086" y="1296"/>
      <point x="2991" y="1371"/>
      <point x="2843" y="1400"/>
      <point x="2748" y="1400" type="qcurve" smooth="yes"/>
      <point x="444" y="1400" type="line"/>
    </contour>
    <contour>
      <point x="910" y="790" type="line"/>
      <point x="940" y="960" type="line"/>
      <point x="2453" y="960" type="line" smooth="yes"/>
      <point x="2470" y="960"/>
      <point x="2491" y="951"/>
      <point x="2503" y="936"/>
      <point x="2505" y="914"/>
      <point x="2503" y="900" type="qcurve" smooth="yes"/>
      <point x="2494" y="850" type="line" smooth="yes"/>
      <point x="2492" y="837"/>
      <point x="2482" y="814"/>
      <point x="2465" y="799"/>
      <point x="2440" y="790"/>
      <point x="2423" y="790" type="qcurve" smooth="yes"/>
    </contour>
  </outline>
  <guideline x="1614" name="halfwidth" color="0.4,0.4,0.4,1"/>
</glyph>
<glyph name="R" format="2">
  <advance width="3258"/>
  <unicode hex="0052"/>
  <anchor x="1629" y="-150" name="bottom"/>
  <anchor x="1629" y="1550" name="top"/>
  <outline>
    <contour>
      <point x="200" y="0" type="line"/>
      <point x="772" y="0" type="line"/>
      <point x="837" y="370" type="line"/>
      <point x="1606" y="370" type="line"/>
      <point x="2146" y="0" type="line"/>
      <point x="2968" y="0" type="line"/>
      <point x="2325" y="390" type="line"/>
      <point x="2566" y="390" type="line" smooth="yes"/>
      <point x="2661" y="390"/>
      <point x="2819" y="419"/>
      <point x="2940" y="494"/>
      <point x="3021" y="624"/>
      <point x="3038" y="724" type="qcurve" smooth="yes"/>
      <point x="3098" y="1066" type="line" smooth="yes"/>
      <point x="3116" y="1167"/>
      <point x="3080" y="1296"/>
      <point x="2985" y="1371"/>
      <point x="2837" y="1400"/>
      <point x="2742" y="1400" type="qcurve" smooth="yes"/>
      <point x="444" y="1400" type="line"/>
    </contour>
    <contour>
      <point x="913" y="810" type="line"/>
      <point x="940" y="960" type="line"/>
      <point x="2443" y="960" type="line" smooth="yes"/>
      <point x="2460" y="960"/>
      <point x="2481" y="951"/>
      <point x="2493" y="936"/>
      <point x="2495" y="914"/>
      <point x="2493" y="900" type="qcurve" smooth="yes"/>
      <point x="2488" y="870" type="line" smooth="yes"/>
      <point x="2486" y="857"/>
      <point x="2475" y="834"/>
      <point x="2458" y="819"/>
      <point x="2433" y="810"/>
      <point x="2416" y="810" type="qcurve" smooth="yes"/>
    </contour>
  </outline>
</glyph>
<glyph name="S" format="2">
  <advance width="2931.79"/>
  <unicode hex="0053"/>
  <anchor x="1613" y="1564" name="top"/>
  <anchor x="1311" y="-164" name="bottom"/>
  <outline>
    <contour>
      <point x="179.977" y="410" type="line"/>
      <point x="734.977" y="462" type="line"/>
      <point x="718.977" y="372" type="line"/>
      <point x="718.977" y="372"/>
      <point x="718.977" y="372"/>
      <point x="718.977" y="372"/>
      <point x="718.977" y="372"/>
      <point x="718.977" y="372" type="qcurve"/>
      <point x="2090.98" y="372" type="line"/>
      <point x="2090.98" y="372"/>
      <point x="2090.98" y="372"/>
      <point x="2090.98" y="372"/>
      <point x="2090.98" y="372"/>
      <point x="2090.98" y="372" type="qcurve"/>
      <point x="2115.98" y="514" type="line"/>
      <point x="2115.98" y="514"/>
      <point x="2115.98" y="514"/>
      <point x="2115.98" y="514"/>
      <point x="2115.98" y="514"/>
      <point x="2115.98" y="514" type="qcurve"/>
      <point x="635.977" y="514" type="line" smooth="yes"/>
      <point x="540.977" y="514"/>
      <point x="393.977" y="542"/>
      <point x="301.977" y="618"/>
      <point x="269.977" y="752"/>
      <point x="287.977" y="858" type="qcurve" smooth="yes"/>
      <point x="326.977" y="1082" type="line" smooth="yes"/>
      <point x="344.977" y="1186"/>
      <point x="428.977" y="1315"/>
      <point x="551.977" y="1388"/>
      <point x="709.977" y="1414"/>
      <point x="800.977" y="1414" type="qcurve" smooth="yes"/>
      <point x="2388.98" y="1414" type="line" smooth="yes"/>
      <point x="2480.98" y="1414"/>
      <point x="2626.98" y="1389"/>
      <point x="2721.98" y="1317"/>
      <point x="2759.98" y="1189"/>
      <point x="2741.98" y="1086" type="qcurve" smooth="yes"/>
      <point x="2727.98" y="1008" type="line"/>
      <point x="2172.98" y="958" type="line"/>
      <point x="2184.98" y="1028" type="line"/>
      <point x="2184.98" y="1028"/>
      <point x="2184.98" y="1028"/>
      <point x="2184.98" y="1028"/>
      <point x="2184.98" y="1028"/>
      <point x="2184.98" y="1028" type="qcurve"/>
      <point x="862.977" y="1028" type="line"/>
      <point x="862.977" y="1028"/>
      <point x="862.977" y="1028"/>
      <point x="862.977" y="1028"/>
      <point x="862.977" y="1028"/>
      <point x="862.977" y="1028" type="qcurve"/>
      <point x="840.977" y="900" type="line"/>
      <point x="840.977" y="900"/>
      <point x="840.977" y="900"/>
      <point x="840.977" y="900"/>
      <point x="840.977" y="900"/>
      <point x="840.977" y="900" type="qcurve"/>
      <point x="2316.98" y="900" type="line" smooth="yes"/>
      <point x="2408.98" y="900"/>
      <point x="2555.98" y="875"/>
      <point x="2651.98" y="804"/>
      <point x="2689.98" y="676"/>
      <point x="2671.98" y="572" type="qcurve" smooth="yes"/>
      <point x="2629.98" y="330" type="line" smooth="yes"/>
      <point x="2610.98" y="224"/>
      <point x="2530.98" y="89"/>
      <point x="2410.98" y="14"/>
      <point x="2253.98" y="-14"/>
      <point x="2157.98" y="-14" type="qcurve" smooth="yes"/>
      <point x="515.977" y="-14" type="line" smooth="yes"/>
      <point x="420.977" y="-14"/>
      <point x="272.977" y="14"/>
      <point x="179.977" y="89"/>
      <point x="146.977" y="222"/>
      <point x="164.977" y="328" type="qcurve" smooth="yes"/>
    </contour>
  </outline>
</glyph>
<glyph name="T" format="2">
  <advance width="2761"/>
  <unicode hex="0054"/>
  <anchor x="1535" y="1550" name="top"/>
  <anchor x="1238" y="-150" name="bottom"/>
  <outline>
    <contour>
      <point x="976.858" y="0" type="line"/>
      <point x="1548.86" y="0" type="line"/>
      <point x="1715.86" y="956" type="line"/>
      <point x="2759.86" y="956" type="line"/>
      <point x="2836.86" y="1400" type="line"/>
      <point x="176.858" y="1400" type="line"/>
      <point x="99.8578" y="956" type="line"/>
      <point x="1143.86" y="956" type="line"/>
    </contour>
  </outline>
</glyph>
<glyph name="V" format="2">
  <advance width="2912"/>
  <unicode hex="0056"/>
  <anchor x="1610" y="1550" name="top"/>
  <anchor x="1313" y="-150" name="bottom"/>
  <outline>
    <contour>
      <point x="127" y="1400" type="line"/>
      <point x="865" y="1400" type="line"/>
      <point x="1453" y="504" type="line"/>
      <point x="2353" y="1400" type="line"/>
      <point x="3039" y="1400" type="line"/>
      <point x="1614" y="0" type="line"/>
      <point x="1066" y="0" type="line"/>
    </contour>
  </outline>
</glyph>
<glyph name="W" format="2">
  <advance width="3392"/>
  <unicode hex="0057"/>
  <anchor x="1696" y="-150" name="bottom"/>
  <anchor x="1849" y="1550" name="top"/>
  <outline>
    <contour>
      <point x="676.858" y="0" type="line"/>
      <point x="1224.86" y="0" type="line"/>
      <point x="1704.86" y="722" type="line"/>
      <point x="1932.86" y="0" type="line"/>
      <point x="2480.86" y="0" type="line"/>
      <point x="3518.86" y="1400" type="line"/>
      <point x="2881.86" y="1400" type="line"/>
      <point x="2333.86" y="617" type="line"/>
      <point x="2079.86" y="1400" type="line"/>
      <point x="1564.86" y="1400" type="line"/>
      <point x="1061.86" y="617" type="line"/>
      <point x="784.858" y="1400" type="line"/>
      <point x="126.858" y="1400" type="line"/>
    </contour>
  </outline>
</glyph>
<glyph name="X" format="2">
  <advance width="2805"/>
  <unicode hex="0058"/>
  <anchor x="1555" y="1550" name="top"/>
  <anchor x="1258" y="-150" name="bottom"/>
  <outline>
    <contour>
      <point x="-117.142" y="0" type="line"/>
      <point x="659.858" y="0" type="line"/>
      <point x="1342.86" y="435" type="line"/>
      <point x="1836.86" y="0" type="line"/>
      <point x="2684.86" y="0" type="line"/>
      <point x="1808.86" y="728" type="line"/>
      <point x="2873.86" y="1400" type="line"/>
      <point x="2090.86" y="1400" type="line"/>
      <point x="1448.86" y="995" type="line"/>
      <point x="982.858" y="1400" type="line"/>
      <point x="126.858" y="1400" type="line"/>
      <point x="983.858" y="701" type="line"/>
    </contour>
  </outline>
</glyph>
<glyph name="Y" format="2">
  <advance width="2863"/>
  <unicode hex="0059"/>
  <anchor x="1591" y="1550" name="top"/>
  <anchor x="1289" y="-150" name="bottom"/>
  <outline>
    <contour>
      <point x="1023.86" y="0" type="line"/>
      <point x="1595.86" y="0" type="line"/>
      <point x="1677.86" y="471" type="line"/>
      <point x="2989.86" y="1400" type="line"/>
      <point x="2210.86" y="1400" type="line"/>
      <point x="1484.86" y="870" type="line"/>
      <point x="960.858" y="1400" type="line"/>
      <point x="126.858" y="1400" type="line"/>
      <point x="1108.86" y="487" type="line"/>
    </contour>
  </outline>
  <guideline x="1315" y="0" angle="260.097" color="1,0,0,1"/>
</glyph>
<glyph name="Z" format="2">
  <advance width="2541"/>
  <unicode hex="005A"/>
  <anchor x="1271" y="1550" name="top"/>
  <anchor x="1271" y="-150" name="bottom"/>
  <outline>
    <contour>
      <point x="-69.8554" y="0" type="line"/>
      <point x="2371.14" y="0" type="line"/>
      <point x="2452.14" y="464" type="line"/>
      <point x="1244.14" y="464" type="line"/>
      <point x="2565.14" y="1178" type="line"/>
      <point x="2603.14" y="1400" type="line"/>
      <point x="268.145" y="1400" type="line"/>
      <point x="187.145" y="936" type="line"/>
      <point x="1289.14" y="936" type="line"/>
      <point x="-30.8554" y="222" type="line"/>
    </contour>
  </outline>
</glyph>
<glyph name="bracketleft" format="2">
  <advance width="1372"/>
  <unicode hex="005B"/>
  <outline>
    <contour>
      <point x="154.464" y="-256" type="line"/>
      <point x="452.464" y="1448" type="line"/>
      <point x="1344.46" y="1448" type="line"/>
      <point x="1283.46" y="1098" type="line"/>
      <point x="831.464" y="1098" type="line"/>
      <point x="655.464" y="94" type="line"/>
      <point x="1107.46" y="94" type="line"/>
      <point x="1046.46" y="-256" type="line"/>
    </contour>
  </outline>
</glyph>
<glyph name="backslash" format="2">
  <advance width="1789"/>
  <unicode hex="005C"/>
  <outline>
    <contour>
      <point x="717.862" y="1430" type="line"/>
      <point x="274.862" y="1430" type="line"/>
      <point x="1064.86" y="-100" type="line"/>
      <point x="1507.86" y="-100" type="line"/>
    </contour>
  </outline>
</glyph>
<glyph name="asciicircum" format="2">
  <advance width="1773"/>
  <unicode hex="005E"/>
  <outline>
    <contour>
      <point x="40" y="850" type="line"/>
      <point x="782" y="1400" type="line"/>
      <point x="1242" y="1400" type="line"/>
      <point x="1793" y="850" type="line"/>
      <point x="1146" y="850" type="line"/>
      <point x="969" y="1153" type="line"/>
      <point x="687" y="850" type="line"/>
    </contour>
  </outline>
</glyph>
<glyph name="a" format="2">
  <advance width="2347" height="1448"/>
  <unicode hex="0061"/>
  <anchor x="1256" y="1174" name="top"/>
  <anchor x="1017" y="-150" name="bottom"/>
  <anchor x="1798" y="0" name="ogonek"/>
  <outline>
    <contour>
      <point x="387.973" y="-10" type="line" smooth="yes"/>
      <point x="326.973" y="-10"/>
      <point x="222.973" y="14"/>
      <point x="152.973" y="72"/>
      <point x="123.973" y="170"/>
      <point x="136.973" y="244" type="qcurve" smooth="yes"/>
      <point x="156.973" y="362" type="line" smooth="yes"/>
      <point x="169.973" y="435"/>
      <point x="232.973" y="529"/>
      <point x="322.973" y="584"/>
      <point x="434.973" y="606"/>
      <point x="495.973" y="606" type="qcurve" smooth="yes"/>
      <point x="1575.97" y="606" type="line"/>
      <point x="1593.97" y="712" type="line"/>
      <point x="1593.97" y="712"/>
      <point x="1593.97" y="712"/>
      <point x="1593.97" y="712" type="qcurve"/>
      <point x="765.973" y="712" type="line"/>
      <point x="765.973" y="712"/>
      <point x="765.973" y="712"/>
      <point x="765.973" y="712" type="qcurve"/>
      <point x="756.973" y="660" type="line"/>
      <point x="249.973" y="755" type="line"/>
      <point x="252.973" y="774" type="line" smooth="yes"/>
      <point x="265.973" y="848"/>
      <point x="325.973" y="948"/>
      <point x="414.973" y="1008"/>
      <point x="527.973" y="1034"/>
      <point x="593.973" y="1034" type="qcurve" smooth="yes"/>
      <point x="1877.97" y="1034" type="line" smooth="yes"/>
      <point x="1943.97" y="1034"/>
      <point x="2048.97" y="1011"/>
      <point x="2115.97" y="949"/>
      <point x="2140.97" y="842"/>
      <point x="2125.97" y="758" type="qcurve" smooth="yes"/>
      <point x="1993.97" y="0" type="line"/>
      <point x="1469.97" y="0" type="line"/>
      <point x="1495.97" y="150" type="line"/>
      <point x="1474.97" y="104"/>
      <point x="1412.97" y="43"/>
      <point x="1332.97" y="6"/>
      <point x="1238.97" y="-10"/>
      <point x="1185.97" y="-10" type="qcurve" smooth="yes"/>
    </contour>
    <contour>
      <point x="673.973" y="262" type="line"/>
      <point x="673.973" y="262"/>
      <point x="673.973" y="262"/>
      <point x="673.973" y="262" type="qcurve"/>
      <point x="1515.97" y="262" type="line"/>
      <point x="1534.97" y="370" type="line"/>
      <point x="692.973" y="370" type="line"/>
      <point x="692.973" y="370"/>
      <point x="692.973" y="370"/>
      <point x="692.973" y="370" type="qcurve"/>
    </contour>
  </outline>
  <guideline x="1470" y="-0" angle="260.111" color="1,0,0,1"/>
</glyph>
<glyph name="b" format="2">
  <advance width="2485" height="-1448"/>
  <unicode hex="0062"/>
  <anchor x="1409" y="1598" name="top"/>
  <anchor x="1104" y="-150" name="bottom"/>
  <outline>
    <contour>
      <point x="120" y="0" type="line"/>
      <point x="644" y="0" type="line"/>
      <point x="662" y="102" type="line"/>
      <point x="684" y="45"/>
      <point x="807" y="-10"/>
      <point x="916" y="-10" type="qcurve" smooth="yes"/>
      <point x="1832" y="-10" type="line" smooth="yes"/>
      <point x="1912" y="-10"/>
      <point x="2034" y="21"/>
      <point x="2120" y="85"/>
      <point x="2172" y="185"/>
      <point x="2184" y="254" type="qcurve" smooth="yes"/>
      <point x="2276" y="780" type="line" smooth="yes"/>
      <point x="2287" y="845"/>
      <point x="2268" y="941"/>
      <point x="2204" y="1004"/>
      <point x="2094" y="1034"/>
      <point x="2014" y="1034" type="qcurve" smooth="yes"/>
      <point x="1098" y="1034" type="line" smooth="yes"/>
      <point x="991" y="1034"/>
      <point x="848" y="979"/>
      <point x="805" y="922" type="qcurve"/>
      <point x="901" y="1472" type="line"/>
      <point x="377" y="1472" type="line"/>
    </contour>
    <contour>
      <point x="709" y="372" type="line"/>
      <point x="758" y="652" type="line"/>
      <point x="1730" y="652" type="line"/>
      <point x="1730" y="652"/>
      <point x="1730" y="652"/>
      <point x="1730" y="652" type="qcurve"/>
      <point x="1681" y="372" type="line"/>
      <point x="1681" y="372"/>
      <point x="1681" y="372"/>
      <point x="1681" y="372" type="qcurve"/>
    </contour>
  </outline>
</glyph>
<glyph name="c" format="2">
  <advance width="2307"/>
  <unicode hex="0063"/>
  <anchor x="1249" y="1174" name="top"/>
  <anchor x="1018" y="-150" name="bottom"/>
  <outline>
    <contour>
      <point x="150" y="260" type="line"/>
      <point x="240" y="774" type="line" smooth="yes"/>
      <point x="252" y="844"/>
      <point x="306" y="942"/>
      <point x="396" y="1005"/>
      <point x="524" y="1034"/>
      <point x="611" y="1034" type="qcurve" smooth="yes"/>
      <point x="1869" y="1034" type="line" smooth="yes"/>
      <point x="1956" y="1034"/>
      <point x="2074" y="1006"/>
      <point x="2140" y="944"/>
      <point x="2159" y="847"/>
      <point x="2147" y="778" type="qcurve" smooth="yes"/>
      <point x="2124" y="650" type="line"/>
      <point x="1583" y="552" type="line"/>
      <point x="1601" y="652" type="line"/>
      <point x="1601" y="652"/>
      <point x="1601" y="652"/>
      <point x="1601" y="652" type="qcurve"/>
      <point x="743" y="652" type="line"/>
      <point x="743" y="652"/>
      <point x="743" y="652"/>
      <point x="743" y="652" type="qcurve"/>
      <point x="694" y="372" type="line"/>
      <point x="694" y="372"/>
      <point x="694" y="372"/>
      <point x="694" y="372" type="qcurve"/>
      <point x="1556" y="372" type="line"/>
      <point x="1556" y="372"/>
      <point x="1556" y="372"/>
      <point x="1556" y="372" type="qcurve"/>
      <point x="1574" y="474" type="line"/>
      <point x="2079" y="366" type="line"/>
      <point x="2060" y="260" type="line" smooth="yes"/>
      <point x="2048" y="187"/>
      <point x="1995" y="85"/>
      <point x="1906" y="20"/>
      <point x="1778" y="-10"/>
      <point x="1689" y="-10" type="qcurve" smooth="yes"/>
      <point x="427" y="-10" type="line" smooth="yes"/>
      <point x="339" y="-10"/>
      <point x="221" y="20"/>
      <point x="155" y="85"/>
      <point x="138" y="187"/>
      <point x="150" y="260" type="qcurve"/>
    </contour>
  </outline>
</glyph>
<glyph name="d" format="2">
  <advance width="2484.68" height="1448"/>
  <unicode hex="0064"/>
  <anchor x="1395" y="1598" name="top"/>
  <anchor x="1090" y="-150" name="bottom"/>
  <anchor x="2382" y="1472" name="right"/>
  <outline>
    <contour>
      <point x="148.677" y="254" type="line"/>
      <point x="240.677" y="780" type="line" smooth="yes"/>
      <point x="252.677" y="845"/>
      <point x="304.677" y="941"/>
      <point x="390.677" y="1004"/>
      <point x="511.677" y="1034"/>
      <point x="590.677" y="1034" type="qcurve" smooth="yes"/>
      <point x="1506.68" y="1034" type="line" smooth="yes"/>
      <point x="1613.68" y="1034"/>
      <point x="1738.68" y="979"/>
      <point x="1761.68" y="922" type="qcurve"/>
      <point x="1857.68" y="1472" type="line"/>
      <point x="2381.68" y="1472" type="line"/>
      <point x="2124.68" y="0" type="line"/>
      <point x="1600.68" y="0" type="line"/>
      <point x="1618.68" y="102" type="line"/>
      <point x="1576.68" y="45"/>
      <point x="1433.68" y="-10"/>
      <point x="1324.68" y="-10" type="qcurve" smooth="yes"/>
      <point x="408.677" y="-10" type="line" smooth="yes"/>
      <point x="328.677" y="-10"/>
      <point x="217.677" y="21"/>
      <point x="154.677" y="85"/>
      <point x="136.677" y="185"/>
      <point x="148.677" y="254" type="qcurve"/>
    </contour>
    <contour>
      <point x="1714.68" y="652" type="line"/>
      <point x="742.677" y="652" type="line"/>
      <point x="742.677" y="652"/>
      <point x="742.677" y="652"/>
      <point x="742.677" y="652" type="qcurve"/>
      <point x="693.677" y="372" type="line"/>
      <point x="693.677" y="372"/>
      <point x="693.677" y="372"/>
      <point x="693.677" y="372" type="qcurve"/>
      <point x="1665.68" y="372" type="line"/>
    </contour>
  </outline>
</glyph>
<glyph name="e" format="2">
  <advance width="2358" height="1448"/>
  <unicode hex="0065"/>
  <anchor x="1265" y="1174" name="top"/>
  <anchor x="1034" y="-150" name="bottom"/>
  <anchor x="1593" y="-10" name="ogonek"/>
  <outline>
    <contour>
      <point x="156.566" y="300" type="line"/>
      <point x="232.566" y="734" type="line" smooth="yes"/>
      <point x="246.566" y="812"/>
      <point x="309.566" y="925"/>
      <point x="417.566" y="999"/>
      <point x="575.566" y="1034"/>
      <point x="682.566" y="1034" type="qcurve" smooth="yes"/>
      <point x="1774.57" y="1034" type="line" smooth="yes"/>
      <point x="1882.57" y="1034"/>
      <point x="2034.57" y="999"/>
      <point x="2124.57" y="926"/>
      <point x="2154.57" y="813"/>
      <point x="2140.57" y="734" type="qcurve" smooth="yes"/>
      <point x="2083.57" y="404" type="line"/>
      <point x="679.566" y="404" type="line"/>
      <point x="665.566" y="326" type="line"/>
      <point x="665.566" y="326"/>
      <point x="665.566" y="326"/>
      <point x="665.566" y="326" type="qcurve"/>
      <point x="1565.57" y="326" type="line"/>
      <point x="1565.57" y="326"/>
      <point x="1565.57" y="326"/>
      <point x="1565.57" y="326" type="qcurve"/>
      <point x="1572.57" y="368" type="line"/>
      <point x="2061.57" y="280" type="line"/>
      <point x="2058.57" y="266" type="line" smooth="yes"/>
      <point x="2045.57" y="191"/>
      <point x="1977.57" y="86"/>
      <point x="1863.57" y="20"/>
      <point x="1700.57" y="-10"/>
      <point x="1592.57" y="-10" type="qcurve" smooth="yes"/>
      <point x="500.566" y="-10" type="line" smooth="yes"/>
      <point x="392.566" y="-10"/>
      <point x="247.566" y="26"/>
      <point x="165.566" y="102"/>
      <point x="142.566" y="219"/>
      <point x="156.566" y="300" type="qcurve"/>
    </contour>
    <contour>
      <point x="718.566" y="628" type="line"/>
      <point x="1618.57" y="628" type="line"/>
      <point x="1630.57" y="698" type="line"/>
      <point x="1630.57" y="698"/>
      <point x="1630.57" y="698"/>
      <point x="1630.57" y="698" type="qcurve"/>
      <point x="730.566" y="698" type="line"/>
      <point x="730.566" y="698"/>
      <point x="730.566" y="698"/>
      <point x="730.566" y="698" type="qcurve"/>
    </contour>
  </outline>
  <guideline y="-1034" color="1,0,0,1"/>
</glyph>
<glyph name="f" format="2">
  <advance width="1465"/>
  <unicode hex="0066"/>
  <outline>
    <contour>
      <point x="365" y="1024" type="line"/>
      <point x="391" y="1176" type="line" smooth="yes"/>
      <point x="405" y="1254"/>
      <point x="465" y="1366"/>
      <point x="556" y="1438"/>
      <point x="680" y="1472"/>
      <point x="757" y="1472" type="qcurve" smooth="yes"/>
      <point x="1572" y="1472" type="line"/>
      <point x="1469" y="1170" type="line"/>
      <point x="914" y="1170" type="line"/>
      <point x="914" y="1170"/>
      <point x="914" y="1170"/>
      <point x="914" y="1170" type="qcurve"/>
      <point x="889" y="1024" type="line"/>
      <point x="1439" y="1024" type="line"/>
      <point x="1386" y="722" type="line"/>
      <point x="836" y="722" type="line"/>
      <point x="710" y="0" type="line"/>
      <point x="186" y="0" type="line"/>
      <point x="312" y="722" type="line"/>
      <point x="140" y="722" type="line"/>
      <point x="193" y="1024" type="line"/>
    </contour>
  </outline>
</glyph>
<glyph name="h" format="2">
  <advance width="2365" height="1448"/>
  <unicode hex="0068"/>
  <anchor x="667" y="1622" name="top"/>
  <anchor x="1041" y="-150" name="bottom"/>
  <anchor x="110" y="512" name="left"/>
  <outline>
    <contour>
      <point x="119.696" y="0" type="line"/>
      <point x="376.696" y="1472" type="line"/>
      <point x="900.696" y="1472" type="line"/>
      <point x="804.696" y="920" type="line"/>
      <point x="845.696" y="974"/>
      <point x="990.696" y="1024"/>
      <point x="1108.7" y="1024" type="qcurve" smooth="yes"/>
      <point x="1822.7" y="1024" type="line" smooth="yes"/>
      <point x="1918.7" y="1024"/>
      <point x="2051.7" y="989"/>
      <point x="2128.7" y="915"/>
      <point x="2151.7" y="802"/>
      <point x="2137.7" y="724" type="qcurve" smooth="yes"/>
      <point x="2011.7" y="0" type="line"/>
      <point x="1487.7" y="0" type="line"/>
      <point x="1590.7" y="592" type="line"/>
      <point x="1590.7" y="592"/>
      <point x="1590.7" y="592"/>
      <point x="1590.7" y="592" type="qcurve"/>
      <point x="746.696" y="592" type="line"/>
      <point x="643.696" y="0" type="line"/>
    </contour>
  </outline>
  <guideline y="988"/>
  <guideline y="870"/>
</glyph>
<glyph name="k" format="2">
  <advance width="2713" height="1448"/>
  <unicode hex="006B"/>
  <anchor x="1021" y="1598" name="top"/>
  <anchor x="1096" y="-150" name="bottom"/>
  <anchor x="148" y="736" name="left"/>
  <outline>
    <contour>
      <point x="119.696" y="0" type="line"/>
      <point x="643.696" y="0" type="line"/>
      <point x="726.696" y="475" type="line"/>
      <point x="1621.7" y="0" type="line"/>
      <point x="2580.7" y="0" type="line"/>
      <point x="1438.7" y="577" type="line"/>
      <point x="2566.7" y="1024" type="line"/>
      <point x="1775.7" y="1024" type="line"/>
      <point x="750.696" y="611" type="line"/>
      <point x="900.696" y="1472" type="line"/>
      <point x="376.696" y="1472" type="line"/>
    </contour>
  </outline>
</glyph>
<glyph name="l" format="2">
  <advance width="1004" height="1448"/>
  <unicode hex="006C"/>
  <anchor x="661" y="1598" name="top"/>
  <anchor x="356" y="-150" name="bottom"/>
  <anchor x="901" y="1472" name="right"/>
  <anchor x="990" y="700" name="eldot"/>
  <outline>
    <contour>
      <point x="119.696" y="0" type="line"/>
      <point x="643.696" y="0" type="line"/>
      <point x="900.696" y="1472" type="line"/>
      <point x="376.696" y="1472" type="line"/>
    </contour>
  </outline>
</glyph>
<glyph name="m" format="2">
  <advance width="3252" height="1448"/>
  <unicode hex="006D"/>
  <anchor x="1626" y="1174" name="top"/>
  <anchor x="1626" y="-150" name="bottom"/>
  <anchor x="109" y="512" name="left"/>
  <outline>
    <contour>
      <point x="119" y="0" type="line"/>
      <point x="643" y="0" type="line"/>
      <point x="748" y="602" type="line"/>
      <point x="1352" y="602" type="line"/>
      <point x="1247" y="0" type="line"/>
      <point x="1771" y="0" type="line"/>
      <point x="1876" y="602" type="line"/>
      <point x="2480" y="602" type="line"/>
      <point x="2480" y="602"/>
      <point x="2480" y="602"/>
      <point x="2480" y="602" type="qcurve"/>
      <point x="2375" y="0" type="line"/>
      <point x="2899" y="0" type="line"/>
      <point x="3027" y="734" type="line" smooth="yes"/>
      <point x="3041" y="812"/>
      <point x="3017" y="925"/>
      <point x="2940" y="999"/>
      <point x="2807" y="1034"/>
      <point x="2711" y="1034" type="qcurve" smooth="yes"/>
      <point x="2236" y="1034" type="line" smooth="yes"/>
      <point x="2163" y="1034"/>
      <point x="2052" y="1015"/>
      <point x="1971" y="975"/>
      <point x="1916" y="913"/>
      <point x="1899" y="870" type="qcurve"/>
      <point x="1887" y="923"/>
      <point x="1823" y="987"/>
      <point x="1735" y="1022"/>
      <point x="1632" y="1034"/>
      <point x="1581" y="1034" type="qcurve" smooth="yes"/>
      <point x="1107" y="1034" type="line" smooth="yes"/>
      <point x="989" y="1034"/>
      <point x="847" y="984"/>
      <point x="805" y="930" type="qcurve"/>
      <point x="822" y="1024" type="line"/>
      <point x="298" y="1024" type="line"/>
    </contour>
  </outline>
</glyph>
<glyph name="n" format="2">
  <advance width="2364" height="1448"/>
  <unicode hex="006E"/>
  <anchor x="1271" y="1174" name="top"/>
  <anchor x="1040" y="-150" name="bottom"/>
  <anchor x="109" y="512" name="left"/>
  <outline>
    <contour>
      <point x="118.701" y="0" type="line"/>
      <point x="297.701" y="1024" type="line"/>
      <point x="821.701" y="1024" type="line"/>
      <point x="804.701" y="930" type="line"/>
      <point x="846.701" y="984"/>
      <point x="990.701" y="1034"/>
      <point x="1108.7" y="1034" type="qcurve" smooth="yes"/>
      <point x="1822.7" y="1034" type="line" smooth="yes"/>
      <point x="1918.7" y="1034"/>
      <point x="2051.7" y="999"/>
      <point x="2128.7" y="925"/>
      <point x="2152.7" y="812"/>
      <point x="2138.7" y="734" type="qcurve" smooth="yes"/>
      <point x="2010.7" y="0" type="line"/>
      <point x="1486.7" y="0" type="line"/>
      <point x="1591.7" y="602" type="line"/>
      <point x="1591.7" y="602"/>
      <point x="1591.7" y="602"/>
      <point x="1591.7" y="602" type="qcurve"/>
      <point x="747.701" y="602" type="line"/>
      <point x="642.701" y="0" type="line"/>
    </contour>
  </outline>
  <guideline y="988"/>
  <guideline y="870"/>
</glyph>
<glyph name="p" format="2">
  <advance width="2484.68" height="1448"/>
  <unicode hex="0070"/>
  <anchor x="1373" y="1598" name="top"/>
  <anchor x="1033" y="-554" name="bottom"/>
  <outline>
    <contour>
      <point x="43.7011" y="-428" type="line"/>
      <point x="297.701" y="1024" type="line"/>
      <point x="821.701" y="1024" type="line"/>
      <point x="803.701" y="922" type="line"/>
      <point x="845.701" y="979"/>
      <point x="987.701" y="1034"/>
      <point x="1096.7" y="1034" type="qcurve" smooth="yes"/>
      <point x="2012.7" y="1034" type="line" smooth="yes"/>
      <point x="2092.7" y="1034"/>
      <point x="2203.7" y="1003"/>
      <point x="2266.7" y="939"/>
      <point x="2284.7" y="839"/>
      <point x="2272.7" y="770" type="qcurve" smooth="yes"/>
      <point x="2181.7" y="244" type="line" smooth="yes"/>
      <point x="2169.7" y="179"/>
      <point x="2116.7" y="83"/>
      <point x="2030.7" y="20"/>
      <point x="1910.7" y="-10"/>
      <point x="1830.7" y="-10" type="qcurve" smooth="yes"/>
      <point x="914.701" y="-10" type="line" smooth="yes"/>
      <point x="807.701" y="-10"/>
      <point x="683.701" y="45"/>
      <point x="660.701" y="102" type="qcurve"/>
      <point x="567.701" y="-428" type="line"/>
    </contour>
    <contour>
      <point x="707.701" y="372" type="line"/>
      <point x="1679.7" y="372" type="line"/>
      <point x="1679.7" y="372"/>
      <point x="1679.7" y="372"/>
      <point x="1679.7" y="372" type="qcurve"/>
      <point x="1728.7" y="652" type="line"/>
      <point x="1728.7" y="652"/>
      <point x="1728.7" y="652"/>
      <point x="1728.7" y="652" type="qcurve"/>
      <point x="756.701" y="652" type="line"/>
    </contour>
  </outline>
</glyph>
<glyph name="r" format="2">
  <advance width="2072" height="1448"/>
  <unicode hex="0072"/>
  <anchor x="1195" y="1174" name="top"/>
  <anchor x="355" y="-150" name="bottom"/>
  <anchor x="108" y="512" name="left"/>
  <outline>
    <contour>
      <point x="118.701" y="0" type="line"/>
      <point x="297.701" y="1024" type="line"/>
      <point x="821.701" y="1024" type="line"/>
      <point x="803.701" y="920" type="line"/>
      <point x="844.701" y="974"/>
      <point x="989.701" y="1024"/>
      <point x="1107.7" y="1024" type="qcurve" smooth="yes"/>
      <point x="1671.7" y="1024" type="line" smooth="yes"/>
      <point x="1767.7" y="1024"/>
      <point x="1900.7" y="989"/>
      <point x="1977.7" y="915"/>
      <point x="2000.7" y="802"/>
      <point x="1986.7" y="724" type="qcurve" smooth="yes"/>
      <point x="1963.7" y="590" type="line"/>
      <point x="1422.7" y="492" type="line"/>
      <point x="1439.7" y="592" type="line"/>
      <point x="1439.7" y="592"/>
      <point x="1439.7" y="592"/>
      <point x="1439.7" y="592" type="qcurve"/>
      <point x="745.701" y="592" type="line"/>
      <point x="642.701" y="0" type="line"/>
    </contour>
  </outline>
  <guideline y="988"/>
  <guideline y="870"/>
</glyph>
<glyph name="t" format="2">
  <advance width="1476"/>
  <unicode hex="0074"/>
  <anchor x="858" y="1394" name="top"/>
  <anchor x="587" y="-160" name="bottom"/>
  <anchor x="1017" y="1400" name="right"/>
  <outline>
    <contour>
      <point x="553.416" y="-10" type="line" smooth="yes"/>
      <point x="471.416" y="-10"/>
      <point x="359.416" y="18"/>
      <point x="297.416" y="80"/>
      <point x="280.416" y="177"/>
      <point x="292.416" y="246" type="qcurve" smooth="yes"/>
      <point x="375.416" y="722" type="line"/>
      <point x="102.416" y="722" type="line"/>
      <point x="155.416" y="1024" type="line"/>
      <point x="428.416" y="1024" type="line"/>
      <point x="466.416" y="1244" type="line"/>
      <point x="990.416" y="1244" type="line"/>
      <point x="952.416" y="1024" type="line"/>
      <point x="1432.42" y="1024" type="line"/>
      <point x="1379.42" y="722" type="line"/>
      <point x="899.416" y="722" type="line"/>
      <point x="824.416" y="292" type="line"/>
      <point x="824.416" y="292"/>
      <point x="824.416" y="292"/>
      <point x="824.416" y="292" type="qcurve"/>
      <point x="1249.42" y="292" type="line"/>
      <point x="1246.42" y="-10" type="line"/>
    </contour>
  </outline>
</glyph>
<glyph name="u" format="2">
  <advance width="2308"/>
  <unicode hex="0075"/>
  <anchor x="1239" y="1174" name="top"/>
  <anchor x="1008" y="-150" name="bottom"/>
  <anchor x="1198" y="0" name="ogonek"/>
  <anchor x="2134" y="1024" name="horn"/>
  <outline>
    <contour>
      <point x="147.701" y="204" type="line"/>
      <point x="290.701" y="1024" type="line"/>
      <point x="814.701" y="1024" type="line"/>
      <point x="707.701" y="412" type="line"/>
      <point x="707.701" y="412"/>
      <point x="707.701" y="412"/>
      <point x="707.701" y="412" type="qcurve"/>
      <point x="1502.7" y="412" type="line"/>
      <point x="1502.7" y="412"/>
      <point x="1502.7" y="412"/>
      <point x="1502.7" y="412" type="qcurve"/>
      <point x="1609.7" y="1024" type="line"/>
      <point x="2133.7" y="1024" type="line"/>
      <point x="1990.7" y="204" type="line" smooth="yes"/>
      <point x="1979.7" y="141"/>
      <point x="1931.7" y="62"/>
      <point x="1859.7" y="17"/>
      <point x="1765.7" y="0"/>
      <point x="1708.7" y="0" type="qcurve" smooth="yes"/>
      <point x="355.701" y="0" type="line" smooth="yes"/>
      <point x="298.701" y="0"/>
      <point x="210.701" y="17"/>
      <point x="155.701" y="62"/>
      <point x="136.701" y="141"/>
      <point x="147.701" y="204" type="qcurve"/>
    </contour>
  </outline>
</glyph>
<glyph name="v" format="2">
  <advance width="2116"/>
  <unicode hex="0076"/>
  <anchor x="1144" y="1174" name="top"/>
  <anchor x="913" y="-150" name="bottom"/>
  <outline>
    <contour>
      <point x="723" y="0" type="line"/>
      <point x="1175" y="0" type="line"/>
      <point x="2164" y="1024" type="line"/>
      <point x="1574" y="1024" type="line"/>
      <point x="1035" y="464" type="line"/>
      <point x="692" y="1024" type="line"/>
      <point x="72" y="1024" type="line"/>
    </contour>
  </outline>
</glyph>
<glyph name="w" format="2">
  <advance width="2952"/>
  <unicode hex="0077"/>
  <anchor x="1627" y="1174" name="top"/>
  <anchor x="1372" y="-150" name="bottom"/>
  <outline>
    <contour>
      <point x="552.416" y="0" type="line"/>
      <point x="72.4159" y="1024" type="line"/>
      <point x="685.416" y="1024" type="line"/>
      <point x="1000.42" y="248" type="line"/>
      <point x="957.416" y="0" type="line"/>
    </contour>
    <contour>
      <point x="726.416" y="0" type="line"/>
      <point x="769.416" y="248" type="line"/>
      <point x="1354.42" y="1024" type="line"/>
      <point x="1675.42" y="1024" type="line"/>
      <point x="1625.42" y="738" type="line"/>
      <point x="1076.42" y="0" type="line"/>
    </contour>
    <contour>
      <point x="1737.42" y="0" type="line"/>
      <point x="1422.42" y="738" type="line"/>
      <point x="1472.42" y="1024" type="line"/>
      <point x="1854.42" y="1024" type="line"/>
      <point x="2184.42" y="248" type="line"/>
      <point x="2141.42" y="0" type="line"/>
    </contour>
    <contour>
      <point x="1845.42" y="0" type="line"/>
      <point x="1888.42" y="248" type="line"/>
      <point x="2472.42" y="1024" type="line"/>
      <point x="3000.42" y="1024" type="line"/>
      <point x="2199.42" y="0" type="line"/>
    </contour>
  </outline>
</glyph>
<glyph name="x" format="2">
  <advance width="2244.71"/>
  <unicode hex="0078"/>
  <anchor x="1206.86" y="1174" name="top"/>
  <anchor x="975.857" y="-150" name="bottom"/>
  <outline>
    <contour>
      <point x="-108.143" y="0" type="line"/>
      <point x="666.857" y="0" type="line"/>
      <point x="1038.86" y="269" type="line"/>
      <point x="1334.86" y="0" type="line"/>
      <point x="2112.86" y="0" type="line"/>
      <point x="1434.86" y="529" type="line"/>
      <point x="2260.86" y="1024" type="line"/>
      <point x="1487.86" y="1024" type="line"/>
      <point x="1138.86" y="783" type="line"/>
      <point x="881.857" y="1024" type="line"/>
      <point x="96.8571" y="1024" type="line"/>
      <point x="736.857" y="521" type="line"/>
    </contour>
  </outline>
</glyph>
<glyph name="y" format="2">
  <advance width="2114"/>
  <unicode hex="0079"/>
  <anchor x="1145" y="1174" name="top"/>
  <anchor x="1567" y="-100" name="bottom"/>
  <outline>
    <contour>
      <point x="-82.5841" y="-428" type="line"/>
      <point x="361.416" y="-428" type="line" smooth="yes"/>
      <point x="489.416" y="-428"/>
      <point x="681.416" y="-394"/>
      <point x="848.416" y="-311"/>
      <point x="1012.42" y="-172"/>
      <point x="1112.42" y="-68" type="qcurve" smooth="yes"/>
      <point x="2162.42" y="1024" type="line"/>
      <point x="1572.42" y="1024" type="line"/>
      <point x="1034.42" y="456" type="line"/>
      <point x="682.416" y="1024" type="line"/>
      <point x="72.4159" y="1024" type="line"/>
      <point x="673.416" y="76" type="line"/>
      <point x="524.416" y="-80" type="line"/>
      <point x="524.416" y="-80"/>
      <point x="524.416" y="-80"/>
      <point x="524.416" y="-80"/>
      <point x="524.416" y="-80"/>
      <point x="524.416" y="-80" type="qcurve"/>
      <point x="-94.5841" y="-80" type="line"/>
    </contour>
  </outline>
</glyph>
<glyph name="z" format="2">
  <advance width="1992.4"/>
  <unicode hex="007A"/>
  <anchor x="1081" y="1174" name="top"/>
  <anchor x="850" y="-150" name="bottom"/>
  <outline>
    <contour>
      <point x="-1.5272" y="0" type="line"/>
      <point x="1753.47" y="0" type="line"/>
      <point x="1809.47" y="322" type="line"/>
      <point x="949.473" y="322" type="line"/>
      <point x="951.473" y="316" type="line"/>
      <point x="1873.47" y="837" type="line"/>
      <point x="1905.47" y="1024" type="line"/>
      <point x="237.473" y="1024" type="line"/>
      <point x="181.473" y="702" type="line"/>
      <point x="954.473" y="702" type="line"/>
      <point x="952.473" y="708" type="line"/>
      <point x="30.4728" y="187" type="line"/>
    </contour>
  </outline>
</glyph>
<glyph name="braceleft" format="2">
  <advance width="1275"/>
  <unicode hex="007B"/>
  <outline>
    <contour>
      <point x="276.737" y="18" type="line"/>
      <point x="318.737" y="257" type="line" smooth="yes"/>
      <point x="325.737" y="298"/>
      <point x="313.737" y="364"/>
      <point x="267.737" y="410"/>
      <point x="184.737" y="435"/>
      <point x="119.737" y="435" type="qcurve"/>
      <point x="175.737" y="759" type="line"/>
      <point x="240.737" y="759"/>
      <point x="332.737" y="784"/>
      <point x="394.737" y="831"/>
      <point x="429.737" y="897"/>
      <point x="436.737" y="937" type="qcurve" smooth="yes"/>
      <point x="476.737" y="1164" type="line" smooth="yes"/>
      <point x="488.737" y="1232"/>
      <point x="548.737" y="1337"/>
      <point x="639.737" y="1410"/>
      <point x="756.737" y="1448"/>
      <point x="823.737" y="1448" type="qcurve" smooth="yes"/>
      <point x="1356.74" y="1448" type="line"/>
      <point x="1295.74" y="1098" type="line"/>
      <point x="1026.74" y="1098" type="line" smooth="yes"/>
      <point x="993.737" y="1098"/>
      <point x="945.737" y="1085"/>
      <point x="911.737" y="1057"/>
      <point x="890.737" y="1015"/>
      <point x="885.737" y="986" type="qcurve" smooth="yes"/>
      <point x="866.737" y="877" type="line" smooth="yes"/>
      <point x="847.737" y="766"/>
      <point x="718.737" y="624"/>
      <point x="617.737" y="597" type="qcurve"/>
      <point x="663.737" y="584"/>
      <point x="729.737" y="534"/>
      <point x="767.737" y="464"/>
      <point x="778.737" y="373"/>
      <point x="768.737" y="317" type="qcurve" smooth="yes"/>
      <point x="749.737" y="206" type="line" smooth="yes"/>
      <point x="744.737" y="177"/>
      <point x="750.737" y="135"/>
      <point x="774.737" y="107"/>
      <point x="818.737" y="94"/>
      <point x="851.737" y="94" type="qcurve" smooth="yes"/>
      <point x="1120.74" y="94" type="line"/>
      <point x="1059.74" y="-256" type="line"/>
      <point x="526.737" y="-256" type="line" smooth="yes"/>
      <point x="459.737" y="-256"/>
      <point x="355.737" y="-218"/>
      <point x="289.737" y="-147"/>
      <point x="265.737" y="-46"/>
      <point x="276.737" y="18" type="qcurve"/>
    </contour>
  </outline>
</glyph>
<glyph name="bar" format="2">
  <advance width="1041"/>
  <unicode hex="007C"/>
  <outline>
    <contour>
      <point x="465" y="1520" type="line"/>
      <point x="865" y="1520" type="line"/>
      <point x="516" y="-480" type="line"/>
      <point x="116" y="-480" type="line"/>
    </contour>
  </outline>
</glyph>
<glyph name="asciitilde" format="2">
  <advance width="1712.12"/>
  <unicode hex="007E"/>
  <outline>
    <contour>
      <point x="-1" y="393" type="line"/>
      <point x="17" y="443"/>
      <point x="69" y="546"/>
      <point x="139" y="643"/>
      <point x="227" y="729"/>
      <point x="335" y="793"/>
      <point x="463" y="830"/>
      <point x="537" y="830" type="qcurve" smooth="yes"/>
      <point x="598" y="830"/>
      <point x="714" y="801"/>
      <point x="823" y="758"/>
      <point x="927" y="707"/>
      <point x="1024" y="664"/>
      <point x="1116" y="635"/>
      <point x="1158" y="635" type="qcurve" smooth="yes"/>
      <point x="1224" y="635"/>
      <point x="1313" y="686"/>
      <point x="1369" y="752"/>
      <point x="1397" y="816"/>
      <point x="1402" y="829" type="qcurve"/>
      <point x="1680" y="782" type="line"/>
      <point x="1663" y="732"/>
      <point x="1611" y="629"/>
      <point x="1541" y="532"/>
      <point x="1453" y="446"/>
      <point x="1345" y="382"/>
      <point x="1217" y="345"/>
      <point x="1142" y="345" type="qcurve" smooth="yes"/>
      <point x="1082" y="345"/>
      <point x="966" y="374"/>
      <point x="856" y="417"/>
      <point x="753" y="468"/>
      <point x="655" y="511"/>
      <point x="564" y="540"/>
      <point x="521" y="540" type="qcurve" smooth="yes"/>
      <point x="455" y="540"/>
      <point x="366" y="490"/>
      <point x="311" y="424"/>
      <point x="283" y="360"/>
      <point x="277" y="346" type="qcurve"/>
    </contour>
  </outline>
</glyph>
<glyph name="currency" format="2">
  <advance width="2785" height="1448"/>
  <unicode hex="00A4"/>
  <outline>
    <contour>
      <point x="148" y="-80" type="line"/>
      <point x="502" y="179" type="line"/>
      <point x="522" y="176"/>
      <point x="566" y="173"/>
      <point x="591" y="173" type="qcurve" smooth="yes"/>
      <point x="2015" y="173" type="line" smooth="yes"/>
      <point x="2040" y="173"/>
      <point x="2086" y="176"/>
      <point x="2107" y="179" type="qcurve"/>
      <point x="2370" y="-80" type="line"/>
      <point x="2558" y="105" type="line"/>
      <point x="2333" y="326" type="line"/>
      <point x="2345" y="350"/>
      <point x="2361" y="405"/>
      <point x="2367" y="437" type="qcurve" smooth="yes"/>
      <point x="2459" y="963" type="line" smooth="yes"/>
      <point x="2464" y="992"/>
      <point x="2466" y="1042"/>
      <point x="2463" y="1064" type="qcurve"/>
      <point x="2764" y="1285" type="line"/>
      <point x="2641" y="1470" type="line"/>
      <point x="2287" y="1211" type="line"/>
      <point x="2267" y="1214"/>
      <point x="2222" y="1217"/>
      <point x="2197" y="1217" type="qcurve" smooth="yes"/>
      <point x="773" y="1217" type="line" smooth="yes"/>
      <point x="748" y="1217"/>
      <point x="703" y="1214"/>
      <point x="682" y="1211" type="qcurve"/>
      <point x="419" y="1470" type="line"/>
      <point x="230" y="1285" type="line"/>
      <point x="454" y="1064" type="line"/>
      <point x="443" y="1042"/>
      <point x="428" y="992"/>
      <point x="423" y="963" type="qcurve" smooth="yes"/>
      <point x="331" y="437" type="line" smooth="yes"/>
      <point x="325" y="405"/>
      <point x="323" y="350"/>
      <point x="327" y="327" type="qcurve"/>
      <point x="24" y="105" type="line"/>
    </contour>
    <contour>
      <point x="876" y="555" type="line"/>
      <point x="876" y="555"/>
      <point x="876" y="555"/>
      <point x="876" y="555" type="qcurve"/>
      <point x="925" y="835" type="line"/>
      <point x="925" y="835"/>
      <point x="925" y="835"/>
      <point x="925" y="835" type="qcurve"/>
      <point x="1913" y="835" type="line"/>
      <point x="1913" y="835"/>
      <point x="1913" y="835"/>
      <point x="1913" y="835" type="qcurve"/>
      <point x="1864" y="555" type="line"/>
      <point x="1864" y="555"/>
      <point x="1864" y="555"/>
      <point x="1864" y="555" type="qcurve"/>
    </contour>
  </outline>
</glyph>
<glyph name="yen" format="2">
  <advance width="2873"/>
  <unicode hex="00A5"/>
  <outline>
    <component base="Y" yxScale="-0.0018" xOffset="-6.85533"/>
    <contour>
      <point x="317" y="560" type="line"/>
      <point x="2513" y="560" type="line"/>
      <point x="2541" y="720" type="line"/>
      <point x="345" y="720" type="line"/>
    </contour>
    <contour>
      <point x="271" y="300" type="line"/>
      <point x="2467" y="300" type="line"/>
      <point x="2495" y="460" type="line"/>
      <point x="299" y="460" type="line"/>
    </contour>
  </outline>
</glyph>
<glyph name="section" format="2">
  <advance width="2482"/>
  <unicode hex="00A7"/>
  <outline>
    <contour>
      <point x="220" y="107" type="line"/>
      <point x="758" y="188" type="line"/>
      <point x="745" y="114" type="line"/>
      <point x="745" y="114"/>
      <point x="745" y="114"/>
      <point x="745" y="114" type="qcurve"/>
      <point x="1545" y="114" type="line"/>
      <point x="1545" y="114"/>
      <point x="1545" y="114"/>
      <point x="1545" y="114" type="qcurve"/>
      <point x="1565" y="230" type="line"/>
      <point x="1565" y="230"/>
      <point x="1565" y="230"/>
      <point x="1565" y="230" type="qcurve"/>
      <point x="399" y="230" type="line" smooth="yes"/>
      <point x="335" y="230"/>
      <point x="237" y="257"/>
      <point x="176" y="318"/>
      <point x="156" y="417"/>
      <point x="168" y="488" type="qcurve" smooth="yes"/>
      <point x="212" y="740" type="line" smooth="yes"/>
      <point x="224" y="810"/>
      <point x="279" y="898"/>
      <point x="361" y="948"/>
      <point x="469" y="966"/>
      <point x="534" y="966" type="qcurve" smooth="yes"/>
      <point x="1522" y="966" type="line"/>
      <point x="1476" y="704" type="line"/>
      <point x="730" y="704" type="line"/>
      <point x="730" y="704"/>
      <point x="730" y="704"/>
      <point x="730" y="704" type="qcurve"/>
      <point x="703" y="548" type="line"/>
      <point x="703" y="548"/>
      <point x="703" y="548"/>
      <point x="703" y="548" type="qcurve"/>
      <point x="1867" y="548" type="line" smooth="yes"/>
      <point x="1929" y="548"/>
      <point x="2029" y="532"/>
      <point x="2093" y="484"/>
      <point x="2118" y="397"/>
      <point x="2106" y="326" type="qcurve" smooth="yes"/>
      <point x="2062" y="74" type="line" smooth="yes"/>
      <point x="2049" y="2"/>
      <point x="1994" y="-89"/>
      <point x="1912" y="-140"/>
      <point x="1806" y="-158"/>
      <point x="1741" y="-158" type="qcurve" smooth="yes"/>
      <point x="449" y="-158" type="line" smooth="yes"/>
      <point x="385" y="-158"/>
      <point x="286" y="-136"/>
      <point x="225" y="-82"/>
      <point x="203" y="12"/>
      <point x="216" y="84" type="qcurve" smooth="yes"/>
    </contour>
    <contour>
      <point x="1721" y="548" type="line"/>
      <point x="1721" y="548"/>
      <point x="1721" y="548"/>
      <point x="1721" y="548" type="qcurve"/>
      <point x="1748" y="704" type="line"/>
      <point x="1748" y="704"/>
      <point x="1748" y="704"/>
      <point x="1748" y="704"/>
      <point x="1748" y="704"/>
      <point x="1748" y="704" type="qcurve"/>
      <point x="1031" y="704" type="line"/>
      <point x="622" y="704" type="line" smooth="yes"/>
      <point x="558" y="704"/>
      <point x="460" y="731"/>
      <point x="399" y="792"/>
      <point x="379" y="891"/>
      <point x="391" y="962" type="qcurve" smooth="yes"/>
      <point x="428" y="1174" type="line" smooth="yes"/>
      <point x="440" y="1244"/>
      <point x="494" y="1332"/>
      <point x="576" y="1382"/>
      <point x="684" y="1400"/>
      <point x="749" y="1400" type="qcurve" smooth="yes"/>
      <point x="1997" y="1400" type="line" smooth="yes"/>
      <point x="2062" y="1400"/>
      <point x="2163" y="1379"/>
      <point x="2227" y="1327"/>
      <point x="2251" y="1237"/>
      <point x="2239" y="1168" type="qcurve" smooth="yes"/>
      <point x="2234" y="1141" type="line"/>
      <point x="1696" y="1060" type="line"/>
      <point x="1706" y="1118" type="line"/>
      <point x="1706" y="1118"/>
      <point x="1706" y="1118"/>
      <point x="1706" y="1118" type="qcurve"/>
      <point x="942" y="1118" type="line"/>
      <point x="942" y="1118"/>
      <point x="942" y="1118"/>
      <point x="942" y="1118" type="qcurve"/>
      <point x="925" y="1022" type="line"/>
      <point x="925" y="1022"/>
      <point x="925" y="1022"/>
      <point x="925" y="1022" type="qcurve"/>
      <point x="2049" y="1022" type="line" smooth="yes"/>
      <point x="2111" y="1022"/>
      <point x="2211" y="1006"/>
      <point x="2276" y="958"/>
      <point x="2301" y="871"/>
      <point x="2289" y="800" type="qcurve" smooth="yes"/>
      <point x="2238" y="508" type="line" smooth="yes"/>
      <point x="2225" y="436"/>
      <point x="2170" y="346"/>
      <point x="2088" y="295"/>
      <point x="1982" y="276"/>
      <point x="1917" y="276" type="qcurve" smooth="yes"/>
      <point x="1355" y="276" type="line"/>
      <point x="1403" y="548" type="line"/>
    </contour>
  </outline>
</glyph>
<glyph name="copyright" format="2">
  <advance width="3049"/>
  <unicode hex="00A9"/>
  <outline>
    <contour>
      <point x="569" y="548" type="line"/>
      <point x="623" y="862" type="line" smooth="yes"/>
      <point x="635" y="932"/>
      <point x="689" y="1030"/>
      <point x="779" y="1093"/>
      <point x="908" y="1122"/>
      <point x="995" y="1122" type="qcurve" smooth="yes"/>
      <point x="2187" y="1122" type="line" smooth="yes"/>
      <point x="2274" y="1122"/>
      <point x="2391" y="1094"/>
      <point x="2458" y="1032"/>
      <point x="2476" y="935"/>
      <point x="2464" y="866" type="qcurve" smooth="yes"/>
      <point x="2458" y="832" type="line"/>
      <point x="2019" y="745" type="line"/>
      <point x="2027" y="790" type="line"/>
      <point x="2027" y="790"/>
      <point x="2027" y="790"/>
      <point x="2027" y="790" type="qcurve"/>
      <point x="1045" y="790" type="line"/>
      <point x="1045" y="790"/>
      <point x="1045" y="790"/>
      <point x="1045" y="790" type="qcurve"/>
      <point x="1013" y="610" type="line"/>
      <point x="1013" y="610"/>
      <point x="1013" y="610"/>
      <point x="1013" y="610" type="qcurve"/>
      <point x="1999" y="610" type="line"/>
      <point x="1999" y="610"/>
      <point x="1999" y="610"/>
      <point x="1999" y="610" type="qcurve"/>
      <point x="2009" y="662" type="line"/>
      <point x="2417" y="575" type="line"/>
      <point x="2413" y="548" type="line"/>
      <point x="2400" y="475"/>
      <point x="2348" y="373"/>
      <point x="2259" y="308"/>
      <point x="2131" y="278"/>
      <point x="2042" y="278" type="qcurve" smooth="yes"/>
      <point x="846" y="278" type="line" smooth="yes"/>
      <point x="758" y="278"/>
      <point x="639" y="308"/>
      <point x="573" y="373"/>
      <point x="556" y="475"/>
      <point x="569" y="548" type="qcurve"/>
    </contour>
    <contour>
      <point x="351" y="1044" type="line" smooth="yes"/>
      <point x="369" y="1144"/>
      <point x="446" y="1273"/>
      <point x="565" y="1348"/>
      <point x="723" y="1378"/>
      <point x="822" y="1378" type="qcurve" smooth="yes"/>
      <point x="2438" y="1378" type="line" smooth="yes"/>
      <point x="2537" y="1378"/>
      <point x="2686" y="1351"/>
      <point x="2779" y="1278"/>
      <point x="2811" y="1148"/>
      <point x="2793" y="1044" type="qcurve" smooth="yes"/>
      <point x="2675" y="368" type="line" smooth="yes"/>
      <point x="2657" y="265"/>
      <point x="2579" y="131"/>
      <point x="2459" y="53"/>
      <point x="2300" y="22"/>
      <point x="2201" y="22" type="qcurve" smooth="yes"/>
      <point x="585" y="22" type="line" smooth="yes"/>
      <point x="486" y="22"/>
      <point x="338" y="52"/>
      <point x="246" y="130"/>
      <point x="215" y="264"/>
      <point x="233" y="368" type="qcurve" smooth="yes"/>
    </contour>
    <contour>
      <point x="546" y="1050" type="line"/>
      <point x="427" y="367" type="line" smooth="yes"/>
      <point x="418" y="315"/>
      <point x="435" y="247"/>
      <point x="484" y="207"/>
      <point x="563" y="192"/>
      <point x="615" y="192" type="qcurve" smooth="yes"/>
      <point x="2231" y="192" type="line" smooth="yes"/>
      <point x="2284" y="192"/>
      <point x="2368" y="207"/>
      <point x="2431" y="246"/>
      <point x="2472" y="314"/>
      <point x="2481" y="366" type="qcurve" smooth="yes"/>
      <point x="2600" y="1051" type="line" smooth="yes"/>
      <point x="2608" y="1098"/>
      <point x="2590" y="1159"/>
      <point x="2540" y="1194"/>
      <point x="2461" y="1208"/>
      <point x="2408" y="1208" type="qcurve" smooth="yes"/>
      <point x="792" y="1208" type="line" smooth="yes"/>
      <point x="740" y="1208"/>
      <point x="656" y="1194"/>
      <point x="594" y="1159"/>
      <point x="554" y="1098"/>
      <point x="546" y="1050" type="qcurve"/>
    </contour>
  </outline>
</glyph>
<glyph name="ordfeminine" format="2">
  <advance width="1576"/>
  <unicode hex="00AA"/>
  <outline>
    <contour>
      <point x="373" y="788" type="line" smooth="yes"/>
      <point x="333" y="788"/>
      <point x="265" y="804"/>
      <point x="219" y="842"/>
      <point x="200" y="906"/>
      <point x="209" y="954" type="qcurve"/>
      <point x="222" y="1032" type="line" smooth="yes"/>
      <point x="230" y="1080"/>
      <point x="271" y="1141"/>
      <point x="330" y="1177"/>
      <point x="403" y="1191"/>
      <point x="443" y="1191" type="qcurve" smooth="yes"/>
      <point x="1151" y="1191" type="line"/>
      <point x="1163" y="1263" type="line"/>
      <point x="1163" y="1263"/>
      <point x="1163" y="1263"/>
      <point x="1163" y="1263" type="qcurve"/>
      <point x="617" y="1263" type="line"/>
      <point x="617" y="1263"/>
      <point x="617" y="1263"/>
      <point x="617" y="1263" type="qcurve"/>
      <point x="611" y="1228" type="line"/>
      <point x="282" y="1290" type="line"/>
      <point x="284" y="1303" type="line" smooth="yes"/>
      <point x="293" y="1351"/>
      <point x="332" y="1416"/>
      <point x="390" y="1455"/>
      <point x="465" y="1472"/>
      <point x="508" y="1472" type="qcurve" smooth="yes"/>
      <point x="1347" y="1472" type="line" smooth="yes"/>
      <point x="1390" y="1472"/>
      <point x="1458" y="1457"/>
      <point x="1502" y="1417"/>
      <point x="1518" y="1347"/>
      <point x="1509" y="1292" type="qcurve" smooth="yes"/>
      <point x="1422" y="795" type="line"/>
      <point x="1082" y="795" type="line"/>
      <point x="1099" y="893" type="line"/>
      <point x="1086" y="863"/>
      <point x="1045" y="823"/>
      <point x="992" y="798"/>
      <point x="931" y="788"/>
      <point x="896" y="788" type="qcurve" smooth="yes"/>
    </contour>
    <contour>
      <point x="551" y="966" type="line"/>
      <point x="551" y="966"/>
      <point x="551" y="966"/>
      <point x="551" y="966" type="qcurve"/>
      <point x="1112" y="966" type="line"/>
      <point x="1124" y="1037" type="line"/>
      <point x="563" y="1037" type="line"/>
      <point x="563" y="1037"/>
      <point x="563" y="1037"/>
      <point x="563" y="1037" type="qcurve"/>
    </contour>
  </outline>
  <guideline y="36"/>
  <guideline y="262"/>
  <guideline y="36"/>
  <guideline y="262"/>
</glyph>
<glyph name="logicalnot" format="2">
  <advance width="2030"/>
  <unicode hex="00AC"/>
  <outline>
    <contour>
      <point x="1736" y="192" type="line"/>
      <point x="1414" y="192" type="line"/>
      <point x="1501" y="692" type="line"/>
      <point x="209" y="692" type="line"/>
      <point x="259" y="982" type="line"/>
      <point x="1873" y="982" type="line"/>
    </contour>
  </outline>
</glyph>
<glyph name="registered" format="2">
  <advance width="1194"/>
  <unicode hex="00AE"/>
  <outline>
    <contour>
      <point x="178" y="1057" type="line"/>
      <point x="240" y="1410" type="line" smooth="yes"/>
      <point x="252" y="1479"/>
      <point x="341" y="1552"/>
      <point x="409" y="1552" type="qcurve" smooth="yes"/>
      <point x="1089" y="1552" type="line" smooth="yes"/>
      <point x="1159" y="1552"/>
      <point x="1221" y="1479"/>
      <point x="1209" y="1410" type="qcurve" smooth="yes"/>
      <point x="1147" y="1057" type="line" smooth="yes"/>
      <point x="1135" y="988"/>
      <point x="1048" y="914"/>
      <point x="978" y="914" type="qcurve" smooth="yes"/>
      <point x="298" y="914" type="line" smooth="yes"/>
      <point x="230" y="914"/>
      <point x="166" y="988"/>
      <point x="178" y="1057" type="qcurve"/>
    </contour>
    <contour>
      <point x="324" y="1395" type="line"/>
      <point x="268" y="1072" type="line" smooth="yes"/>
      <point x="261" y="1032"/>
      <point x="292" y="990"/>
      <point x="331" y="990" type="qcurve" smooth="yes"/>
      <point x="985" y="990" type="line" smooth="yes"/>
      <point x="1025" y="990"/>
      <point x="1056" y="1032"/>
      <point x="1063" y="1072" type="qcurve" smooth="yes"/>
      <point x="1119" y="1395" type="line" smooth="yes"/>
      <point x="1127" y="1435"/>
      <point x="1096" y="1476"/>
      <point x="1056" y="1476" type="qcurve" smooth="yes"/>
      <point x="416" y="1476" type="line" smooth="yes"/>
      <point x="377" y="1476"/>
      <point x="332" y="1435"/>
      <point x="324" y="1395" type="qcurve"/>
    </contour>
    <contour>
      <point x="405" y="1400" type="line"/>
      <point x="949" y="1400" type="line" smooth="yes"/>
      <point x="993" y="1400"/>
      <point x="1042" y="1369"/>
      <point x="1034" y="1321" type="qcurve" smooth="yes"/>
      <point x="1019" y="1239" type="line" smooth="yes"/>
      <point x="1015" y="1216"/>
      <point x="996" y="1185"/>
      <point x="967" y="1167"/>
      <point x="930" y="1160"/>
      <point x="907" y="1160" type="qcurve" smooth="yes"/>
      <point x="839" y="1160" type="line"/>
      <point x="1005" y="1060" type="line"/>
      <point x="814" y="1060" type="line"/>
      <point x="671" y="1156" type="line"/>
      <point x="490" y="1156" type="line"/>
      <point x="473" y="1060" type="line"/>
      <point x="346" y="1060" type="line"/>
    </contour>
    <contour>
      <point x="507" y="1255" type="line"/>
      <point x="878" y="1255" type="line" smooth="yes"/>
      <point x="887" y="1255"/>
      <point x="896" y="1263"/>
      <point x="897" y="1271" type="qcurve" smooth="yes"/>
      <point x="899" y="1285" type="line"/>
      <point x="901" y="1293"/>
      <point x="895" y="1301"/>
      <point x="886" y="1301" type="qcurve" smooth="yes"/>
      <point x="515" y="1301" type="line"/>
    </contour>
  </outline>
</glyph>
<glyph name="plusminus" format="2">
  <advance width="2029"/>
  <unicode hex="00B1"/>
  <outline>
    <contour>
      <point x="1874" y="984" type="line"/>
      <point x="1823" y="694" type="line"/>
      <point x="1177" y="694" type="line"/>
      <point x="1125" y="398" type="line"/>
      <point x="803" y="398" type="line"/>
      <point x="855" y="694" type="line"/>
      <point x="209" y="694" type="line"/>
      <point x="260" y="984" type="line"/>
      <point x="906" y="984" type="line"/>
      <point x="957" y="1280" type="line"/>
      <point x="1279" y="1280" type="line"/>
      <point x="1228" y="984" type="line"/>
    </contour>
    <contour>
      <point x="87" y="0" type="line"/>
      <point x="137" y="290" type="line"/>
      <point x="1751" y="290" type="line"/>
      <point x="1701" y="0" type="line"/>
    </contour>
  </outline>
</glyph>
<glyph name="uni00B5" format="2">
  <advance width="2318.84"/>
  <unicode hex="00B5"/>
  <outline>
    <contour>
      <point x="44" y="-428" type="line"/>
      <point x="483" y="-378" type="line"/>
      <point x="569" y="112" type="line"/>
      <point x="593" y="53"/>
      <point x="712" y="0"/>
      <point x="823" y="0" type="qcurve" smooth="yes"/>
      <point x="1166" y="0" type="line" smooth="yes"/>
      <point x="1218" y="0"/>
      <point x="1313" y="16"/>
      <point x="1392" y="53"/>
      <point x="1455" y="114"/>
      <point x="1476" y="160" type="qcurve"/>
      <point x="1448" y="0" type="line"/>
      <point x="1962" y="0" type="line"/>
      <point x="2141" y="1024" type="line"/>
      <point x="1627" y="1024" type="line"/>
      <point x="1511" y="362" type="line"/>
      <point x="1511" y="362"/>
      <point x="1511" y="362"/>
      <point x="1511" y="362"/>
      <point x="1511" y="362"/>
      <point x="1511" y="362" type="qcurve"/>
      <point x="696" y="362" type="line"/>
      <point x="696" y="362"/>
      <point x="696" y="362"/>
      <point x="696" y="362"/>
      <point x="696" y="362"/>
      <point x="696" y="362" type="qcurve"/>
      <point x="812" y="1024" type="line"/>
      <point x="298" y="1024" type="line"/>
    </contour>
  </outline>
</glyph>
<glyph name="paragraph" format="2">
  <advance width="2529.96"/>
  <unicode hex="00B6"/>
  <outline>
    <contour>
      <point x="2090" y="0" type="line"/>
      <point x="1898" y="0" type="line"/>
      <point x="2114" y="1238" type="line"/>
      <point x="1826" y="1238" type="line"/>
      <point x="1610" y="0" type="line"/>
      <point x="1418" y="0" type="line"/>
      <point x="1479" y="350" type="line"/>
      <point x="547" y="350" type="line" smooth="yes"/>
      <point x="452" y="350"/>
      <point x="304" y="377"/>
      <point x="209" y="449"/>
      <point x="172" y="576"/>
      <point x="190" y="676" type="qcurve" smooth="yes"/>
      <point x="258" y="1066" type="line" smooth="yes"/>
      <point x="276" y="1167"/>
      <point x="357" y="1296"/>
      <point x="478" y="1371"/>
      <point x="635" y="1400"/>
      <point x="730" y="1400" type="qcurve" smooth="yes"/>
      <point x="2334" y="1400" type="line"/>
    </contour>
  </outline>
  <guideline angle="90" color="0.4,0.4,0.4,1" name="halfwidth" x="1264.98" y="0"/>
</glyph>
<glyph name="periodcentered" format="2">
  <advance width="994"/>
  <unicode hex="00B7"/>
  <outline>
    <contour>
      <point x="220" y="502" type="line"/>
      <point x="256" y="713" type="line" smooth="yes"/>
      <point x="264" y="757"/>
      <point x="284" y="811"/>
      <point x="320" y="841"/>
      <point x="377" y="851"/>
      <point x="422" y="851" type="qcurve" smooth="yes"/>
      <point x="629" y="851" type="line" smooth="yes"/>
      <point x="674" y="851"/>
      <point x="728" y="841"/>
      <point x="753" y="811"/>
      <point x="754" y="756"/>
      <point x="746" y="711" type="qcurve" smooth="yes"/>
      <point x="710" y="502" type="line" smooth="yes"/>
      <point x="702" y="457"/>
      <point x="682" y="402"/>
      <point x="646" y="371"/>
      <point x="589" y="361"/>
      <point x="544" y="361" type="qcurve" smooth="yes"/>
      <point x="336" y="361" type="line" smooth="yes"/>
      <point x="291" y="361"/>
      <point x="238" y="371"/>
      <point x="213" y="402"/>
      <point x="212" y="457"/>
      <point x="220" y="502" type="qcurve"/>
    </contour>
  </outline>
</glyph>
<glyph name="ordmasculine" format="2">
  <advance width="1601"/>
  <unicode hex="00BA"/>
  <outline>
    <contour>
      <point x="184" y="772" type="line"/>
      <point x="244" y="1117" type="line" smooth="yes"/>
      <point x="259" y="1203"/>
      <point x="368" y="1283"/>
      <point x="473" y="1283" type="qcurve" smooth="yes"/>
      <point x="1338" y="1283" type="line" smooth="yes"/>
      <point x="1443" y="1283"/>
      <point x="1524" y="1203"/>
      <point x="1509" y="1117" type="qcurve" smooth="yes"/>
      <point x="1449" y="772" type="line" smooth="yes"/>
      <point x="1433" y="682"/>
      <point x="1325" y="599"/>
      <point x="1219" y="599" type="qcurve" smooth="yes"/>
      <point x="354" y="599" type="line" smooth="yes"/>
      <point x="248" y="599"/>
      <point x="168" y="681"/>
      <point x="184" y="772" type="qcurve"/>
    </contour>
    <contour>
      <point x="537" y="848" type="line"/>
      <point x="537" y="848"/>
      <point x="537" y="848"/>
      <point x="537" y="848" type="qcurve"/>
      <point x="1122" y="848" type="line"/>
      <point x="1122" y="848"/>
      <point x="1122" y="848"/>
      <point x="1122" y="848" type="qcurve"/>
      <point x="1154" y="1034" type="line"/>
      <point x="1154" y="1034"/>
      <point x="1154" y="1034"/>
      <point x="1154" y="1034" type="qcurve"/>
      <point x="569" y="1034" type="line"/>
      <point x="569" y="1034"/>
      <point x="569" y="1034"/>
      <point x="569" y="1034" type="qcurve"/>
    </contour>
  </outline>
</glyph>
<glyph name="AE" format="2">
  <advance width="4738"/>
  <unicode hex="00C6"/>
  <anchor x="2898" y="1550" name="top"/>
  <anchor x="2131" y="-150" name="bottom"/>
  <outline>
    <contour>
      <point x="-120" y="0" type="line"/>
      <point x="1751" y="1400" type="line"/>
      <point x="4643" y="1400" type="line"/>
      <point x="4569" y="976" type="line"/>
      <point x="2835" y="976" type="line"/>
      <point x="2820" y="890" type="line"/>
      <point x="3902" y="890" type="line"/>
      <point x="3838" y="520" type="line"/>
      <point x="2756" y="520" type="line"/>
      <point x="2739" y="424" type="line"/>
      <point x="4507" y="424" type="line"/>
      <point x="4433" y="0" type="line"/>
      <point x="2093" y="0" type="line"/>
      <point x="2127" y="196" type="line"/>
      <point x="889" y="196" type="line"/>
      <point x="627" y="0" type="line"/>
    </contour>
    <contour>
      <point x="1371" y="556" type="line"/>
      <point x="2190" y="556" type="line"/>
      <point x="2260" y="956" type="line"/>
      <point x="1906" y="956" type="line"/>
    </contour>
  </outline>
</glyph>
<glyph name="Eth" format="2">
  <advance width="3042"/>
  <unicode hex="00D0"/>
  <anchor x="1368" y="1550" name="top"/>
  <anchor x="1368" y="-150" name="bottom"/>
  <outline>
    <contour>
      <point x="180.819" y="862" type="line"/>
      <point x="1438.82" y="862" type="line"/>
      <point x="1384.82" y="550" type="line"/>
      <point x="126.819" y="550" type="line"/>
    </contour>
    <contour>
      <point x="838.297" y="444" type="line"/>
      <point x="1659.3" y="444" type="line" smooth="yes"/>
      <point x="1760.3" y="444"/>
      <point x="1924.57" y="457"/>
      <point x="2054.28" y="484"/>
      <point x="2152.61" y="526"/>
      <point x="2220.73" y="584"/>
      <point x="2261.81" y="659"/>
      <point x="2270.02" y="706" type="qcurve" smooth="yes"/>
      <point x="2278.04" y="752"/>
      <point x="2262.78" y="825"/>
      <point x="2212.38" y="880"/>
      <point x="2128.36" y="920"/>
      <point x="2007.72" y="945"/>
      <point x="1848.64" y="956"/>
      <point x="1748.64" y="956" type="qcurve" smooth="yes"/>
      <point x="927.641" y="956" type="line"/>
    </contour>
    <contour>
      <point x="188.819" y="0" type="line"/>
      <point x="433.119" y="1400" type="line"/>
      <point x="2029.12" y="1400" type="line" smooth="yes"/>
      <point x="2194.12" y="1400"/>
      <point x="2454.49" y="1362"/>
      <point x="2650.05" y="1285"/>
      <point x="2780.81" y="1169"/>
      <point x="2852.59" y="1013"/>
      <point x="2865.56" y="818"/>
      <point x="2844.97" y="700" type="qcurve" smooth="yes"/>
      <point x="2823.16" y="575"/>
      <point x="2732.91" y="373"/>
      <point x="2598.86" y="218"/>
      <point x="2421.32" y="106"/>
      <point x="2199.75" y="34"/>
      <point x="1936.82" y="0"/>
      <point x="1784.82" y="0" type="qcurve" smooth="yes"/>
    </contour>
  </outline>
  <guideline x="843754"/>
  <guideline y="1549"/>
  <guideline y="1325"/>
  <guideline y="73"/>
  <guideline y="704"/>
  <guideline y="704"/>
</glyph>
<glyph name="multiply" format="2">
  <advance width="1886"/>
  <unicode hex="00D7"/>
  <outline>
    <contour>
      <point x="252" y="23" type="line"/>
      <point x="132" y="258" type="line"/>
      <point x="674" y="589" type="line"/>
      <point x="248" y="920" type="line"/>
      <point x="451" y="1156" type="line"/>
      <point x="957" y="762" type="line"/>
      <point x="1598" y="1154" type="line"/>
      <point x="1718" y="919" type="line"/>
      <point x="1179" y="589" type="line"/>
      <point x="1603" y="259" type="line"/>
      <point x="1401" y="24" type="line"/>
      <point x="896" y="417" type="line"/>
    </contour>
  </outline>
  <guideline x="252" y="23" angle="31.4327" color="1,0,0,1"/>
  <guideline x="248" y="920" angle="322.173" color="1,0,0,1"/>
</glyph>
<glyph name="Oslash" format="2">
  <advance width="3463"/>
  <unicode hex="00D8"/>
  <anchor x="1889" y="1590" name="top"/>
  <outline>
    <contour>
      <point x="467.241" y="1080" type="line"/>
      <point x="337.241" y="332" type="line" smooth="yes"/>
      <point x="319.241" y="229"/>
      <point x="350.241" y="95"/>
      <point x="442.241" y="17"/>
      <point x="590.241" y="-14"/>
      <point x="689.241" y="-14" type="qcurve" smooth="yes"/>
      <point x="2527.24" y="-14" type="line" smooth="yes"/>
      <point x="2626.24" y="-14"/>
      <point x="2785.24" y="17"/>
      <point x="2905.24" y="95"/>
      <point x="2983.24" y="229"/>
      <point x="3001.24" y="332" type="qcurve" smooth="yes"/>
      <point x="3131.24" y="1080" type="line" smooth="yes"/>
      <point x="3149.24" y="1181"/>
      <point x="3113.24" y="1310"/>
      <point x="3018.24" y="1385"/>
      <point x="2871.24" y="1414"/>
      <point x="2776.24" y="1414" type="qcurve" smooth="yes"/>
      <point x="938.241" y="1414" type="line" smooth="yes"/>
      <point x="844.241" y="1414"/>
      <point x="686.241" y="1385"/>
      <point x="565.241" y="1310"/>
      <point x="485.241" y="1181"/>
      <point x="467.241" y="1080" type="qcurve"/>
    </contour>
    <contour>
      <point x="1013.24" y="930" type="line"/>
      <point x="1013.24" y="930"/>
      <point x="1013.24" y="930"/>
      <point x="1013.24" y="930"/>
      <point x="1013.24" y="930"/>
      <point x="1013.24" y="930" type="qcurve"/>
      <point x="2533.24" y="930" type="line"/>
      <point x="2533.24" y="930"/>
      <point x="2533.24" y="930"/>
      <point x="2533.24" y="930"/>
      <point x="2533.24" y="930"/>
      <point x="2533.24" y="930" type="qcurve"/>
      <point x="2453.24" y="470" type="line"/>
      <point x="2453.24" y="470"/>
      <point x="2453.24" y="470"/>
      <point x="2453.24" y="470"/>
      <point x="2453.24" y="470"/>
      <point x="2453.24" y="470" type="qcurve"/>
      <point x="933.241" y="470" type="line"/>
      <point x="933.241" y="470"/>
      <point x="933.241" y="470"/>
      <point x="933.241" y="470"/>
      <point x="933.241" y="470"/>
      <point x="933.241" y="470" type="qcurve"/>
    </contour>
    <contour>
      <point x="241.241" y="-40" type="line"/>
      <point x="483.241" y="64" type="line"/>
      <point x="758.241" y="211" type="line"/>
      <point x="2771.24" y="1024" type="line"/>
      <point x="2988.24" y="1146" type="line"/>
      <point x="3277.24" y="1271" type="line"/>
      <point x="3226.24" y="1440" type="line"/>
      <point x="2943.24" y="1319" type="line"/>
      <point x="2732.24" y="1199" type="line"/>
      <point x="722.241" y="389" type="line"/>
      <point x="445.241" y="240" type="line"/>
      <point x="190.241" y="131" type="line"/>
    </contour>
  </outline>
  <guideline y="-40"/>
  <guideline y="-40"/>
  <guideline y="1440"/>
</glyph>
<glyph name="Thorn" format="2">
  <advance width="3167"/>
  <unicode hex="00DE"/>
  <outline>
    <contour>
      <point x="120" y="0" type="line"/>
      <point x="692" y="0" type="line"/>
      <point x="723" y="178" type="line"/>
      <point x="2439" y="178" type="line" smooth="yes"/>
      <point x="2534" y="178"/>
      <point x="2691" y="205"/>
      <point x="2812" y="277"/>
      <point x="2892" y="404"/>
      <point x="2910" y="504" type="qcurve" smooth="yes"/>
      <point x="2982" y="914" type="line"/>
      <point x="2999" y="1015"/>
      <point x="2963" y="1144"/>
      <point x="2868" y="1219"/>
      <point x="2721" y="1248"/>
      <point x="2626" y="1248" type="qcurve" smooth="yes"/>
      <point x="910" y="1248" type="line"/>
      <point x="936" y="1400" type="line"/>
      <point x="364" y="1400" type="line"/>
    </contour>
    <contour>
      <point x="803" y="638" type="line"/>
      <point x="828" y="778" type="line"/>
      <point x="2341" y="778" type="line" smooth="yes"/>
      <point x="2358" y="778"/>
      <point x="2380" y="769"/>
      <point x="2391" y="754"/>
      <point x="2394" y="732"/>
      <point x="2391" y="718" type="qcurve" smooth="yes"/>
      <point x="2388" y="698" type="line" smooth="yes"/>
      <point x="2386" y="685"/>
      <point x="2375" y="662"/>
      <point x="2358" y="647"/>
      <point x="2333" y="638"/>
      <point x="2316" y="638" type="qcurve" smooth="yes"/>
    </contour>
  </outline>
  <guideline x="1583.5" name="halfwidth" color="0.4,0.4,0.4,1"/>
</glyph>
<glyph name="germandbls" format="2">
  <advance width="2369"/>
  <unicode hex="00DF"/>
  <outline>
    <contour>
      <point x="1127" y="952" type="line"/>
      <point x="1821" y="952" type="line" smooth="yes"/>
      <point x="1902" y="952"/>
      <point x="2023" y="983"/>
      <point x="2109" y="1047"/>
      <point x="2161" y="1147"/>
      <point x="2173" y="1216" type="qcurve" smooth="yes"/>
      <point x="2175" y="1228" type="line" smooth="yes"/>
      <point x="2198" y="1359"/>
      <point x="2073" y="1482"/>
      <point x="1914" y="1482" type="qcurve" smooth="yes"/>
      <point x="678" y="1482" type="line" smooth="yes"/>
      <point x="599" y="1482"/>
      <point x="478" y="1452"/>
      <point x="392" y="1389"/>
      <point x="339" y="1293"/>
      <point x="327" y="1228" type="qcurve"/>
      <point x="113" y="0" type="line"/>
      <point x="637" y="0" type="line"/>
      <point x="843" y="1180" type="line"/>
      <point x="843" y="1180"/>
      <point x="843" y="1180"/>
      <point x="843" y="1180" type="qcurve"/>
      <point x="1643" y="1180" type="line"/>
      <point x="1643" y="1180"/>
      <point x="1643" y="1180"/>
      <point x="1643" y="1180" type="qcurve"/>
      <point x="1616" y="1024" type="line"/>
      <point x="1616" y="1024"/>
      <point x="1616" y="1024"/>
      <point x="1616" y="1024" type="qcurve"/>
      <point x="1140" y="1024" type="line"/>
    </contour>
    <contour>
      <point x="869" y="-10" type="line"/>
      <point x="1751" y="-10" type="line" smooth="yes"/>
      <point x="1816" y="-10"/>
      <point x="1922" y="9"/>
      <point x="2004" y="60"/>
      <point x="2059" y="150"/>
      <point x="2072" y="222" type="qcurve" smooth="yes"/>
      <point x="2168" y="772" type="line" smooth="yes"/>
      <point x="2180" y="843"/>
      <point x="2155" y="930"/>
      <point x="2090" y="978"/>
      <point x="1990" y="994"/>
      <point x="1928" y="994" type="qcurve" smooth="yes"/>
      <point x="1134" y="994" type="line"/>
      <point x="1073" y="642" type="line"/>
      <point x="1621" y="642" type="line"/>
      <point x="1621" y="642"/>
      <point x="1621" y="642"/>
      <point x="1621" y="642" type="qcurve"/>
      <point x="1574" y="372" type="line"/>
      <point x="1574" y="372"/>
      <point x="1574" y="372"/>
      <point x="1574" y="372" type="qcurve"/>
      <point x="936" y="372" type="line"/>
    </contour>
  </outline>
</glyph>
<glyph name="ae" format="2">
  <advance width="3528"/>
  <unicode hex="00E6"/>
  <anchor x="1863" y="1174" name="top"/>
  <anchor x="1612" y="-150" name="bottom"/>
  <outline>
    <contour>
      <point x="372" y="-10" type="line"/>
      <point x="1350" y="-10" type="line" smooth="yes"/>
      <point x="1429" y="-10"/>
      <point x="1554" y="31"/>
      <point x="1597" y="75" type="qcurve"/>
      <point x="1626" y="31"/>
      <point x="1741" y="-10"/>
      <point x="1822" y="-10" type="qcurve" smooth="yes"/>
      <point x="2885" y="-10" type="line" smooth="yes"/>
      <point x="2950" y="-10"/>
      <point x="3058" y="22"/>
      <point x="3141" y="90"/>
      <point x="3197" y="194"/>
      <point x="3209" y="266" type="qcurve" smooth="yes"/>
      <point x="3213" y="289" type="line"/>
      <point x="2724" y="370" type="line"/>
      <point x="2716" y="326" type="line"/>
      <point x="2716" y="326"/>
      <point x="2716" y="326"/>
      <point x="2716" y="326" type="qcurve"/>
      <point x="1958" y="326" type="line"/>
      <point x="1958" y="326"/>
      <point x="1958" y="326"/>
      <point x="1958" y="326" type="qcurve"/>
      <point x="1972" y="404" type="line"/>
      <point x="3253" y="404" type="line"/>
      <point x="3323" y="808" type="line" smooth="yes"/>
      <point x="3335" y="878"/>
      <point x="3311" y="966"/>
      <point x="3247" y="1016"/>
      <point x="3145" y="1034"/>
      <point x="3080" y="1034" type="qcurve" smooth="yes"/>
      <point x="2124" y="1034" type="line" smooth="yes"/>
      <point x="2043" y="1034"/>
      <point x="1915" y="995"/>
      <point x="1870" y="953" type="qcurve"/>
      <point x="1842" y="995"/>
      <point x="1730" y="1034"/>
      <point x="1652" y="1034" type="qcurve" smooth="yes"/>
      <point x="570" y="1034" type="line" smooth="yes"/>
      <point x="505" y="1034"/>
      <point x="394" y="996"/>
      <point x="309" y="924"/>
      <point x="251" y="817"/>
      <point x="239" y="748" type="qcurve" smooth="yes"/>
      <point x="234" y="721" type="line"/>
      <point x="724" y="640" type="line"/>
      <point x="734" y="698" type="line"/>
      <point x="734" y="698"/>
      <point x="734" y="698"/>
      <point x="734" y="698" type="qcurve"/>
      <point x="1497" y="698" type="line"/>
      <point x="1497" y="698"/>
      <point x="1497" y="698"/>
      <point x="1497" y="698" type="qcurve"/>
      <point x="1485" y="628" type="line"/>
      <point x="482" y="628" type="line" smooth="yes"/>
      <point x="420" y="628"/>
      <point x="314" y="612"/>
      <point x="233" y="564"/>
      <point x="177" y="477"/>
      <point x="165" y="406" type="qcurve" smooth="yes"/>
      <point x="133" y="222" type="line" smooth="yes"/>
      <point x="120" y="150"/>
      <point x="143" y="60"/>
      <point x="207" y="9"/>
      <point x="308" y="-10"/>
      <point x="372" y="-10" type="qcurve"/>
    </contour>
    <contour>
      <point x="655" y="326" type="line"/>
      <point x="655" y="326"/>
      <point x="655" y="326"/>
      <point x="655" y="326" type="qcurve"/>
      <point x="669" y="404" type="line"/>
      <point x="669" y="404"/>
      <point x="669" y="404"/>
      <point x="669" y="404" type="qcurve"/>
      <point x="1468" y="404" type="line"/>
      <point x="1454" y="326" type="line"/>
      <point x="1454" y="326"/>
      <point x="1454" y="326"/>
      <point x="1454" y="326" type="qcurve"/>
    </contour>
    <contour>
      <point x="2011" y="628" type="line"/>
      <point x="2023" y="698" type="line"/>
      <point x="2023" y="698"/>
      <point x="2023" y="698"/>
      <point x="2023" y="698" type="qcurve"/>
      <point x="2800" y="698" type="line"/>
      <point x="2800" y="698"/>
      <point x="2800" y="698"/>
      <point x="2800" y="698" type="qcurve"/>
      <point x="2788" y="628" type="line"/>
    </contour>
  </outline>
</glyph>
<glyph name="eth" format="2">
  <advance width="2503"/>
  <unicode hex="00F0"/>
  <outline>
    <contour>
      <point x="831" y="1330" type="line"/>
      <point x="969" y="1301"/>
      <point x="1204" y="1230"/>
      <point x="1393" y="1145"/>
      <point x="1534" y="1048"/>
      <point x="1624" y="939"/>
      <point x="1659" y="819"/>
      <point x="1648" y="754" type="qcurve"/>
      <point x="2132" y="526" type="line"/>
      <point x="2160" y="686"/>
      <point x="2140" y="945"/>
      <point x="2053" y="1149"/>
      <point x="1900" y="1302"/>
      <point x="1689" y="1408"/>
      <point x="1422" y="1470"/>
      <point x="1265" y="1482" type="qcurve"/>
    </contour>
    <contour>
      <point x="223" y="680" type="line"/>
      <point x="148" y="254" type="line" smooth="yes"/>
      <point x="136" y="185"/>
      <point x="154" y="85"/>
      <point x="217" y="21"/>
      <point x="328" y="-10"/>
      <point x="408" y="-10" type="qcurve" smooth="yes"/>
      <point x="1732" y="-10" type="line" smooth="yes"/>
      <point x="1813" y="-10"/>
      <point x="1934" y="21"/>
      <point x="2020" y="85"/>
      <point x="2072" y="185"/>
      <point x="2084" y="254" type="qcurve" smooth="yes"/>
      <point x="2132" y="526" type="line"/>
      <point x="1679" y="934" type="line"/>
      <point x="573" y="934" type="line" smooth="yes"/>
      <point x="494" y="934"/>
      <point x="373" y="904"/>
      <point x="287" y="841"/>
      <point x="234" y="745"/>
      <point x="223" y="680" type="qcurve"/>
    </contour>
    <contour>
      <point x="724" y="552" type="line"/>
      <point x="724" y="552"/>
      <point x="724" y="552"/>
      <point x="724" y="552" type="qcurve"/>
      <point x="1612" y="552" type="line"/>
      <point x="1607" y="523" type="line"/>
      <point x="1581" y="372" type="line"/>
      <point x="1581" y="372"/>
      <point x="1581" y="372"/>
      <point x="1581" y="372" type="qcurve"/>
      <point x="693" y="372" type="line"/>
      <point x="693" y="372"/>
      <point x="693" y="372"/>
      <point x="693" y="372" type="qcurve"/>
    </contour>
    <contour>
      <point x="782" y="1136" type="line"/>
      <point x="783" y="972" type="line"/>
      <point x="2377" y="1247" type="line"/>
      <point x="2376" y="1411" type="line"/>
    </contour>
  </outline>
</glyph>
<glyph name="oslash" format="2">
  <advance width="2541" height="1448"/>
  <unicode hex="00F8"/>
  <anchor x="1354" y="1174" name="top"/>
  <outline>
    <contour>
      <point x="225" y="254" type="line"/>
      <point x="317" y="780" type="line" smooth="yes"/>
      <point x="329" y="845"/>
      <point x="381" y="941"/>
      <point x="467" y="1004"/>
      <point x="588" y="1034"/>
      <point x="667" y="1034" type="qcurve" smooth="yes"/>
      <point x="1991" y="1034" type="line" smooth="yes"/>
      <point x="2150" y="1034"/>
      <point x="2276" y="911"/>
      <point x="2253" y="780" type="qcurve" smooth="yes"/>
      <point x="2161" y="254" type="line" smooth="yes"/>
      <point x="2149" y="185"/>
      <point x="2097" y="85"/>
      <point x="2011" y="21"/>
      <point x="1890" y="-10"/>
      <point x="1809" y="-10" type="qcurve" smooth="yes"/>
      <point x="485" y="-10" type="line" smooth="yes"/>
      <point x="405" y="-10"/>
      <point x="294" y="21"/>
      <point x="231" y="85"/>
      <point x="213" y="185"/>
      <point x="225" y="254" type="qcurve"/>
    </contour>
    <contour>
      <point x="767" y="357" type="line"/>
      <point x="767" y="357"/>
      <point x="767" y="357"/>
      <point x="767" y="357" type="qcurve"/>
      <point x="1655" y="357" type="line"/>
      <point x="1655" y="357"/>
      <point x="1655" y="357"/>
      <point x="1655" y="357" type="qcurve"/>
      <point x="1709" y="667" type="line"/>
      <point x="1709" y="667"/>
      <point x="1709" y="667"/>
      <point x="1709" y="667" type="qcurve"/>
      <point x="821" y="667" type="line"/>
      <point x="821" y="667"/>
      <point x="821" y="667"/>
      <point x="821" y="667" type="qcurve"/>
    </contour>
    <contour>
      <point x="171" y="-40" type="line"/>
      <point x="124" y="120" type="line"/>
      <point x="375" y="229" type="line"/>
      <point x="657" y="351" type="line"/>
      <point x="1836" y="862" type="line"/>
      <point x="2057" y="958" type="line"/>
      <point x="2304" y="1064" type="line"/>
      <point x="2354" y="906" type="line"/>
      <point x="2101" y="796" type="line"/>
      <point x="1880" y="701" type="line"/>
      <point x="698" y="187" type="line"/>
      <point x="412" y="64" type="line"/>
    </contour>
  </outline>
  <guideline angle="0" x="0" y="1064"/>
  <guideline angle="0" x="0" y="-40"/>
</glyph>
<glyph name="thorn" format="2">
  <advance width="2486"/>
  <unicode hex="00FE"/>
  <outline>
    <contour>
      <point x="45" y="-428" type="line"/>
      <point x="377" y="1472" type="line"/>
      <point x="901" y="1472" type="line"/>
      <point x="805" y="922" type="line"/>
      <point x="847" y="979"/>
      <point x="989" y="1034"/>
      <point x="1098" y="1034" type="qcurve" smooth="yes"/>
      <point x="2014" y="1034" type="line" smooth="yes"/>
      <point x="2094" y="1034"/>
      <point x="2205" y="1003"/>
      <point x="2268" y="939"/>
      <point x="2286" y="839"/>
      <point x="2274" y="770" type="qcurve" smooth="yes"/>
      <point x="2183" y="244" type="line"/>
      <point x="2171" y="179"/>
      <point x="2118" y="83"/>
      <point x="2032" y="20"/>
      <point x="1912" y="-10"/>
      <point x="1832" y="-10" type="qcurve" smooth="yes"/>
      <point x="916" y="-10" type="line" smooth="yes"/>
      <point x="809" y="-10"/>
      <point x="685" y="45"/>
      <point x="662" y="102" type="qcurve"/>
      <point x="569" y="-428" type="line"/>
    </contour>
    <contour>
      <point x="709" y="372" type="line"/>
      <point x="1681" y="372" type="line"/>
      <point x="1681" y="372"/>
      <point x="1681" y="372"/>
      <point x="1681" y="372" type="qcurve"/>
      <point x="1730" y="652" type="line"/>
      <point x="1730" y="652"/>
      <point x="1730" y="652"/>
      <point x="1730" y="652" type="qcurve"/>
      <point x="758" y="652" type="line"/>
    </contour>
  </outline>
</glyph>
<glyph name="Hbar" format="2">
  <advance width="3342.16"/>
  <unicode hex="0126"/>
  <anchor x="1822.79" y="1550" name="top"/>
  <anchor x="1525.79" y="-150" name="bottom"/>
  <anchor x="271.793" y="700" name="left"/>
  <outline>
    <contour>
      <point x="250" y="0" type="line"/>
      <point x="822" y="0" type="line"/>
      <point x="908" y="492" type="line"/>
      <point x="2368" y="492" type="line"/>
      <point x="2282" y="0" type="line"/>
      <point x="2854" y="0" type="line"/>
      <point x="3098" y="1400" type="line"/>
      <point x="2526" y="1400" type="line"/>
      <point x="2422" y="804" type="line"/>
      <point x="962" y="804" type="line"/>
      <point x="1066" y="1400" type="line"/>
      <point x="494" y="1400" type="line"/>
    </contour>
    <contour>
      <point x="3110" y="894" type="line"/>
      <point x="3164" y="1206" type="line"/>
      <point x="360" y="1206" type="line"/>
      <point x="306" y="894" type="line"/>
    </contour>
  </outline>
  <guideline angle="0" color="1,0,0,1" x="0" y="1050"/>
</glyph>
<glyph name="hbar" format="2">
  <advance width="2464.94"/>
  <unicode hex="0127"/>
  <anchor x="768" y="1622" name="top"/>
  <anchor x="1142" y="-150" name="bottom"/>
  <anchor x="211" y="512" name="left"/>
  <outline>
    <contour>
      <point x="219.944" y="0" type="line"/>
      <point x="412.944" y="1105" type="line"/>
      <point x="262.944" y="1105" type="line"/>
      <point x="309.944" y="1377" type="line"/>
      <point x="459.944" y="1377" type="line"/>
      <point x="476.944" y="1472" type="line"/>
      <point x="1000.94" y="1472" type="line"/>
      <point x="983.944" y="1377" type="line"/>
      <point x="1405.94" y="1377" type="line"/>
      <point x="1358.94" y="1105" type="line"/>
      <point x="936.944" y="1105" type="line"/>
      <point x="904.944" y="920" type="line"/>
      <point x="945.944" y="974"/>
      <point x="1090.94" y="1024"/>
      <point x="1208.94" y="1024" type="qcurve" smooth="yes"/>
      <point x="1922.94" y="1024" type="line" smooth="yes"/>
      <point x="2018.94" y="1024"/>
      <point x="2151.94" y="989"/>
      <point x="2228.94" y="915"/>
      <point x="2251.94" y="802"/>
      <point x="2237.94" y="724" type="qcurve" smooth="yes"/>
      <point x="2111.94" y="0" type="line"/>
      <point x="1587.94" y="0" type="line"/>
      <point x="1690.94" y="592" type="line"/>
      <point x="1690.94" y="592"/>
      <point x="1690.94" y="592"/>
      <point x="1690.94" y="592" type="qcurve"/>
      <point x="846.944" y="592" type="line"/>
      <point x="743.944" y="0" type="line"/>
    </contour>
  </outline>
  <guideline angle="0" color="1,0,0,1" x="0" y="1251"/>
  <guideline angle="260.081" color="1,0,0,1" x="1270" y="592"/>
</glyph>
<glyph name="dotlessi" format="2">
  <advance width="1003"/>
  <unicode hex="0131"/>
  <anchor x="355" y="-150" name="bottom"/>
  <anchor x="586" y="1174" name="top"/>
  <anchor x="447" y="0" name="ogonek"/>
  <outline>
    <contour>
      <point x="119" y="0" type="line"/>
      <point x="643" y="0" type="line"/>
      <point x="822" y="1024" type="line"/>
      <point x="298" y="1024" type="line"/>
    </contour>
  </outline>
</glyph>
<glyph name="Lslash" format="2">
  <advance width="2790"/>
  <unicode hex="0141"/>
  <outline>
    <contour>
      <point x="240" y="0" type="line"/>
      <point x="484" y="1400" type="line"/>
      <point x="1056" y="1400" type="line"/>
      <point x="891" y="454" type="line"/>
      <point x="2659" y="454" type="line"/>
      <point x="2580" y="0" type="line"/>
    </contour>
    <contour>
      <point x="1614" y="1081" type="line"/>
      <point x="1586" y="921" type="line"/>
      <point x="135" y="424" type="line"/>
      <point x="163" y="584" type="line"/>
    </contour>
  </outline>
  <guideline x="843928"/>
  <guideline x="842756"/>
</glyph>
<glyph name="lslash" format="2">
  <advance width="1012"/>
  <unicode hex="0142"/>
  <outline>
    <contour>
      <point x="124" y="0" type="line"/>
      <point x="648" y="0" type="line"/>
      <point x="779" y="750" type="line"/>
      <point x="1023" y="834" type="line"/>
      <point x="1053" y="1003" type="line"/>
      <point x="809" y="919" type="line"/>
      <point x="905" y="1472" type="line"/>
      <point x="381" y="1472" type="line"/>
      <point x="251" y="728" type="line"/>
      <point x="7" y="644" type="line"/>
      <point x="-23" y="475" type="line"/>
      <point x="221" y="559" type="line"/>
    </contour>
  </outline>
  <guideline x="843902"/>
  <guideline x="842730"/>
  <guideline y="724"/>
</glyph>
<glyph name="Eng" format="2">
  <advance width="3222"/>
  <unicode hex="014A"/>
  <outline>
    <contour>
      <point x="200" y="0" type="line"/>
      <point x="732" y="0" type="line"/>
      <point x="865" y="761" type="line"/>
      <point x="2358" y="0" type="line"/>
      <point x="2782" y="0" type="line"/>
      <point x="3026" y="1400" type="line"/>
      <point x="2494" y="1400" type="line"/>
      <point x="2361" y="638" type="line"/>
      <point x="866" y="1400" type="line"/>
      <point x="444" y="1400" type="line"/>
    </contour>
    <contour>
      <point x="1441" y="-80" type="line"/>
      <point x="1452" y="-428" type="line"/>
      <point x="2447" y="-428" type="line" smooth="yes"/>
      <point x="2506" y="-428"/>
      <point x="2610" y="-381"/>
      <point x="2693" y="-295"/>
      <point x="2751" y="-175"/>
      <point x="2764" y="-102" type="qcurve" smooth="yes"/>
      <point x="2782" y="0" type="line"/>
      <point x="2276" y="100" type="line"/>
      <point x="2244" y="-80" type="line"/>
      <point x="2244" y="-80"/>
      <point x="2244" y="-80"/>
      <point x="2244" y="-80" type="qcurve"/>
    </contour>
  </outline>
  <guideline x="514"/>
  <guideline x="631"/>
</glyph>
<glyph name="eng" format="2">
  <advance width="2359"/>
  <unicode hex="014B"/>
  <anchor x="1762" y="1174" name="top"/>
  <anchor x="1040" y="-150" name="bottom"/>
  <anchor x="109" y="512" name="left"/>
  <outline>
    <contour>
      <point x="119" y="0" type="line"/>
      <point x="643" y="0" type="line"/>
      <point x="748" y="602" type="line"/>
      <point x="1592" y="602" type="line"/>
      <point x="1592" y="602"/>
      <point x="1592" y="602"/>
      <point x="1592" y="602" type="qcurve"/>
      <point x="1473" y="-80" type="line"/>
      <point x="1473" y="-80"/>
      <point x="1473" y="-80"/>
      <point x="1473" y="-80" type="qcurve"/>
      <point x="979" y="-80" type="line"/>
      <point x="990" y="-428" type="line"/>
      <point x="1676" y="-428" type="line" smooth="yes"/>
      <point x="1735" y="-428"/>
      <point x="1839" y="-381"/>
      <point x="1922" y="-296"/>
      <point x="1980" y="-176"/>
      <point x="1993" y="-102" type="qcurve" smooth="yes"/>
      <point x="2139" y="734" type="line" smooth="yes"/>
      <point x="2153" y="812"/>
      <point x="2129" y="925"/>
      <point x="2052" y="999"/>
      <point x="1919" y="1034"/>
      <point x="1823" y="1034" type="qcurve" smooth="yes"/>
      <point x="1109" y="1034" type="line" smooth="yes"/>
      <point x="991" y="1034"/>
      <point x="847" y="984"/>
      <point x="805" y="930" type="qcurve"/>
      <point x="822" y="1024" type="line"/>
      <point x="298" y="1024" type="line"/>
    </contour>
  </outline>
  <guideline x="1065" y="-0" angle="260.085" color="1,0,0,1"/>
  <guideline x="381" y="-0" angle="260.126" color="1,0,0,1"/>
</glyph>
<glyph name="oe" format="2">
  <advance width="3537.8"/>
  <unicode hex="0153"/>
  <anchor x="3832.04" y="1174" name="top"/>
  <anchor x="3601.04" y="-150" name="bottom"/>
  <outline>
    <contour>
      <point x="382" y="-10" type="line"/>
      <point x="1415" y="-10" type="line" smooth="yes"/>
      <point x="1494" y="-10"/>
      <point x="1619" y="31"/>
      <point x="1662" y="75" type="qcurve"/>
      <point x="1691" y="31"/>
      <point x="1806" y="-10"/>
      <point x="1887" y="-10" type="qcurve" smooth="yes"/>
      <point x="2895" y="-10" type="line" smooth="yes"/>
      <point x="2960" y="-10"/>
      <point x="3068" y="22"/>
      <point x="3151" y="90"/>
      <point x="3207" y="194"/>
      <point x="3219" y="266" type="qcurve" smooth="yes"/>
      <point x="3223" y="289" type="line"/>
      <point x="2734" y="370" type="line"/>
      <point x="2726" y="326" type="line"/>
      <point x="2726" y="326"/>
      <point x="2726" y="326"/>
      <point x="2726" y="326" type="qcurve"/>
      <point x="1968" y="326" type="line"/>
      <point x="1968" y="326"/>
      <point x="1968" y="326"/>
      <point x="1968" y="326" type="qcurve"/>
      <point x="1982" y="404" type="line"/>
      <point x="3263" y="404" type="line"/>
      <point x="3333" y="808" type="line" smooth="yes"/>
      <point x="3345" y="878"/>
      <point x="3321" y="966"/>
      <point x="3257" y="1016"/>
      <point x="3155" y="1034"/>
      <point x="3090" y="1034" type="qcurve" smooth="yes"/>
      <point x="2068" y="1034" type="line" smooth="yes"/>
      <point x="1987" y="1034"/>
      <point x="1859" y="995"/>
      <point x="1814" y="953" type="qcurve"/>
      <point x="1786" y="995"/>
      <point x="1675" y="1034"/>
      <point x="1596" y="1034" type="qcurve" smooth="yes"/>
      <point x="564" y="1034" type="line" smooth="yes"/>
      <point x="499" y="1034"/>
      <point x="389" y="996"/>
      <point x="304" y="924"/>
      <point x="247" y="817"/>
      <point x="235" y="748" type="qcurve" smooth="yes"/>
      <point x="143" y="222" type="line" smooth="yes"/>
      <point x="130" y="150"/>
      <point x="153" y="60"/>
      <point x="217" y="9"/>
      <point x="318" y="-10"/>
      <point x="382" y="-10" type="qcurve"/>
    </contour>
    <contour>
      <point x="2798" y="628" type="line"/>
      <point x="2021" y="628" type="line"/>
      <point x="2033" y="698" type="line"/>
      <point x="2033" y="698"/>
      <point x="2033" y="698"/>
      <point x="2033" y="698" type="qcurve"/>
      <point x="2810" y="698" type="line"/>
      <point x="2810" y="698"/>
      <point x="2810" y="698"/>
      <point x="2810" y="698" type="qcurve"/>
    </contour>
    <contour>
      <point x="665" y="326" type="line"/>
      <point x="730" y="698" type="line"/>
      <point x="730" y="698"/>
      <point x="730" y="698"/>
      <point x="730" y="698" type="qcurve"/>
      <point x="1529" y="698" type="line"/>
      <point x="1529" y="698"/>
      <point x="1529" y="699"/>
      <point x="1529" y="699" type="qcurve"/>
      <point x="1464" y="326" type="line"/>
      <point x="1464" y="326"/>
      <point x="1464" y="326"/>
      <point x="1464" y="326" type="qcurve"/>
      <point x="665" y="326" type="line"/>
      <point x="665" y="326"/>
      <point x="665" y="326"/>
      <point x="665" y="326" type="qcurve"/>
    </contour>
  </outline>
  <guideline angle="260.096" color="1,0,0,1" x="1648.04" y="0"/>
</glyph>
<glyph name="uni018F" format="2">
  <advance width="3072.86"/>
  <unicode hex="018F"/>
  <anchor x="1734" y="1564" name="top"/>
  <anchor x="1432" y="-164" name="bottom"/>
  <outline>
    <contour>
      <point x="573.405" y="-14" type="line" smooth="yes"/>
      <point x="474.405" y="-14"/>
      <point x="325.405" y="17"/>
      <point x="233.405" y="95"/>
      <point x="201.405" y="229"/>
      <point x="219.405" y="332" type="qcurve" smooth="yes"/>
      <point x="313.405" y="870" type="line"/>
      <point x="2243.4" y="870" type="line"/>
      <point x="2264.4" y="990" type="line"/>
      <point x="2264.4" y="990"/>
      <point x="2264.4" y="990"/>
      <point x="2264.4" y="990"/>
      <point x="2264.4" y="990"/>
      <point x="2264.4" y="990" type="qcurve"/>
      <point x="912.405" y="990" type="line"/>
      <point x="912.405" y="990"/>
      <point x="912.405" y="990"/>
      <point x="912.405" y="990"/>
      <point x="912.405" y="990"/>
      <point x="912.405" y="990" type="qcurve"/>
      <point x="900.405" y="920" type="line"/>
      <point x="346.405" y="1026" type="line"/>
      <point x="355.405" y="1080" type="line" smooth="yes"/>
      <point x="372.405" y="1181"/>
      <point x="453.405" y="1310"/>
      <point x="575.405" y="1385"/>
      <point x="734.405" y="1414"/>
      <point x="828.405" y="1414" type="qcurve" smooth="yes"/>
      <point x="2498.4" y="1414" type="line" smooth="yes"/>
      <point x="2593.4" y="1414"/>
      <point x="2739.4" y="1385"/>
      <point x="2833.4" y="1310"/>
      <point x="2868.4" y="1181"/>
      <point x="2851.4" y="1080" type="qcurve" smooth="yes"/>
      <point x="2721.4" y="332" type="line" smooth="yes"/>
      <point x="2703.4" y="229"/>
      <point x="2625.4" y="95"/>
      <point x="2507.4" y="17"/>
      <point x="2348.4" y="-14"/>
      <point x="2249.4" y="-14" type="qcurve" smooth="yes"/>
    </contour>
    <contour>
      <point x="820.405" y="500" type="line"/>
      <point x="805.405" y="410" type="line"/>
      <point x="805.405" y="410"/>
      <point x="805.405" y="410"/>
      <point x="805.405" y="410"/>
      <point x="805.405" y="410"/>
      <point x="805.405" y="410" type="qcurve"/>
      <point x="2163.4" y="410" type="line"/>
      <point x="2163.4" y="410"/>
      <point x="2163.4" y="410"/>
      <point x="2163.4" y="410"/>
      <point x="2163.4" y="410"/>
      <point x="2163.4" y="410" type="qcurve"/>
      <point x="2179.4" y="500" type="line"/>
    </contour>
  </outline>
</glyph>
<glyph name="uni0237" format="2">
  <advance width="1004"/>
  <unicode hex="0237"/>
  <anchor x="598" y="1174" name="top"/>
  <outline>
    <contour>
      <point x="-875.87" y="-80" type="line"/>
      <point x="-864.87" y="-428" type="line"/>
      <point x="320.13" y="-428" type="line" smooth="yes"/>
      <point x="379.13" y="-428"/>
      <point x="483.13" y="-381"/>
      <point x="566.13" y="-296"/>
      <point x="624.13" y="-176"/>
      <point x="637.13" y="-102" type="qcurve" smooth="yes"/>
      <point x="834.13" y="1024" type="line"/>
      <point x="310.13" y="1024" type="line"/>
      <point x="117.13" y="-80" type="line"/>
      <point x="117.13" y="-80"/>
      <point x="117.13" y="-80"/>
      <point x="117.13" y="-80" type="qcurve"/>
    </contour>
  </outline>
</glyph>
<glyph name="acutecomb" format="2">
  <unicode hex="0301"/>
  <anchor x="81" y="1150" name="_top"/>
  <anchor x="-291" y="1100" name="_topright"/>
  <outline>
    <contour>
      <point x="-371" y="1100" type="line"/>
      <point x="292" y="1448" type="line"/>
      <point x="950" y="1448" type="line"/>
      <point x="276" y="1100" type="line"/>
    </contour>
  </outline>
</glyph>
<glyph name="uni0302" format="2">
  <unicode hex="0302"/>
  <anchor x="81" y="1150" name="_top"/>
  <anchor x="159" y="1598" name="_bottom"/>
  <anchor x="883" y="1274" name="topright"/>
  <anchor x="150" y="1548" name="top"/>
  <outline>
    <contour>
      <point x="-700" y="1100" type="line"/>
      <point x="-85" y="1448" type="line"/>
      <point x="363" y="1448" type="line"/>
      <point x="853" y="1100" type="line"/>
      <point x="237" y="1100" type="line"/>
      <point x="100" y="1261" type="line"/>
      <point x="-93" y="1100" type="line"/>
    </contour>
  </outline>
</glyph>
<glyph name="tildecomb" format="2">
  <unicode hex="0303"/>
  <anchor x="81" y="1150" name="_top"/>
  <anchor x="150" y="1547" name="top"/>
  <outline>
    <contour>
      <point x="-474" y="1125" type="line"/>
      <point x="-447" y="1200"/>
      <point x="-366" y="1317"/>
      <point x="-259" y="1399"/>
      <point x="-127" y="1442"/>
      <point x="-49" y="1442" type="qcurve" smooth="yes"/>
      <point x="-11" y="1442"/>
      <point x="55" y="1431"/>
      <point x="113" y="1415"/>
      <point x="165" y="1395"/>
      <point x="214" y="1379"/>
      <point x="261" y="1368"/>
      <point x="285" y="1368" type="qcurve" smooth="yes"/>
      <point x="311" y="1368"/>
      <point x="347" y="1381"/>
      <point x="373" y="1402"/>
      <point x="389" y="1429"/>
      <point x="394" y="1442" type="qcurve"/>
      <point x="673" y="1394" type="line"/>
      <point x="648" y="1325"/>
      <point x="567" y="1209"/>
      <point x="460" y="1125"/>
      <point x="327" y="1077"/>
      <point x="249" y="1077" type="qcurve" smooth="yes"/>
      <point x="211" y="1077"/>
      <point x="145" y="1088"/>
      <point x="87" y="1104"/>
      <point x="35" y="1124"/>
      <point x="-14" y="1140"/>
      <point x="-61" y="1151"/>
      <point x="-85" y="1151" type="qcurve" smooth="yes"/>
      <point x="-111" y="1151"/>
      <point x="-148" y="1138"/>
      <point x="-173" y="1117"/>
      <point x="-189" y="1091"/>
      <point x="-194" y="1077" type="qcurve"/>
    </contour>
  </outline>
</glyph>
<glyph name="uni0304" format="2">
  <unicode hex="0304"/>
  <anchor x="85" y="1174" name="_top"/>
  <anchor x="147" y="1530" name="top"/>
  <outline>
    <contour>
      <point x="-458" y="1158" type="line"/>
      <point x="622" y="1158" type="line"/>
      <point x="670" y="1430" type="line"/>
      <point x="-410" y="1430" type="line"/>
    </contour>
  </outline>
  <guideline y="628"/>
</glyph>
<glyph name="uni0306" format="2">
  <unicode hex="0306"/>
  <anchor x="78" y="1174" name="_top"/>
  <anchor x="146" y="1561" name="top"/>
  <outline>
    <contour>
      <point x="-351" y="1461" type="line"/>
      <point x="-369" y="1362"/>
      <point x="-352" y="1224"/>
      <point x="-260" y="1138"/>
      <point x="-80" y="1099"/>
      <point x="65" y="1099" type="qcurve" smooth="yes"/>
      <point x="210" y="1099"/>
      <point x="403" y="1138"/>
      <point x="524" y="1224"/>
      <point x="589" y="1362"/>
      <point x="607" y="1461" type="qcurve"/>
      <point x="342" y="1461" type="line"/>
      <point x="336" y="1425"/>
      <point x="295" y="1375"/>
      <point x="233" y="1345"/>
      <point x="153" y="1331"/>
      <point x="106" y="1331" type="qcurve" smooth="yes"/>
      <point x="58" y="1331"/>
      <point x="-18" y="1345"/>
      <point x="-70" y="1375"/>
      <point x="-92" y="1425"/>
      <point x="-86" y="1461" type="qcurve"/>
    </contour>
  </outline>
</glyph>
<glyph name="uni0308" format="2">
  <unicode hex="0308"/>
  <anchor x="85" y="1172" name="_top"/>
  <anchor x="163" y="1622" name="_bottom"/>
  <anchor x="151" y="1550" name="top"/>
  <outline>
    <contour>
      <point x="-403" y="1220" type="line" smooth="yes"/>
      <point x="-410" y="1180"/>
      <point x="-414" y="1135"/>
      <point x="-396" y="1114"/>
      <point x="-353" y="1110"/>
      <point x="-312" y="1110" type="qcurve" smooth="yes"/>
      <point x="-160" y="1110" type="line" smooth="yes"/>
      <point x="-120" y="1110"/>
      <point x="-74" y="1114"/>
      <point x="-50" y="1135"/>
      <point x="-38" y="1180"/>
      <point x="-31" y="1220" type="qcurve" smooth="yes"/>
      <point x="-10" y="1342" type="line" smooth="yes"/>
      <point x="-3" y="1382"/>
      <point x="1" y="1425"/>
      <point x="-17" y="1446"/>
      <point x="-61" y="1450"/>
      <point x="-101" y="1450" type="qcurve" smooth="yes"/>
      <point x="-253" y="1450" type="line" smooth="yes"/>
      <point x="-294" y="1450"/>
      <point x="-339" y="1446"/>
      <point x="-363" y="1425"/>
      <point x="-375" y="1382"/>
      <point x="-382" y="1342" type="qcurve" smooth="yes"/>
    </contour>
    <contour>
      <point x="217" y="1220" type="line" smooth="yes"/>
      <point x="210" y="1180"/>
      <point x="206" y="1135"/>
      <point x="224" y="1114"/>
      <point x="268" y="1110"/>
      <point x="308" y="1110" type="qcurve" smooth="yes"/>
      <point x="460" y="1110" type="line" smooth="yes"/>
      <point x="501" y="1110"/>
      <point x="546" y="1114"/>
      <point x="570" y="1135"/>
      <point x="582" y="1180"/>
      <point x="589" y="1220" type="qcurve" smooth="yes"/>
      <point x="610" y="1342" type="line" smooth="yes"/>
      <point x="617" y="1382"/>
      <point x="621" y="1425"/>
      <point x="603" y="1446"/>
      <point x="560" y="1450"/>
      <point x="519" y="1450" type="qcurve" smooth="yes"/>
      <point x="367" y="1450" type="line" smooth="yes"/>
      <point x="327" y="1450"/>
      <point x="281" y="1446"/>
      <point x="257" y="1425"/>
      <point x="245" y="1382"/>
      <point x="238" y="1342" type="qcurve" smooth="yes"/>
    </contour>
  </outline>
</glyph>
<glyph name="uni0309" format="2">
  <unicode hex="0309"/>
  <anchor x="77" y="1174" name="_top"/>
  <anchor x="30" y="1100" name="_topright"/>
  <outline>
    <contour>
      <point x="-30" y="1100" type="line"/>
      <point x="171" y="1100" type="line"/>
      <point x="206" y="1116"/>
      <point x="268" y="1156"/>
      <point x="316" y="1203"/>
      <point x="348" y="1257"/>
      <point x="353" y="1287" type="qcurve" smooth="yes"/>
      <point x="361" y="1330"/>
      <point x="339" y="1401"/>
      <point x="284" y="1452"/>
      <point x="199" y="1480"/>
      <point x="143" y="1480" type="qcurve" smooth="yes"/>
      <point x="112" y="1480"/>
      <point x="51" y="1470"/>
      <point x="-3" y="1455"/>
      <point x="-48" y="1435"/>
      <point x="-63" y="1424" type="qcurve"/>
      <point x="-61" y="1244" type="line"/>
      <point x="-49" y="1252"/>
      <point x="-1" y="1266"/>
      <point x="25" y="1266" type="qcurve" smooth="yes"/>
      <point x="52" y="1266"/>
      <point x="77" y="1229"/>
      <point x="72" y="1199" type="qcurve" smooth="yes"/>
      <point x="66" y="1166"/>
      <point x="9" y="1119"/>
      <point x="-30" y="1100" type="qcurve"/>
    </contour>
  </outline>
</glyph>
<glyph name="uni030A" format="2">
  <unicode hex="030A"/>
  <anchor x="85" y="1174" name="_top"/>
  <anchor x="166" y="1641" name="top"/>
  <outline>
    <contour>
      <point x="-196" y="1309" type="line"/>
      <point x="-208" y="1239"/>
      <point x="-203" y="1152"/>
      <point x="-147" y="1104"/>
      <point x="-30" y="1087"/>
      <point x="70" y="1087" type="qcurve" smooth="yes"/>
      <point x="170" y="1087"/>
      <point x="293" y="1104"/>
      <point x="365" y="1152"/>
      <point x="400" y="1239"/>
      <point x="412" y="1309" type="qcurve" smooth="yes"/>
      <point x="424" y="1379"/>
      <point x="419" y="1466"/>
      <point x="364" y="1514"/>
      <point x="247" y="1531"/>
      <point x="147" y="1531" type="qcurve" smooth="yes"/>
      <point x="47" y="1531"/>
      <point x="-76" y="1514"/>
      <point x="-148" y="1466"/>
      <point x="-184" y="1379"/>
      <point x="-196" y="1309" type="qcurve"/>
    </contour>
    <contour>
      <point x="18" y="1309" type="line"/>
      <point x="21" y="1326"/>
      <point x="31" y="1347"/>
      <point x="53" y="1357"/>
      <point x="89" y="1360"/>
      <point x="117" y="1360" type="qcurve" smooth="yes"/>
      <point x="146" y="1360"/>
      <point x="180" y="1357"/>
      <point x="198" y="1347"/>
      <point x="201" y="1326"/>
      <point x="198" y="1309" type="qcurve" smooth="yes"/>
      <point x="195" y="1292"/>
      <point x="185" y="1272"/>
      <point x="164" y="1261"/>
      <point x="129" y="1258"/>
      <point x="100" y="1258" type="qcurve" smooth="yes"/>
      <point x="72" y="1258"/>
      <point x="37" y="1261"/>
      <point x="19" y="1272"/>
      <point x="15" y="1292"/>
      <point x="18" y="1309" type="qcurve"/>
    </contour>
  </outline>
</glyph>
<glyph name="uni031B" format="2">
  <unicode hex="031B"/>
  <anchor x="59" y="1024" name="_horn"/>
  <outline>
    <contour>
      <point x="18" y="789" type="line"/>
      <point x="190" y="789"/>
      <point x="428" y="840"/>
      <point x="584" y="936"/>
      <point x="666" y="1077"/>
      <point x="682" y="1167" type="qcurve"/>
      <point x="690" y="1218"/>
      <point x="695" y="1330"/>
      <point x="691" y="1393" type="qcurve"/>
      <point x="320" y="1328" type="line"/>
      <point x="328" y="1284"/>
      <point x="328" y="1209"/>
      <point x="323" y="1178" type="qcurve" smooth="yes"/>
      <point x="316" y="1140"/>
      <point x="280" y="1082"/>
      <point x="217" y="1043"/>
      <point x="124" y="1024"/>
      <point x="59" y="1024" type="qcurve"/>
    </contour>
  </outline>
</glyph>
<glyph name="uni0327" format="2">
  <unicode hex="0327"/>
  <anchor x="-26" y="-150" name="_bottom"/>
  <outline>
    <contour>
      <point x="-78" y="0" type="line"/>
      <point x="-214" y="-216" type="line"/>
      <point x="-192" y="-208"/>
      <point x="-129" y="-200"/>
      <point x="-100" y="-200" type="qcurve" smooth="yes"/>
      <point x="-74" y="-200"/>
      <point x="-31" y="-205"/>
      <point x="-1" y="-217"/>
      <point x="14" y="-237"/>
      <point x="11" y="-253" type="qcurve" smooth="yes"/>
      <point x="8" y="-269"/>
      <point x="-14" y="-291"/>
      <point x="-49" y="-306"/>
      <point x="-94" y="-313"/>
      <point x="-120" y="-313" type="qcurve" smooth="yes"/>
      <point x="-161" y="-313"/>
      <point x="-224" y="-301"/>
      <point x="-236" y="-295" type="qcurve"/>
      <point x="-304" y="-395" type="line"/>
      <point x="-286" y="-406"/>
      <point x="-248" y="-422"/>
      <point x="-205" y="-432"/>
      <point x="-157" y="-438"/>
      <point x="-129" y="-438" type="qcurve" smooth="yes"/>
      <point x="-81" y="-438"/>
      <point x="38" y="-426"/>
      <point x="147" y="-387"/>
      <point x="229" y="-314"/>
      <point x="239" y="-253" type="qcurve"/>
      <point x="249" y="-199"/>
      <point x="209" y="-132"/>
      <point x="135" y="-94"/>
      <point x="40" y="-80"/>
      <point x="-5" y="-78" type="qcurve"/>
      <point x="44" y="0" type="line"/>
    </contour>
  </outline>
</glyph>
<glyph name="uni0328" format="2">
  <unicode hex="0328"/>
  <anchor x="-146" y="-150" name="_bottom"/>
  <anchor x="-2" y="0" name="_ogonek"/>
  <outline>
    <contour>
      <point x="-2" y="0" type="line"/>
      <point x="-14" y="-1"/>
      <point x="-40" y="-17"/>
      <point x="-62" y="-41"/>
      <point x="-77" y="-70"/>
      <point x="-80" y="-85" type="qcurve" smooth="yes"/>
      <point x="-83" y="-102"/>
      <point x="-73" y="-129"/>
      <point x="-51" y="-147"/>
      <point x="-16" y="-157"/>
      <point x="5" y="-157" type="qcurve" smooth="yes"/>
      <point x="27" y="-157"/>
      <point x="71" y="-154"/>
      <point x="116" y="-146"/>
      <point x="165" y="-136"/>
      <point x="193" y="-128" type="qcurve"/>
      <point x="105" y="-383" type="line"/>
      <point x="24" y="-412"/>
      <point x="-119" y="-438"/>
      <point x="-194" y="-438" type="qcurve" smooth="yes"/>
      <point x="-275" y="-438"/>
      <point x="-396" y="-409"/>
      <point x="-473" y="-354"/>
      <point x="-504" y="-274"/>
      <point x="-495" y="-222" type="qcurve" smooth="yes"/>
      <point x="-489" y="-190"/>
      <point x="-461" y="-129"/>
      <point x="-419" y="-72"/>
      <point x="-363" y="-21"/>
      <point x="-330" y="0" type="qcurve"/>
    </contour>
  </outline>
</glyph>
<glyph name="uni0402" format="2">
  <advance width="4054"/>
  <unicode hex="0402"/>
  <outline>
    <contour>
      <point x="977" y="0" type="line"/>
      <point x="1549" y="0" type="line"/>
      <point x="1638" y="511" type="line"/>
      <point x="3151" y="511" type="line" smooth="yes"/>
      <point x="3168" y="511"/>
      <point x="3190" y="502"/>
      <point x="3202" y="487"/>
      <point x="3204" y="465"/>
      <point x="3202" y="451" type="qcurve" smooth="yes"/>
      <point x="3199" y="434" type="line" smooth="yes"/>
      <point x="3196" y="421"/>
      <point x="3186" y="398"/>
      <point x="3169" y="383"/>
      <point x="3144" y="374"/>
      <point x="3127" y="374" type="qcurve" smooth="yes"/>
      <point x="2566" y="374" type="line"/>
      <point x="2501" y="1" type="line"/>
      <point x="3281" y="1" type="line" smooth="yes"/>
      <point x="3376" y="1"/>
      <point x="3534" y="30"/>
      <point x="3655" y="105"/>
      <point x="3736" y="235"/>
      <point x="3753" y="335" type="qcurve" smooth="yes"/>
      <point x="3793" y="561" type="line" smooth="yes"/>
      <point x="3811" y="662"/>
      <point x="3774" y="789"/>
      <point x="3679" y="861"/>
      <point x="3531" y="887"/>
      <point x="3436" y="887" type="qcurve" smooth="yes"/>
      <point x="1704" y="887" type="line"/>
      <point x="1728" y="1024" type="line"/>
      <point x="2772" y="1024" type="line"/>
      <point x="2837" y="1400" type="line"/>
      <point x="177" y="1400" type="line"/>
      <point x="112" y="1024" type="line"/>
      <point x="1156" y="1024" type="line"/>
    </contour>
  </outline>
  <guideline x="1144" y="956" angle="260.085" color="1,0,0,1"/>
</glyph>
<glyph name="uni0404" format="2">
  <advance width="2941"/>
  <unicode hex="0404"/>
  <anchor x="1642" y="1550" name="top"/>
  <outline>
    <contour>
      <point x="579.576" y="-14" type="line"/>
      <point x="2155.58" y="-14" type="line" smooth="yes"/>
      <point x="2254.58" y="-14"/>
      <point x="2413.58" y="17"/>
      <point x="2533.58" y="95"/>
      <point x="2611.58" y="229"/>
      <point x="2629.58" y="332" type="qcurve" smooth="yes"/>
      <point x="2652.58" y="463" type="line"/>
      <point x="2091.58" y="525" type="line"/>
      <point x="2071.58" y="410" type="line"/>
      <point x="2071.58" y="410"/>
      <point x="2071.58" y="410"/>
      <point x="2071.58" y="410"/>
      <point x="2071.58" y="410"/>
      <point x="2071.58" y="410" type="qcurve"/>
      <point x="813.576" y="410" type="line"/>
      <point x="813.576" y="410"/>
      <point x="813.576" y="410"/>
      <point x="813.576" y="410"/>
      <point x="813.576" y="410"/>
      <point x="813.576" y="410" type="qcurve"/>
      <point x="832.576" y="520" type="line"/>
      <point x="1941.58" y="520" type="line"/>
      <point x="2005.58" y="890" type="line"/>
      <point x="896.576" y="890" type="line"/>
      <point x="914.576" y="990" type="line"/>
      <point x="914.576" y="990"/>
      <point x="914.576" y="990"/>
      <point x="914.576" y="990"/>
      <point x="914.576" y="990"/>
      <point x="914.576" y="990" type="qcurve"/>
      <point x="2166.58" y="990" type="line"/>
      <point x="2166.58" y="990"/>
      <point x="2166.58" y="990"/>
      <point x="2166.58" y="990"/>
      <point x="2166.58" y="990"/>
      <point x="2166.58" y="990" type="qcurve"/>
      <point x="2147.58" y="880" type="line"/>
      <point x="2729.58" y="942" type="line"/>
      <point x="2753.58" y="1080" type="line" smooth="yes"/>
      <point x="2771.58" y="1181"/>
      <point x="2735.58" y="1310"/>
      <point x="2640.58" y="1385"/>
      <point x="2493.58" y="1414"/>
      <point x="2398.58" y="1414" type="qcurve" smooth="yes"/>
      <point x="828.576" y="1414" type="line" smooth="yes"/>
      <point x="734.576" y="1414"/>
      <point x="576.576" y="1385"/>
      <point x="455.576" y="1310"/>
      <point x="375.576" y="1181"/>
      <point x="357.576" y="1080" type="qcurve" smooth="yes"/>
      <point x="227.576" y="332" type="line" smooth="yes"/>
      <point x="209.576" y="229"/>
      <point x="240.576" y="95"/>
      <point x="332.576" y="17"/>
      <point x="480.576" y="-14"/>
      <point x="579.576" y="-14" type="qcurve"/>
    </contour>
  </outline>
  <guideline x="1731" y="-0" angle="260.093" color="1,0,0,1"/>
</glyph>
<glyph name="uni0409" format="2">
  <advance width="4950"/>
  <unicode hex="0409"/>
  <outline>
    <contour>
      <point x="-120" y="0" type="line"/>
      <point x="637" y="0" type="line"/>
      <point x="1916" y="956" type="line"/>
      <point x="2260" y="956" type="line"/>
      <point x="2093" y="0" type="line"/>
      <point x="4186" y="0" type="line" smooth="yes"/>
      <point x="4277" y="0"/>
      <point x="4431" y="28"/>
      <point x="4550" y="101"/>
      <point x="4630" y="227"/>
      <point x="4647" y="324" type="qcurve" smooth="yes"/>
      <point x="4708" y="674" type="line" smooth="yes"/>
      <point x="4725" y="775"/>
      <point x="4689" y="902"/>
      <point x="4596" y="974"/>
      <point x="4452" y="1000"/>
      <point x="4361" y="1000" type="qcurve" smooth="yes"/>
      <point x="2840" y="1000" type="line"/>
      <point x="2909" y="1400" type="line"/>
      <point x="1751" y="1400" type="line"/>
    </contour>
    <contour>
      <point x="2742" y="439" type="line"/>
      <point x="2763" y="560" type="line"/>
      <point x="4061" y="560" type="line" smooth="yes"/>
      <point x="4076" y="560"/>
      <point x="4096" y="553"/>
      <point x="4107" y="539"/>
      <point x="4109" y="520"/>
      <point x="4107" y="509" type="qcurve" smooth="yes"/>
      <point x="4104" y="490" type="line" smooth="yes"/>
      <point x="4102" y="479"/>
      <point x="4093" y="460"/>
      <point x="4078" y="447"/>
      <point x="4055" y="439"/>
      <point x="4040" y="439" type="qcurve" smooth="yes"/>
    </contour>
  </outline>
</glyph>
<glyph name="uni040A" format="2">
  <advance width="4883.87"/>
  <unicode hex="040A"/>
  <outline>
    <contour>
      <point x="200" y="0" type="line"/>
      <point x="772" y="0" type="line"/>
      <point x="866" y="536" type="line"/>
      <point x="2120" y="536" type="line"/>
      <point x="2026" y="0" type="line"/>
      <point x="4120" y="0" type="line" smooth="yes"/>
      <point x="4211" y="0"/>
      <point x="4365" y="28"/>
      <point x="4484" y="101"/>
      <point x="4564" y="227"/>
      <point x="4581" y="324" type="qcurve" smooth="yes"/>
      <point x="4642" y="674" type="line" smooth="yes"/>
      <point x="4659" y="775"/>
      <point x="4623" y="902"/>
      <point x="4530" y="974"/>
      <point x="4386" y="1000"/>
      <point x="4295" y="1000" type="qcurve" smooth="yes"/>
      <point x="2773" y="1000" type="line"/>
      <point x="2842" y="1400" type="line"/>
      <point x="2270" y="1400" type="line"/>
      <point x="2201" y="1000" type="line"/>
      <point x="947" y="1000" type="line"/>
      <point x="1016" y="1400" type="line"/>
      <point x="444" y="1400" type="line"/>
    </contour>
    <contour>
      <point x="2675" y="439" type="line"/>
      <point x="2696" y="560" type="line"/>
      <point x="3994" y="560" type="line" smooth="yes"/>
      <point x="4009" y="560"/>
      <point x="4029" y="553"/>
      <point x="4040" y="539"/>
      <point x="4042" y="520"/>
      <point x="4040" y="509" type="qcurve" smooth="yes"/>
      <point x="4037" y="490" type="line" smooth="yes"/>
      <point x="4035" y="479"/>
      <point x="4026" y="460"/>
      <point x="4011" y="447"/>
      <point x="3988" y="439"/>
      <point x="3973" y="439" type="qcurve" smooth="yes"/>
    </contour>
  </outline>
</glyph>
<glyph name="uni040B" format="2">
  <advance width="4054.86"/>
  <unicode hex="040B"/>
  <outline>
    <contour>
      <point x="977" y="0" type="line"/>
      <point x="1549" y="0" type="line"/>
      <point x="1638" y="510" type="line"/>
      <point x="3151" y="510" type="line" smooth="yes"/>
      <point x="3168" y="510"/>
      <point x="3190" y="501"/>
      <point x="3201" y="486"/>
      <point x="3204" y="464"/>
      <point x="3202" y="450" type="qcurve"/>
      <point x="3123" y="0" type="line"/>
      <point x="3695" y="0" type="line"/>
      <point x="3793" y="560" type="line" smooth="yes"/>
      <point x="3810" y="661"/>
      <point x="3774" y="788"/>
      <point x="3679" y="860"/>
      <point x="3530" y="886"/>
      <point x="3436" y="886" type="qcurve" smooth="yes"/>
      <point x="1704" y="886" type="line"/>
      <point x="1728" y="1024" type="line"/>
      <point x="2772" y="1024" type="line"/>
      <point x="2837" y="1400" type="line"/>
      <point x="177" y="1400" type="line"/>
      <point x="112" y="1024" type="line"/>
      <point x="1156" y="1024" type="line"/>
    </contour>
  </outline>
</glyph>
<glyph name="uni040F" format="2">
  <advance width="3085"/>
  <unicode hex="040F"/>
  <outline>
    <contour>
      <point x="200" y="0" type="line"/>
      <point x="1168" y="0" type="line"/>
      <point x="1149" y="-260" type="line"/>
      <point x="1633" y="-260" type="line"/>
      <point x="1678" y="0" type="line"/>
      <point x="2645" y="0" type="line"/>
      <point x="2889" y="1400" type="line"/>
      <point x="2317" y="1400" type="line"/>
      <point x="2154" y="464" type="line"/>
      <point x="853" y="464" type="line"/>
      <point x="1016" y="1400" type="line"/>
      <point x="444" y="1400" type="line"/>
    </contour>
  </outline>
  <guideline angle="260.11" color="1,0,0,1" x="1423" y="0"/>
</glyph>
<glyph name="uni0411" format="2">
  <advance width="3273"/>
  <unicode hex="0411"/>
  <outline>
    <contour>
      <point x="200" y="0" type="line"/>
      <point x="2500" y="0" type="line" smooth="yes"/>
      <point x="2595" y="0"/>
      <point x="2753" y="29"/>
      <point x="2874" y="104"/>
      <point x="2955" y="234"/>
      <point x="2972" y="334" type="qcurve" smooth="yes"/>
      <point x="3012" y="560" type="line" smooth="yes"/>
      <point x="3030" y="661"/>
      <point x="2993" y="788"/>
      <point x="2898" y="860"/>
      <point x="2750" y="886"/>
      <point x="2655" y="886" type="qcurve" smooth="yes"/>
      <point x="927" y="886" type="line"/>
      <point x="951" y="1024" type="line"/>
      <point x="2956" y="1024" type="line"/>
      <point x="3021" y="1400" type="line"/>
      <point x="444" y="1400" type="line"/>
    </contour>
    <contour>
      <point x="838" y="376" type="line"/>
      <point x="862" y="516" type="line"/>
      <point x="2371" y="516" type="line" smooth="yes"/>
      <point x="2405" y="516"/>
      <point x="2427" y="483"/>
      <point x="2422" y="456" type="qcurve" smooth="yes"/>
      <point x="2418" y="436" type="line" smooth="yes"/>
      <point x="2416" y="423"/>
      <point x="2406" y="400"/>
      <point x="2389" y="385"/>
      <point x="2364" y="376"/>
      <point x="2347" y="376" type="qcurve" smooth="yes"/>
    </contour>
  </outline>
</glyph>
<glyph name="uni0413" format="2">
  <advance width="2234.2"/>
  <unicode hex="0413"/>
  <anchor x="1404" y="1550" name="top"/>
  <outline>
    <contour>
      <point x="200" y="0" type="line"/>
      <point x="772" y="0" type="line"/>
      <point x="932" y="916" type="line"/>
      <point x="2226" y="916" type="line"/>
      <point x="2310" y="1400" type="line"/>
      <point x="444" y="1400" type="line"/>
    </contour>
  </outline>
</glyph>
<glyph name="uni0414" format="2">
  <advance width="3179.66"/>
  <unicode hex="0414"/>
  <outline>
    <contour>
      <point x="401" y="0" type="line"/>
      <point x="2539" y="0" type="line"/>
      <point x="2519" y="-260" type="line"/>
      <point x="3004" y="-260" type="line"/>
      <point x="3130" y="464" type="line"/>
      <point x="2675" y="464" type="line"/>
      <point x="1968" y="1400" type="line"/>
      <point x="1424" y="1400" type="line"/>
      <point x="415" y="464" type="line"/>
      <point x="-28" y="464" type="line"/>
      <point x="-154" y="-260" type="line"/>
      <point x="331" y="-260" type="line"/>
    </contour>
    <contour>
      <point x="1029" y="404" type="line"/>
      <point x="1635" y="970" type="line"/>
      <point x="2019" y="404" type="line"/>
    </contour>
  </outline>
</glyph>
<glyph name="uni0416" format="2">
  <advance width="4440"/>
  <unicode hex="0416"/>
  <anchor x="2371" y="1550" name="top"/>
  <anchor x="2074" y="-150" name="bottom"/>
  <outline>
    <contour>
      <point x="-120" y="0" type="line"/>
      <point x="803" y="0" type="line"/>
      <point x="1922" y="619" type="line"/>
      <point x="1814" y="0" type="line"/>
      <point x="2386" y="0" type="line"/>
      <point x="2494" y="619" type="line"/>
      <point x="3397" y="0" type="line"/>
      <point x="4320" y="0" type="line"/>
      <point x="3185" y="756" type="line"/>
      <point x="4485" y="1400" type="line"/>
      <point x="3694" y="1400" type="line"/>
      <point x="2528" y="813" type="line"/>
      <point x="2630" y="1400" type="line"/>
      <point x="2058" y="1400" type="line"/>
      <point x="1956" y="813" type="line"/>
      <point x="994" y="1400" type="line"/>
      <point x="203" y="1400" type="line"/>
      <point x="1279" y="756" type="line"/>
    </contour>
  </outline>
</glyph>
<glyph name="uni0417" format="2">
  <advance width="3143"/>
  <unicode hex="0417"/>
  <anchor x="1762" y="1550" name="top"/>
  <anchor x="1622" y="0" name="ogonek"/>
  <outline>
    <contour>
      <point x="205" y="418" type="line"/>
      <point x="188" y="320" type="line" smooth="yes"/>
      <point x="174" y="239"/>
      <point x="201" y="119"/>
      <point x="284" y="40"/>
      <point x="422" y="0"/>
      <point x="520" y="0" type="qcurve" smooth="yes"/>
      <point x="2386" y="0" type="line" smooth="yes"/>
      <point x="2496" y="0"/>
      <point x="2655" y="38"/>
      <point x="2765" y="125"/>
      <point x="2831" y="265"/>
      <point x="2848" y="366" type="qcurve" smooth="yes"/>
      <point x="2859" y="430" type="line" smooth="yes"/>
      <point x="2868" y="480"/>
      <point x="2859" y="561"/>
      <point x="2823" y="628"/>
      <point x="2760" y="680"/>
      <point x="2714" y="700" type="qcurve"/>
      <point x="2763" y="721"/>
      <point x="2838" y="774"/>
      <point x="2894" y="841"/>
      <point x="2929" y="922"/>
      <point x="2937" y="970" type="qcurve" smooth="yes"/>
      <point x="2948" y="1034" type="line" smooth="yes"/>
      <point x="2964" y="1125"/>
      <point x="2938" y="1262"/>
      <point x="2854" y="1354"/>
      <point x="2713" y="1400"/>
      <point x="2614" y="1400" type="qcurve" smooth="yes"/>
      <point x="764" y="1400" type="line" smooth="yes"/>
      <point x="655" y="1400"/>
      <point x="501" y="1369"/>
      <point x="398" y="1297"/>
      <point x="339" y="1179"/>
      <point x="323" y="1092" type="qcurve" smooth="yes"/>
      <point x="300" y="964" type="line"/>
      <point x="758" y="880" type="line"/>
      <point x="783" y="1028" type="line"/>
      <point x="783" y="1028"/>
      <point x="783" y="1028"/>
      <point x="783" y="1028"/>
      <point x="783" y="1028"/>
      <point x="783" y="1028" type="qcurve"/>
      <point x="2331" y="1028" type="line" smooth="yes"/>
      <point x="2351" y="1028"/>
      <point x="2378" y="1021"/>
      <point x="2395" y="1006"/>
      <point x="2400" y="983"/>
      <point x="2397" y="968" type="qcurve" smooth="yes"/>
      <point x="2393" y="947" type="line" smooth="yes"/>
      <point x="2390" y="932"/>
      <point x="2377" y="910"/>
      <point x="2355" y="895"/>
      <point x="2325" y="887"/>
      <point x="2307" y="887" type="qcurve" smooth="yes"/>
      <point x="1079" y="887" type="line"/>
      <point x="1016" y="527" type="line"/>
      <point x="2244" y="527" type="line" smooth="yes"/>
      <point x="2262" y="527"/>
      <point x="2290" y="519"/>
      <point x="2306" y="504"/>
      <point x="2313" y="482"/>
      <point x="2310" y="467" type="qcurve" smooth="yes"/>
      <point x="2304" y="436" type="line" smooth="yes"/>
      <point x="2301" y="419"/>
      <point x="2289" y="396"/>
      <point x="2269" y="382"/>
      <point x="2239" y="376"/>
      <point x="2218" y="376" type="qcurve" smooth="yes"/>
      <point x="670" y="376" type="line"/>
      <point x="670" y="376"/>
      <point x="670" y="376"/>
      <point x="670" y="376"/>
      <point x="670" y="376"/>
      <point x="670" y="376" type="qcurve"/>
      <point x="692" y="502" type="line"/>
    </contour>
  </outline>
</glyph>
<glyph name="uni0418" format="2">
  <advance width="3244"/>
  <unicode hex="0418"/>
  <anchor x="1486" y="-150" name="bottom"/>
  <anchor x="1783" y="1550" name="top"/>
  <outline>
    <contour>
      <point x="200" y="0" type="line"/>
      <point x="664" y="0" type="line"/>
      <point x="2378" y="835" type="line"/>
      <point x="2232" y="0" type="line"/>
      <point x="2804" y="0" type="line"/>
      <point x="3048" y="1400" type="line"/>
      <point x="2586" y="1400" type="line"/>
      <point x="870" y="564" type="line"/>
      <point x="1016" y="1400" type="line"/>
      <point x="444" y="1400" type="line"/>
    </contour>
  </outline>
</glyph>
<glyph name="uni041B" format="2">
  <advance width="3150"/>
  <unicode hex="041B"/>
  <anchor x="1708" y="1550" name="top"/>
  <anchor x="1430" y="-150" name="bottom"/>
  <anchor x="2760" y="0" name="ogonek"/>
  <outline>
    <contour>
      <point x="-120" y="0" type="line"/>
      <point x="1409" y="1400" type="line"/>
      <point x="1953" y="1400" type="line"/>
      <point x="3030" y="0" type="line"/>
      <point x="2278" y="0" type="line"/>
      <point x="1600" y="970" type="line"/>
      <point x="540" y="0" type="line"/>
    </contour>
  </outline>
</glyph>
<glyph name="uni0423" format="2">
  <advance width="3072"/>
  <unicode hex="0423"/>
  <anchor x="1687" y="1550" name="top"/>
  <outline>
    <contour>
      <point x="591" y="-14" type="line"/>
      <point x="2210" y="-14" type="line" smooth="yes"/>
      <point x="2311" y="-14"/>
      <point x="2477" y="14"/>
      <point x="2603" y="89"/>
      <point x="2686" y="224"/>
      <point x="2705" y="330" type="qcurve" smooth="yes"/>
      <point x="2891" y="1400" type="line"/>
      <point x="2315" y="1400" type="line"/>
      <point x="2238" y="954" type="line"/>
      <point x="956" y="954" type="line"/>
      <point x="956" y="954"/>
      <point x="956" y="954"/>
      <point x="956" y="954"/>
      <point x="956" y="954"/>
      <point x="956" y="954" type="qcurve"/>
      <point x="1033" y="1400" type="line"/>
      <point x="457" y="1400" type="line"/>
      <point x="372" y="912" type="line" smooth="yes"/>
      <point x="354" y="806"/>
      <point x="389" y="672"/>
      <point x="487" y="596"/>
      <point x="642" y="568"/>
      <point x="742" y="568" type="qcurve" smooth="yes"/>
      <point x="2170" y="568" type="line"/>
      <point x="2138" y="382" type="line"/>
      <point x="2138" y="382"/>
      <point x="2138" y="382"/>
      <point x="2138" y="382"/>
      <point x="2138" y="382"/>
      <point x="2138" y="382" type="qcurve"/>
      <point x="806" y="382" type="line"/>
      <point x="806" y="382"/>
      <point x="806" y="382"/>
      <point x="806" y="382"/>
      <point x="806" y="382"/>
      <point x="806" y="382" type="qcurve"/>
      <point x="826" y="496" type="line"/>
      <point x="260" y="444" type="line"/>
      <point x="242" y="338" type="line" smooth="yes"/>
      <point x="224" y="232"/>
      <point x="257" y="96"/>
      <point x="349" y="17"/>
      <point x="496" y="-14"/>
      <point x="591" y="-14" type="qcurve"/>
    </contour>
  </outline>
</glyph>
<glyph name="uni0428" format="2">
  <advance width="4192"/>
  <unicode hex="0428"/>
  <outline>
    <contour>
      <point x="200" y="0" type="line"/>
      <point x="3752" y="0" type="line"/>
      <point x="3996" y="1400" type="line"/>
      <point x="3424" y="1400" type="line"/>
      <point x="3261" y="464" type="line"/>
      <point x="2343" y="464" type="line"/>
      <point x="2506" y="1400" type="line"/>
      <point x="1934" y="1400" type="line"/>
      <point x="1771" y="464" type="line"/>
      <point x="853" y="464" type="line"/>
      <point x="1016" y="1400" type="line"/>
      <point x="444" y="1400" type="line"/>
    </contour>
  </outline>
</glyph>
